<svg width="110" height="118" viewBox="0 0 110 118" fill="none" xmlns="http://www.w3.org/2000/svg">
<path d="M7.19727 12.6104L11.5586 12.6104V14.4902L7.19727 14.4902L7.19727 19.4316H5.19922L5.19922 14.4902H0.837891L0.837891 12.6104H5.19922L5.19922 8.04492H7.19727L7.19727 12.6104Z" fill="#FF7152"/>
<path d="M7.19727 37.0405H11.5586V38.9204H7.19727L7.19727 43.8618H5.19922L5.19922 38.9204H0.837891L0.837891 37.0405H5.19922L5.19922 32.4751H7.19727L7.19727 37.0405Z" fill="#E5E5E5"/>
<path d="M7.19727 61.4709H11.5586V63.3508H7.19727L7.19727 68.2922H5.19922L5.19922 63.3508H0.837891L0.837891 61.4709H5.19922L5.19922 56.9055H7.19727L7.19727 61.4709Z" fill="#E5E5E5"/>
<path d="M31.6274 12.6104L35.9888 12.6104V14.4902L31.6274 14.4902L31.6274 19.4316H29.6294L29.6294 14.4902H25.2681V12.6104H29.6294V8.04492H31.6274V12.6104Z" fill="#E5E5E5"/>
<path d="M31.6274 37.0405H35.9888V38.9204H31.6274L31.6274 43.8618H29.6294L29.6294 38.9204H25.2681V37.0405H29.6294V32.4751H31.6274V37.0405Z" fill="#E5E5E5"/>
<path d="M31.6274 61.4709H35.9888V63.3508H31.6274L31.6274 68.2922H29.6294L29.6294 63.3508H25.2681V61.4709H29.6294V56.9055H31.6274V61.4709Z" fill="#E5E5E5"/>
<path d="M31.6274 85.9011H35.9888V87.781H31.6274L31.6274 92.7224H29.6294L29.6294 87.781H25.2681V85.9011H29.6294V81.3357H31.6274V85.9011Z" fill="#E5E5E5"/>
<path d="M56.0579 12.6104L60.4192 12.6104V14.4902L56.0579 14.4902V19.4316H54.0598V14.4902H49.6985V12.6104H54.0598V8.04492H56.0579V12.6104Z" fill="#E5E5E5"/>
<path d="M56.0579 37.0405H60.4192V38.9204H56.0579V43.8618H54.0598V38.9204H49.6985V37.0405H54.0598V32.4751H56.0579V37.0405Z" fill="#E5E5E5"/>
<path d="M56.0579 61.4709H60.4192V63.3508H56.0579V68.2922H54.0598V63.3508H49.6985V61.4709H54.0598V56.9055H56.0579V61.4709Z" fill="#6246E5"/>
<path d="M56.0579 85.9011H60.4192V87.781H56.0579V92.7224H54.0598V87.781H49.6985V85.9011H54.0598V81.3357H56.0579V85.9011Z" fill="#E5E5E5"/>
<path d="M56.0579 110.332H60.4192V112.211H56.0579V117.153H54.0598V112.211H49.6985V110.332H54.0598V105.766H56.0579V110.332Z" fill="#E5E5E5"/>
<path d="M80.488 12.6104L84.8494 12.6104V14.4902L80.488 14.4902V19.4316H78.49V14.4902H74.1287V12.6104H78.49V8.04492H80.488V12.6104Z" fill="#E5E5E5"/>
<path d="M80.488 37.0405H84.8494V38.9204H80.488V43.8618H78.49V38.9204H74.1287V37.0405H78.49V32.4751H80.488V37.0405Z" fill="#E5E5E5"/>
<path d="M80.488 61.4709H84.8494V63.3508H80.488V68.2922H78.49V63.3508H74.1287V61.4709H78.49V56.9055H80.488V61.4709Z" fill="#E5E5E5"/>
<path d="M80.488 85.9011H84.8494V87.781H80.488V92.7224H78.49V87.781H74.1287V85.9011H78.49V81.3357H80.488V85.9011Z" fill="#E5E5E5"/>
<path d="M80.488 110.332H84.8494V112.211H80.488V117.153H78.49V112.211H74.1287V110.332H78.49V105.766H80.488V110.332Z" fill="#E5E5E5"/>
<path d="M104.918 12.6104L109.28 12.6104V14.4902L104.918 14.4902V19.4316H102.92V14.4902H98.5591V12.6104H102.92V8.04492H104.918V12.6104Z" fill="#E5E5E5"/>
<path d="M104.918 37.0405H109.28V38.9204H104.918V43.8618H102.92V38.9204H98.5591V37.0405H102.92V32.4751H104.918V37.0405Z" fill="#E5E5E5"/>
<path d="M104.918 61.4709H109.28V63.3508H104.918V68.2922H102.92V63.3508H98.5591V61.4709H102.92V56.9055H104.918V61.4709Z" fill="#E5E5E5"/>
<path d="M104.918 85.9011H109.28V87.781H104.918V92.7224H102.92V87.781H98.5591V85.9011H102.92V81.3357H104.918V85.9011Z" fill="#E5E5E5"/>
<path d="M104.918 110.332H109.28V112.211H104.918V117.153H102.92V112.211H98.5591V110.332H102.92V105.766H104.918V110.332Z" fill="#E5E5E5"/>
</svg>
