<svg width="132" height="142" viewBox="0 0 132 142" fill="none" xmlns="http://www.w3.org/2000/svg">
<path d="M124.803 129.39L120.441 129.39L120.441 127.51L124.803 127.51L124.803 122.568L126.801 122.568L126.801 127.51L131.162 127.51L131.162 129.39L126.801 129.39L126.801 133.955L124.803 133.955L124.803 129.39Z" fill="#FF7152"/>
<path d="M124.803 99.3896L120.441 99.3896L120.441 97.5098L124.803 97.5098L124.803 92.5684L126.801 92.5684L126.801 97.5098L131.162 97.5098L131.162 99.3896L126.801 99.3896L126.801 103.955L124.803 103.955L124.803 99.3896Z" fill="#E5E5E5"/>
<path d="M124.803 69.3896L120.441 69.3896L120.441 67.5098L124.803 67.5098L124.803 62.5684L126.801 62.5684L126.801 67.5098L131.162 67.5098L131.162 69.3896L126.801 69.3896L126.801 73.9551L124.803 73.9551L124.803 69.3896Z" fill="#E5E5E5"/>
<path d="M94.8027 129.39L90.4414 129.39L90.4414 127.51L94.8027 127.51L94.8027 122.568L96.8008 122.568L96.8008 127.51L101.162 127.51L101.162 129.39L96.8008 129.39L96.8008 133.955L94.8027 133.955L94.8027 129.39Z" fill="#E5E5E5"/>
<path d="M94.8027 99.3896L90.4414 99.3896L90.4414 97.5098L94.8027 97.5098L94.8027 92.5684L96.8008 92.5684L96.8008 97.5098L101.162 97.5098L101.162 99.3896L96.8008 99.3896L96.8008 103.955L94.8027 103.955L94.8027 99.3896Z" fill="#E5E5E5"/>
<path d="M94.8027 69.3896L90.4414 69.3896L90.4414 67.5098L94.8027 67.5098L94.8027 62.5684L96.8008 62.5684L96.8008 67.5098L101.162 67.5098L101.162 69.3896L96.8008 69.3896L96.8008 73.9551L94.8027 73.9551L94.8027 69.3896Z" fill="#E5E5E5"/>
<path d="M94.8027 39.3896L90.4414 39.3896L90.4414 37.5098L94.8027 37.5098L94.8027 32.5684L96.8008 32.5684L96.8008 37.5098L101.162 37.5098L101.162 39.3896L96.8008 39.3896L96.8008 43.9551L94.8027 43.9551L94.8027 39.3896Z" fill="#E5E5E5"/>
<path d="M64.8027 129.39L60.4414 129.39L60.4414 127.51L64.8027 127.51L64.8027 122.568L66.8008 122.568L66.8008 127.51L71.1621 127.51L71.1621 129.39L66.8008 129.39L66.8008 133.955L64.8027 133.955L64.8027 129.39Z" fill="#E5E5E5"/>
<path d="M64.8027 99.3896L60.4414 99.3896L60.4414 97.5098L64.8027 97.5098L64.8027 92.5684L66.8008 92.5684L66.8008 97.5098L71.1621 97.5098L71.1621 99.3896L66.8008 99.3896L66.8008 103.955L64.8027 103.955L64.8027 99.3896Z" fill="#E5E5E5"/>
<path d="M64.8027 69.3896L60.4414 69.3896L60.4414 67.5098L64.8027 67.5098L64.8027 62.5684L66.8008 62.5684L66.8008 67.5098L71.1621 67.5098L71.1621 69.3896L66.8008 69.3896L66.8008 73.9551L64.8027 73.9551L64.8027 69.3896Z" fill="#6246E5"/>
<path d="M64.8027 39.3896L60.4414 39.3896L60.4414 37.5098L64.8027 37.5098L64.8027 32.5684L66.8008 32.5684L66.8008 37.5098L71.1621 37.5098L71.1621 39.3897L66.8008 39.3896L66.8008 43.9551L64.8027 43.9551L64.8027 39.3896Z" fill="#E5E5E5"/>
<path d="M64.8027 9.38965L60.4414 9.38965L60.4414 7.50977L64.8027 7.50977L64.8027 2.56836L66.8008 2.56836L66.8008 7.50977L71.1621 7.50977L71.1621 9.38965L66.8008 9.38965L66.8008 13.9551L64.8027 13.9551L64.8027 9.38965Z" fill="#E5E5E5"/>
<path d="M34.8027 129.39L30.4414 129.39L30.4414 127.51L34.8027 127.51L34.8027 122.568L36.8008 122.568L36.8008 127.51L41.1621 127.51L41.1621 129.39L36.8008 129.39L36.8008 133.955L34.8027 133.955L34.8027 129.39Z" fill="#E5E5E5"/>
<path d="M34.8027 99.3896L30.4414 99.3896L30.4414 97.5098L34.8027 97.5098L34.8027 92.5684L36.8008 92.5684L36.8008 97.5098L41.1621 97.5098L41.1621 99.3896L36.8008 99.3896L36.8008 103.955L34.8027 103.955L34.8027 99.3896Z" fill="#E5E5E5"/>
<path d="M34.8027 69.3896L30.4414 69.3896L30.4414 67.5098L34.8027 67.5098L34.8027 62.5684L36.8008 62.5684L36.8008 67.5098L41.1621 67.5098L41.1621 69.3896L36.8008 69.3896L36.8008 73.9551L34.8027 73.9551L34.8027 69.3896Z" fill="#E5E5E5"/>
<path d="M34.8027 39.3896L30.4414 39.3896L30.4414 37.5098L34.8027 37.5098L34.8027 32.5684L36.8008 32.5684L36.8008 37.5098L41.1621 37.5098L41.1621 39.3896L36.8008 39.3896L36.8008 43.9551L34.8027 43.9551L34.8027 39.3896Z" fill="#EB5757"/>
<path d="M34.8027 9.38965L30.4414 9.38965L30.4414 7.50976L34.8027 7.50976L34.8027 2.56836L36.8008 2.56836L36.8008 7.50977L41.1621 7.50977L41.1621 9.38965L36.8008 9.38965L36.8008 13.9551L34.8027 13.9551L34.8027 9.38965Z" fill="#E5E5E5"/>
<path d="M4.80274 129.39L0.441407 129.39L0.441408 127.51L4.80274 127.51L4.80274 122.568L6.80078 122.568L6.80078 127.51L11.1621 127.51L11.1621 129.39L6.80078 129.39L6.80078 133.955L4.80274 133.955L4.80274 129.39Z" fill="#E5E5E5"/>
<path d="M4.80274 99.3896L0.441407 99.3896L0.441408 97.5098L4.80274 97.5098L4.80274 92.5684L6.80078 92.5684L6.80078 97.5098L11.1621 97.5098L11.1621 99.3896L6.80078 99.3896L6.80078 103.955L4.80274 103.955L4.80274 99.3896Z" fill="#E5E5E5"/>
<path d="M4.80274 69.3896L0.441407 69.3896L0.441408 67.5098L4.80274 67.5098L4.80274 62.5684L6.80078 62.5684L6.80078 67.5098L11.1621 67.5098L11.1621 69.3896L6.80078 69.3896L6.80078 73.9551L4.80274 73.9551L4.80274 69.3896Z" fill="#E5E5E5"/>
<path d="M4.80274 39.3896L0.441407 39.3896L0.441408 37.5098L4.80274 37.5098L4.80274 32.5684L6.80078 32.5684L6.80078 37.5098L11.1621 37.5098L11.1621 39.3896L6.80078 39.3896L6.80078 43.9551L4.80274 43.9551L4.80274 39.3896Z" fill="#E5E5E5"/>
<path d="M4.80274 9.38964L0.441407 9.38964L0.441408 7.50976L4.80274 7.50976L4.80274 2.56836L6.80078 2.56836L6.80078 7.50976L11.1621 7.50976L11.1621 9.38965L6.80078 9.38965L6.80078 13.9551L4.80274 13.9551L4.80274 9.38964Z" fill="#E5E5E5"/>
</svg>
