<svg width="114" height="47" viewBox="0 0 114 47" fill="none" xmlns="http://www.w3.org/2000/svg">
<path d="M10.8169 14.2839C8.78117 14.2839 6.93523 14.7155 5.27906 15.5787C3.65739 16.4419 2.3635 17.7022 1.3974 19.3596C0.465799 21.0515 0 23.106 0 25.523C0 27.94 0.483051 30.0117 1.44915 31.7382C2.44976 33.4646 3.77815 34.794 5.43432 35.7262C7.125 36.6585 8.97095 37.1246 10.9722 37.1246C12.9044 37.1246 14.5433 36.7103 15.8889 35.8816C17.2346 35.0529 18.2869 34.0516 19.046 32.8776L19.4083 36.2442H23.8593V14.8018H19.046V18.3238C18.632 17.7713 18.0281 17.1843 17.2346 16.5628C16.4755 15.9413 15.5439 15.4061 14.4398 14.9572C13.3702 14.5083 12.1625 14.2839 10.8169 14.2839ZM12.1108 18.272C13.8705 18.272 15.3714 18.7554 16.6135 19.7222C17.8556 20.7235 18.6665 22.0701 19.046 23.762V28.0091C18.632 29.4938 17.7694 30.7196 16.4582 31.6864C15.1471 32.6532 13.6462 33.1366 11.9555 33.1366C10.6444 33.1366 9.454 32.8258 8.38438 32.2043C7.31477 31.5828 6.45218 30.7196 5.79661 29.6146C5.17555 28.5097 4.86501 27.2322 4.86501 25.782C4.86501 24.3663 5.1928 23.0887 5.84837 21.9493C6.50393 20.8444 7.38378 19.9466 8.48789 19.256C9.59201 18.6 10.7996 18.272 12.1108 18.272Z" fill="white"/>
<path d="M100.958 14.2839C98.9219 14.2839 97.076 14.7155 95.4198 15.5787C93.7981 16.4419 92.5043 17.7022 91.5382 19.3596C90.6066 21.0515 90.1408 23.106 90.1408 25.523C90.1408 27.94 90.6238 30.0117 91.5899 31.7382C92.5905 33.4646 93.9189 34.794 95.5751 35.7262C97.2658 36.6585 99.1117 37.1246 101.113 37.1246C103.045 37.1246 104.684 36.7103 106.03 35.8816C107.375 35.0529 108.428 34.0516 109.187 32.8776L109.549 36.2442H114V14.8018H109.187V18.3238C108.773 17.7713 108.169 17.1843 107.375 16.5628C106.616 15.9413 105.685 15.4061 104.581 14.9572C103.511 14.5083 102.303 14.2839 100.958 14.2839ZM102.252 18.272C104.011 18.272 105.512 18.7554 106.754 19.7222C107.996 20.7235 108.807 22.0701 109.187 23.762V28.0091C108.773 29.4938 107.91 30.7196 106.599 31.6864C105.288 32.6532 103.787 33.1366 102.096 33.1366C100.785 33.1366 99.5947 32.8258 98.5251 32.2043C97.4555 31.5828 96.5929 30.7196 95.9374 29.6146C95.3163 28.5097 95.0058 27.2322 95.0058 25.782C95.0058 24.3663 95.3336 23.0887 95.9891 21.9493C96.6447 20.8444 97.5245 19.9466 98.6286 19.256C99.7328 18.6 100.94 18.272 102.252 18.272Z" fill="white"/>
<path d="M36.0564 36.9002C34.0207 36.9002 32.192 36.4341 30.5703 35.5018C28.9831 34.535 27.7237 33.1884 26.7921 31.462C25.895 29.701 25.4465 27.6638 25.4465 25.3504C25.4465 23.0024 25.9295 20.9825 26.8957 19.2906C27.8618 17.5987 29.1901 16.3039 30.8808 15.4061C32.606 14.5084 34.521 14.0595 36.6257 14.0595C38.2473 14.0595 39.8 14.4048 41.2837 15.0954C42.7673 15.7514 43.9577 16.6664 44.8548 17.8404V0H49.668V36.3823H44.803V33.0676C43.7679 34.207 42.4913 35.1393 40.9731 35.8644C39.4895 36.5549 37.8506 36.9002 36.0564 36.9002ZM37.5573 32.7568C39.4205 32.7568 40.9904 32.2561 42.267 31.2548C43.5437 30.2535 44.3717 28.9068 44.7513 27.2149V23.1751C44.3717 21.6558 43.5092 20.3955 42.1635 19.3942C40.8524 18.3929 39.317 17.8922 37.5573 17.8922C36.2461 17.8922 35.0385 18.2202 33.9344 18.8763C32.8303 19.4978 31.9504 20.361 31.2949 21.4659C30.6393 22.5708 30.3115 23.8484 30.3115 25.2986C30.3115 26.6797 30.6393 27.94 31.2949 29.0795C31.9504 30.2189 32.8303 31.1167 33.9344 31.7727C35.0385 32.4288 36.2461 32.7568 37.5573 32.7568Z" fill="white"/>
<path d="M70.9912 36.3823V6.70586H75.7228L75.7963 23.3305L86.8525 14.4221L89.7974 17.0117L81.8926 23.4341L90.8308 36.3823H85.1994L78.5859 26.1273L75.7963 28.3544V36.3823H70.9912Z" fill="white"/>
<path d="M63.5385 47C61.1577 47 59.1738 46.5857 57.5866 45.757C55.9994 44.9628 54.533 43.9442 53.1874 42.7012L56.0339 39.3864C57.1381 40.4914 58.2767 41.3201 59.4498 41.8725C60.6229 42.4595 61.9513 42.753 63.435 42.753C65.8502 42.753 67.6962 42.166 68.9728 40.992C70.2494 39.8526 70.905 38.3333 70.9395 36.4342V32.498C70.2149 33.7755 69.0936 34.8287 67.5754 35.6573C66.0572 36.486 64.2631 36.9004 62.1928 36.9004C60.1916 36.9004 58.3629 36.3997 56.7068 35.3984C55.0851 34.397 53.774 33.0504 52.7733 31.3585C51.8072 29.6321 51.3242 27.6985 51.3242 25.5577C51.3242 23.3133 51.8417 21.3279 52.8769 19.6015C53.912 17.8751 55.2749 16.5284 56.9655 15.5616C58.6562 14.5603 60.5022 14.0596 62.5034 14.0596C64.3666 14.0596 66.0572 14.4222 67.5754 15.1473C69.0936 15.8724 70.2322 16.8047 70.9913 17.9441L71.4053 14.9401H75.8045V36.5378C75.8045 38.4714 75.3042 40.2324 74.3036 41.8207C73.303 43.409 71.8884 44.6693 70.0597 45.6016C68.231 46.5339 66.0572 47 63.5385 47ZM56.1892 25.4023C56.1892 26.818 56.517 28.0956 57.1726 29.235C57.8281 30.3399 58.708 31.2377 59.8121 31.9282C60.9507 32.5843 62.2101 32.9123 63.5902 32.9123C65.4534 32.9123 67.0406 32.4116 68.3517 31.4103C69.6974 30.3745 70.56 29.0624 70.9395 27.474V23.227C70.491 21.7078 69.5939 20.4647 68.2482 19.4979C66.9026 18.5311 65.3499 18.0477 63.5902 18.0477C62.1756 18.0477 60.899 18.3585 59.7603 18.98C58.6562 19.6015 57.7764 20.4647 57.1208 21.5696C56.4997 22.6746 56.1892 23.9521 56.1892 25.4023Z" fill="white"/>
<path d="M73.3633 4.74769C74.6734 4.74769 75.7355 3.68489 75.7355 2.37385C75.7355 1.06281 74.6734 0 73.3633 0C72.0532 0 70.9912 1.06281 70.9912 2.37385C70.9912 3.68489 72.0532 4.74769 73.3633 4.74769Z" fill="white"/>
</svg>
