<svg width="177" height="43" viewBox="0 0 177 43" fill="none" xmlns="http://www.w3.org/2000/svg">
<path d="M57.6427 9.45001L53.4164 8.87345L51.5269 5.27813C51.4753 5.1797 51.3904 5.10001 51.2855 5.05157C51.0225 4.9297 50.7029 5.03126 50.5714 5.27813L48.6822 8.87345L44.4557 9.45001C44.3391 9.46563 44.2326 9.5172 44.151 9.59532C44.0524 9.69046 43.9981 9.81845 44 9.95117C44.0018 10.0839 44.0598 10.2105 44.161 10.3031L47.219 13.1016L46.4966 17.0531C46.4796 17.1451 46.4905 17.2396 46.5278 17.326C46.5652 17.4125 46.6276 17.4873 46.708 17.5422C46.7884 17.597 46.8836 17.6296 46.9827 17.6362C47.0818 17.6428 47.1811 17.6233 47.2689 17.5797L51.0493 15.7141L54.8296 17.5797C54.9328 17.6313 55.0525 17.6484 55.1674 17.6297C55.457 17.5828 55.6519 17.325 55.602 17.0531L54.8795 13.1016L57.9374 10.3031C58.0206 10.2266 58.0757 10.1266 58.0922 10.0172C58.1371 9.74376 57.934 9.49063 57.6427 9.45001Z" fill="#FEA250"/>
<path d="M112.046 13V11H99.2614L103.523 7L102.457 5L95 12L102.457 19L103.523 17L99.2614 13H112.046Z" fill="#3D3D3D"/>
<path d="M138.046 30V28H125.261L129.523 24L128.457 22L121 29L128.457 36L129.523 34L125.261 30H138.046Z" fill="white"/>
<path d="M112.046 30V28H99.2614L103.523 24L102.457 22L95 29L102.457 36L103.523 34L99.2614 30H112.046Z" fill="#FD665E"/>
<path d="M69 13V11H81.7842L77.5228 7L78.5881 5L86.0456 12L78.5881 19L77.5228 17L81.7842 13H69Z" fill="#FD665E"/>
<path d="M69 30V28H81.7842L77.5228 24L78.5881 22L86.0456 29L78.5881 36L77.5228 34L81.7842 30H69Z" fill="#3D3D3D"/>
<path d="M138.865 6.52679C138.387 7.18304 137.809 7.74219 137.131 8.20425C137.138 8.298 137.142 8.43862 137.142 8.62612C137.142 9.49666 137.006 10.3672 136.735 11.2377C136.464 12.1016 136.05 12.9319 135.494 13.7288C134.945 14.5257 134.288 15.2321 133.525 15.8482C132.762 16.4575 131.841 16.9464 130.764 17.3147C129.687 17.6763 128.535 17.8571 127.308 17.8571C125.374 17.8571 123.605 17.3716 122 16.4006C122.25 16.4274 122.528 16.4408 122.835 16.4408C124.44 16.4408 125.87 15.9788 127.126 15.0546C126.377 15.0413 125.706 14.827 125.114 14.4118C124.522 13.99 124.115 13.4542 123.894 12.8047C124.13 12.8382 124.347 12.8549 124.547 12.8549C124.854 12.8549 125.157 12.8181 125.456 12.7444C124.657 12.5904 123.994 12.2188 123.466 11.6295C122.945 11.0335 122.685 10.3438 122.685 9.56027V9.5201C123.17 9.77456 123.691 9.91184 124.247 9.93193C123.776 9.63728 123.402 9.25224 123.124 8.77679C122.845 8.30135 122.706 7.78572 122.706 7.22992C122.706 6.64063 122.863 6.09487 123.177 5.59264C124.04 6.59041 125.089 7.39063 126.323 7.99331C127.565 8.58929 128.891 8.92077 130.304 8.98773C130.247 8.73327 130.218 8.4855 130.218 8.24443C130.218 7.3471 130.554 6.58371 131.224 5.95425C131.902 5.31808 132.719 5 133.675 5C134.674 5 135.515 5.34152 136.2 6.02456C136.978 5.88394 137.709 5.62277 138.394 5.24107C138.13 6.01117 137.623 6.60715 136.874 7.02903C137.538 6.96206 138.201 6.79465 138.865 6.52679Z" fill="white"/>
<path d="M35.2457 5.12054V7.77233H33.5656C32.9521 7.77233 32.5383 7.89286 32.3243 8.13394C32.1103 8.37501 32.0033 8.73662 32.0033 9.21876V11.1172H35.1387L34.7213 14.0904H32.0033V21.7143H28.7288V14.0904H26V11.1172H28.7288V8.92746C28.7288 7.68193 29.0997 6.71764 29.8417 6.03461C30.5836 5.34487 31.5717 5 32.8058 5C33.8546 5 34.6678 5.04018 35.2457 5.12054Z" fill="white"/>
<path d="M35.2457 5.12054V7.77233H33.5656C32.9521 7.77233 32.5383 7.89286 32.3243 8.13394C32.1103 8.37501 32.0033 8.73662 32.0033 9.21876V11.1172H35.1387L34.7213 14.0904H32.0033V21.7143H28.7288V14.0904H26V11.1172H28.7288V8.92746C28.7288 7.68193 29.0997 6.71764 29.8417 6.03461C30.5836 5.34487 31.5717 5 32.8058 5C33.8546 5 34.6678 5.04018 35.2457 5.12054Z" fill="white"/>
<path d="M162.377 12.5335C162.377 13.9263 162.067 15.1685 161.446 16.2601C160.826 17.3449 159.941 18.192 158.793 18.8013C157.644 19.4174 156.328 19.7255 154.844 19.7255C153.781 19.7255 152.764 19.5313 151.794 19.1429C150.824 18.7545 149.989 18.2321 149.29 17.5759C148.591 16.9196 148.034 16.1362 147.621 15.2255C147.207 14.3147 147 13.3605 147 12.3627C147 11.365 147.207 10.4107 147.621 9.5C148.034 8.58929 148.591 7.80581 149.29 7.14956C149.989 6.49331 150.824 5.97099 151.794 5.58259C152.764 5.1942 153.781 5 154.844 5C156.884 5 158.636 5.64286 160.098 6.92858L157.969 8.8471C157.134 8.09041 156.092 7.71206 154.844 7.71206C153.966 7.71206 153.153 7.91965 152.404 8.33483C151.662 8.75 151.074 9.31585 150.638 10.0324C150.203 10.7422 149.986 11.519 149.986 12.3627C149.986 13.2065 150.203 13.9866 150.638 14.7031C151.074 15.413 151.662 15.9755 152.404 16.3906C153.153 16.8058 153.966 17.0134 154.844 17.0134C155.436 17.0134 155.978 16.9364 156.47 16.7824C156.97 16.6284 157.38 16.4375 157.701 16.2098C158.022 15.9755 158.3 15.7109 158.536 15.4163C158.778 15.1217 158.953 14.8438 159.06 14.5826C159.174 14.3214 159.253 14.0737 159.296 13.8393H154.844V11.308H162.249C162.335 11.7299 162.377 12.1384 162.377 12.5335ZM171.655 11.308V13.4174H169.419V15.5167H167.172V13.4174H164.935V11.308H167.172V9.20871H169.419V11.308H171.655Z" fill="white"/>
<path d="M60 23.4L58.6 22L52 28.6L45.4 22L44 23.4L50.6 30L44 36.6L45.4 38L52 31.4L58.6 38L60 36.6L53.4 30L60 23.4Z" fill="black"/>
<path d="M3.48731 5.16316C3.5904 5.05804 3.72772 5 3.8743 5C4.02072 5 4.15804 5.05804 4.26105 5.16316L7.65219 8.6265L7.64482 8.63403L8.00207 8.98384L8.35933 8.63403L8.35196 8.6265L11.739 5.16739C11.9521 4.9496 12.2991 4.9496 12.5126 5.16739M3.48731 5.16316L3.15975 5.49785C3.05675 5.60306 3 5.74329 3 5.89292C3 6.04254 3.05675 6.18286 3.15975 6.28798L7.61386 10.8371M3.48731 5.16316L3.84429 5.51325L3.5171 5.84758L3.51701 5.84766C3.50706 5.85783 3.5 5.87184 3.5 5.89292C3.5 5.91411 3.50713 5.92809 3.51688 5.93803L3.51702 5.93818L7.97085 10.487L7.61386 10.8371M3.48731 5.16316L3.84466 5.51288L3.84438 5.51316C3.85012 5.50732 3.8551 5.50442 3.85885 5.50284C3.86259 5.50126 3.86745 5.5 3.8743 5.5C3.88101 5.5 3.88581 5.50124 3.88952 5.50281C3.89325 5.50438 3.89818 5.50726 3.90385 5.51303L3.90379 5.51297L4.26104 5.16317L3.90393 5.51311L7.64482 9.33365L8.00207 9.69851L8.35933 9.33365L12.0962 5.5172L12.0963 5.51713C12.1058 5.50741 12.1157 5.50405 12.1257 5.50405C12.1357 5.50405 12.1458 5.50743 12.1555 5.5174M7.61386 10.8371C7.7172 10.9425 7.85516 11.0003 8.00183 11C8.14906 11.0003 8.28695 10.9425 8.3902 10.8371M7.61386 10.8371L7.97113 10.4873L7.97093 10.4871C7.97645 10.4927 7.98132 10.4956 7.98513 10.4972C7.98895 10.4988 7.99389 10.5 8.0007 10.5L8.00296 10.5C8.01027 10.5 8.01536 10.4987 8.01908 10.4971C8.0228 10.4955 8.02759 10.4927 8.03308 10.4871M8.3902 10.8371L12.8402 6.29221C12.9433 6.1871 13 6.04677 13 5.89715C13 5.74753 12.9433 5.60721 12.8402 5.50209L12.5126 5.16739M8.3902 10.8371L8.03308 10.4871M8.3902 10.8371L8.03294 10.4873L8.03308 10.4871M12.5126 5.16739L12.1553 5.51716L12.1555 5.5174M12.5126 5.16739L12.1555 5.5174M12.1555 5.5174L12.4829 5.85186L12.4831 5.85204C12.4929 5.86198 12.5 5.87596 12.5 5.89715C12.5 5.91834 12.4929 5.93232 12.4831 5.94226L12.483 5.94241L8.03308 10.4871" stroke="#EB5757"/>
<path d="M24 37.6667H2V35.2222H24V37.6667ZM24 31.5556H2V29.1111H24V31.5556ZM24 25.4444H2V23H24V25.4444Z" fill="black"/>
</svg>
