<svg width="12" height="18" viewBox="0 0 12 18" fill="none" xmlns="http://www.w3.org/2000/svg">
<path d="M5.64448 -0.000205994C6.84089 -0.000205994 7.21683 0.878387 7.53225 1.75561C7.66473 2.12812 10.7738 10.8452 10.8673 11.1069C10.8922 11.1799 10.8754 11.2997 10.7657 11.3431C10.6554 11.3857 9.04004 12.0289 8.9506 12.0633C8.86115 12.0984 8.76095 12.0474 8.72866 11.9559C8.69504 11.8657 8.02453 9.96525 7.94921 9.75318H3.34109C3.26846 9.96525 2.58988 11.8698 2.55962 11.9559C2.52868 12.0433 2.43251 12.1025 2.33701 12.0633C2.24152 12.0247 0.620065 11.3816 0.523222 11.3431C0.430414 11.3059 0.388045 11.1978 0.420326 11.1069C0.534655 10.7805 3.59665 2.20317 3.75267 1.75561C4.05665 0.891472 4.44537 -0.000205994 5.64448 -0.000205994ZM0.174183 15.5976C0.0773399 15.5976 0 15.6803 0 15.7808V17.8182C0 17.9188 0.0773399 18 0.174183 18H11.1101C11.2089 18 11.2863 17.9188 11.2863 17.8182V15.7808C11.2863 15.6803 11.2089 15.5976 11.1101 15.5976H0.174183ZM5.63372 2.84628L4.07616 7.63518H7.21683L5.65389 2.84628H5.63372Z" fill="#EE2A23"/>
</svg>
