<svg width="18" height="18" viewBox="0 0 18 18" fill="none" xmlns="http://www.w3.org/2000/svg">
<path fill-rule="evenodd" clip-rule="evenodd" d="M9.2506 6.5C10.5052 6.5 11.5498 7.37067 11.7775 8.52292H17.9994V9.30981H11.8033C11.6439 10.5392 10.5616 11.4905 9.2506 11.4905C7.82959 11.4905 6.67773 10.3734 6.67773 8.99515C6.67773 7.66399 7.88212 6.5 9.2506 6.5ZM9.2506 7.51162C10.0957 7.51162 10.7805 8.17574 10.7805 8.99515C10.7805 9.81463 10.0958 10.4788 9.2506 10.4788C8.40567 10.4788 7.72054 9.81455 7.72054 8.99515C7.72054 8.81215 7.7548 8.63679 7.81724 8.4752C7.94935 8.13212 8.20918 7.84919 8.54038 7.68084C8.75238 7.57288 8.99426 7.51162 9.2506 7.51162Z" fill="#E62117"/>
<path fill-rule="evenodd" clip-rule="evenodd" d="M2.08399 12.0599C2.08107 12.9605 3.18704 14.3293 3.81761 14.6226L5.83769 12.5526C5.34703 12.0478 4.96402 11.5132 4.67293 10.9531L2.08399 12.0599Z" fill="#D4D4D4"/>
<path fill-rule="evenodd" clip-rule="evenodd" d="M5.35742 15.5692C5.90623 16.2954 7.63457 16.7594 8.32133 16.6322L8.67867 13.8034C7.97478 13.6797 7.3391 13.4705 6.76204 13.1875L5.35742 15.5692Z" fill="#C4C4C4"/>
<path fill-rule="evenodd" clip-rule="evenodd" d="M10.0506 16.5192C10.9341 16.7968 12.6156 16.1932 13.0961 15.7001L11.68 13.2031C11.0345 13.5021 10.3927 13.693 9.75391 13.7906L10.0506 16.5192Z" fill="#A3A3A3"/>
<path fill-rule="evenodd" clip-rule="evenodd" d="M14.4313 14.6214C15.3154 14.3454 16.3149 12.9017 16.4075 12.2295L13.7526 11.0078C13.4095 11.6163 13.0038 12.135 12.5449 12.5768L14.4313 14.6214Z" fill="#828282"/>
<path fill-rule="evenodd" clip-rule="evenodd" d="M1.57762 7.46094C1.03393 8.19097 1.11001 9.92821 1.44632 10.5233L4.33163 9.98286C4.23631 9.29543 4.24629 8.64453 4.34641 8.02482L1.57762 7.46094Z" fill="#FF9473"/>
<path fill-rule="evenodd" clip-rule="evenodd" d="M3.96098 3.40625C3.07886 3.68792 2.08973 5.13837 2.00195 5.81116L4.66535 7.01538C5.00427 6.40449 5.40619 5.88281 5.86194 5.43791L3.96098 3.40625Z" fill="#FF754D"/>
<path fill-rule="evenodd" clip-rule="evenodd" d="M8.33312 1.47719C7.44792 1.20474 5.7704 1.8187 5.29297 2.31447L6.72527 4.80293C7.36859 4.50024 8.00931 4.3055 8.64743 4.20384L8.33312 1.47719Z" fill="#FF5E2E"/>
<path fill-rule="evenodd" clip-rule="evenodd" d="M13.1362 2.45108C12.594 1.72002 10.8701 1.24118 10.182 1.36253L9.79883 4.18808C10.5015 4.31769 11.1353 4.53259 11.7098 4.82039L13.1362 2.45108Z" fill="#E62117"/>
<path fill-rule="evenodd" clip-rule="evenodd" d="M16.3252 5.87863C16.3218 4.97828 15.2058 3.61727 14.5731 3.32812L12.5684 5.41192C13.0625 5.91336 13.4496 6.44527 13.7449 7.0034L16.3252 5.87863Z" fill="#E62117"/>
<path fill-rule="evenodd" clip-rule="evenodd" d="M9.28017 0C9.50971 0 9.7373 0.00834682 9.9627 0.0241743L9.64522 0.4412C4.62681 0.247491 0.447148 4.12317 0.447148 9C0.447148 10.0048 0.625942 10.9686 0.953813 11.8645L0.636335 12.2814C0.225563 11.2647 0 10.158 0 9C0 4.02955 4.15489 0 9.28017 0V0ZM14.1744 1.35219C15.6084 2.21734 16.7812 3.45078 17.5524 4.91628C17.4041 4.951 17.2615 5.00046 17.127 5.06361C16.4002 3.70418 15.3089 2.55759 13.9791 1.74567C14.0595 1.61936 14.1247 1.48747 14.1744 1.35219ZM3.51694 15.4913C5.06389 16.7844 7.07788 17.5662 9.28017 17.5662C12.723 17.5662 15.7055 15.6559 17.1627 12.8689C17.3003 12.9258 17.4459 12.9692 17.5968 12.997C16.0784 15.9617 12.9251 18 9.28008 18C6.94585 18 4.81275 17.1639 3.18184 15.784C3.30185 15.6994 3.41455 15.6018 3.51694 15.4913Z" fill="#E62117"/>
</svg>
