<svg width="14" height="19" viewBox="0 0 14 19" fill="none" xmlns="http://www.w3.org/2000/svg">
<path fill-rule="evenodd" clip-rule="evenodd" d="M3.36761 4.838H2.52189L1.62039 16.504H12.3796L11.4781 4.838H10.6323V6.78894H9.13232V4.838H4.86761V6.78894H3.36761V4.838ZM4.88777 3.338H9.11217C8.9688 2.29963 8.07776 1.5 6.99997 1.5C5.92217 1.5 5.03114 2.29963 4.88777 3.338ZM10.6206 3.338H12.8667L13.8841 16.504L14 18.004H12.4955H1.50447H0L0.115914 16.504L1.13333 3.338H3.37937C3.5292 1.46957 5.09297 0 6.99997 0C8.90697 0 10.4707 1.46957 10.6206 3.338Z" fill="white"/>
</svg>
