<svg width="24" height="24" viewBox="0 0 24 24" fill="none" xmlns="http://www.w3.org/2000/svg">
<path fill-rule="evenodd" clip-rule="evenodd" d="M2 12C2 17.5228 6.47715 22 12 22C17.5228 22 22 17.5228 22 12C22 6.47715 17.5228 2 12 2C6.47715 2 2 6.47715 2 12ZM20.3382 12C20.3382 16.6024 16.6073 20.3333 12.0049 20.3333C7.40251 20.3333 3.67155 16.6024 3.67155 12C3.67155 7.39763 7.40251 3.66667 12.0049 3.66667C16.6073 3.66667 20.3382 7.39763 20.3382 12Z" fill="#4BA82E"/>
<path fill-rule="evenodd" clip-rule="evenodd" d="M17.0732 9.05857L15.9987 7.83203L10.8476 13.7114L7.97571 10.4343L6.90112 11.6608L10.8476 16.1654L17.0732 9.05857Z" fill="#4BA82E"/>
</svg>
