<svg width="24" height="24" viewBox="0 0 24 24" fill="none" xmlns="http://www.w3.org/2000/svg">
<path d="M12 24C18.6274 24 24 18.6274 24 12C24 5.37258 18.6274 0 12 0C5.37258 0 0 5.37258 0 12C0 18.6274 5.37258 24 12 24Z" fill="#DC4E41"/>
<path d="M4.17784 12.5367C4.13527 14.6014 5.55736 16.5717 7.51358 17.2143C9.35621 17.8333 11.6217 17.3702 12.8479 15.7922C13.7431 14.6865 13.9465 13.2124 13.8496 11.8353C12.2716 11.8211 10.6936 11.8259 9.11791 11.8282C9.11535 12.3904 9.11791 12.9504 9.12027 13.5125C10.0651 13.5386 11.0102 13.5267 11.955 13.5457C11.7165 14.3631 11.1732 15.1237 10.3485 15.4189C8.7564 16.1205 6.72489 15.2039 6.22391 13.5337C5.61918 11.9343 6.60916 10.0042 8.24366 9.53892C9.25717 9.18233 10.3013 9.58385 11.1685 10.1107C11.6078 9.69957 12.019 9.2602 12.4228 8.81612C11.4376 7.9917 10.1714 7.48623 8.86978 7.59725C6.31589 7.62763 4.08094 9.98536 4.17784 12.5367Z" fill="#DC4E41"/>
<path d="M16.9207 10.4102C16.916 10.8803 16.9111 11.3529 16.9088 11.8228C16.4362 11.8275 15.9663 11.8299 15.4961 11.8322C15.4961 12.3024 15.4961 12.77 15.4961 13.2402C15.9663 13.2426 16.4388 13.2449 16.9088 13.2498C16.9135 13.72 16.9135 14.19 16.9182 14.6625C17.386 14.6625 17.8562 14.6601 18.3261 14.6625C18.3287 14.19 18.3308 13.72 18.3358 13.2475C18.8057 13.2451 19.2783 13.2428 19.7484 13.2404C19.7484 12.7702 19.7484 12.3026 19.7484 11.8325C19.2785 11.8301 18.8059 11.8277 18.3358 11.823C18.3332 11.3529 18.3287 10.8803 18.3261 10.4104C17.8562 10.4102 17.3884 10.4102 16.9207 10.4102Z" fill="#DC4E41"/>
<path d="M4.17784 12.5369C4.08094 9.98557 6.31567 7.62784 8.86956 7.59725C10.1712 7.48623 11.4376 7.9917 12.4226 8.81612C12.0186 9.26041 11.6074 9.69957 11.1683 10.1107C10.3011 9.58384 9.25695 9.18233 8.24344 9.53892C6.60873 10.0044 5.61875 11.9345 6.22369 13.5337C6.72467 15.2039 8.75619 16.1205 10.3483 15.4189C11.1727 15.1237 11.7163 14.3631 11.9548 13.5457C11.01 13.5269 10.0649 13.5386 9.12005 13.5125C9.1177 12.9504 9.11535 12.3904 9.1177 11.8282C10.6934 11.8258 12.2714 11.8211 13.8494 11.8353C13.9463 13.2126 13.7431 14.6867 12.8477 15.7922C11.6215 17.3702 9.35621 17.8333 7.51336 17.2143C5.55757 16.5719 4.13528 14.6016 4.17784 12.5369Z" fill="white"/>
<path d="M16.9207 10.4102C17.3886 10.4102 17.8562 10.4102 18.3261 10.4102C18.3287 10.8803 18.3332 11.3529 18.3358 11.8228C18.8057 11.8275 19.2783 11.8299 19.7484 11.8322C19.7484 12.3024 19.7484 12.77 19.7484 13.2402C19.2785 13.2426 18.8059 13.2449 18.3358 13.2473C18.3311 13.7198 18.3287 14.1898 18.3261 14.6623C17.8562 14.6599 17.3858 14.6623 16.9182 14.6623C16.9137 14.1898 16.9137 13.7198 16.9088 13.2496C16.4388 13.2447 15.9663 13.2426 15.4961 13.24C15.4961 12.7698 15.4961 12.3022 15.4961 11.832C15.9663 11.8297 16.4364 11.8273 16.9088 11.8226C16.9111 11.3529 16.9158 10.8803 16.9207 10.4102Z" fill="white"/>
</svg>
