<svg width="20" height="16" viewBox="0 0 20 16" fill="none" xmlns="http://www.w3.org/2000/svg">
<path fill-rule="evenodd" clip-rule="evenodd" d="M8.77587 1.33474L10.0001 2.34357L11.2241 1.33474C13.1859 -0.44932 16.3271 -0.44524 18.2833 1.34901L18.5057 1.55303C20.4983 3.38065 20.4979 6.3711 18.5057 8.19834L10 16L1.49426 8.19834C-0.497877 6.37111 -0.498296 3.38065 1.49426 1.55303L1.71669 1.34901C3.67287 -0.445239 6.81415 -0.44932 8.77587 1.33474ZM7.74536 2.46468C6.37467 1.20746 4.13399 1.20702 2.76283 2.46468L2.54039 2.66871C1.20437 3.89414 1.2046 5.85745 2.54039 7.08266L10 13.9248L17.4596 7.08266C18.7954 5.85745 18.7956 3.89414 17.4596 2.66871L17.2372 2.46468C15.866 1.20702 13.6253 1.20746 12.2546 2.46468L12.2397 2.4784L10.0001 4.32418L7.76033 2.47842L7.74536 2.46468Z" fill="#414141"/>
</svg>
