<svg width="19" height="18" viewBox="0 0 19 18" fill="none" xmlns="http://www.w3.org/2000/svg">
<path d="M11.9999 18L10.4999 17.6C10.1538 17.4603 9.81941 17.2931 9.49994 17.1C8.35806 16.523 7.06564 16.3135 5.79994 16.5H3.79994C2.29994 16.2 1.39994 14.7 1.79994 13.2C1.99994 12 2.79994 11.1 3.79994 10.4C4.59994 9.9 5.29994 9.3 5.99994 8.6L7.29994 7.4C8.99994 6 10.7999 6.9 11.4999 8L12.4999 10C12.7999 10.7 13.1999 11.4 13.6999 12C14.2999 12.8 14.6999 13.6 14.6999 14.6C14.7566 14.9915 14.7296 15.3906 14.6208 15.7709C14.5121 16.1512 14.3239 16.5042 14.0688 16.8065C13.8137 17.1089 13.4974 17.3537 13.1408 17.525C12.7842 17.6962 12.3954 17.7899 11.9999 17.8V17.9V18ZM15.3999 3.5C15.3847 4.10401 15.2328 4.69671 14.9557 5.23362C14.6786 5.77052 14.2834 6.23767 13.7999 6.6C12.3999 7.6 10.7999 7 10.4999 5.4C10.3777 4.6304 10.483 3.84187 10.8028 3.13127C11.1225 2.42067 11.6429 1.81894 12.2999 1.4C13.6999 0.5 15.1999 1.3 15.2999 3L15.3999 3.5ZM9.59994 3C9.59994 3.8 9.39994 4.6 8.99994 5.2C8.09994 6.4 6.69994 6.5 5.79994 5.2C5.39051 4.55765 5.173 3.81174 5.173 3.05C5.173 2.28826 5.39051 1.54235 5.79994 0.9C6.59994 -0.3 7.99994 -0.3 8.89994 0.9C9.39994 1.4 9.59994 2.2 9.59994 3.1V3ZM13.5999 9.5C13.5999 8.1 14.6999 6.7 15.9999 6.4C17.2999 6.1 18.2999 6.8 18.3999 8.1C18.3999 9.6 17.2999 11.1 15.7999 11.4C14.5999 11.6 13.5999 10.8 13.5999 9.4V9.5ZM4.99994 6.7C5.04589 7.41701 4.83298 8.12669 4.39994 8.7C3.89994 9.3 2.99994 9.5 2.19994 9C0.799944 8.2 0.199944 6 1.19994 4.6C1.79994 3.8 2.79994 3.6 3.59994 4.1C4.59994 4.7 4.89994 5.7 4.99994 6.7Z" fill="#0C061A"/>
</svg>
