<svg width="24" height="24" viewBox="0 0 24 24" fill="none" xmlns="http://www.w3.org/2000/svg">
<path d="M11.9998 23.9996C18.6271 23.9996 23.9996 18.6271 23.9996 11.9998C23.9996 5.37249 18.6271 0 11.9998 0C5.37249 0 0 5.37249 0 11.9998C0 18.6271 5.37249 23.9996 11.9998 23.9996Z" fill="#CB2027"/>
<path d="M12.9684 16.0703C12.0612 16.0001 11.68 15.5503 10.9685 15.1184C10.5775 17.17 10.0997 19.1367 8.68423 20.1641C8.24679 17.0633 9.32553 14.7342 9.8265 12.2621C8.97258 10.8247 9.92917 7.93134 11.7303 8.6443C13.947 9.52089 9.8111 13.9892 12.5876 14.5473C15.4863 15.13 16.6696 9.51768 14.8719 7.69219C12.2747 5.05664 7.3118 7.6323 7.92208 11.4052C8.07074 12.3276 9.02392 12.6076 8.30283 13.8803C6.64056 13.5122 6.14472 12.2012 6.20846 10.4533C6.31135 7.5923 8.77921 5.58905 11.2545 5.31183C14.3851 4.96145 17.3233 6.46137 17.7289 9.40602C18.1852 12.7295 16.3156 16.3287 12.9684 16.0703Z" fill="#F1F2F2"/>
</svg>
