<svg width="20" height="19" viewBox="0 0 20 19" fill="none" xmlns="http://www.w3.org/2000/svg">
<path fill-rule="evenodd" clip-rule="evenodd" d="M14.5461 13.2165C15.649 11.8257 16.3077 10.0667 16.3077 8.15386C16.3077 3.65061 12.6571 0 8.15386 0C3.65061 0 0 3.65061 0 8.15386C0 12.6571 3.65061 16.3077 8.15386 16.3077C10.204 16.3077 12.0775 15.5511 13.5102 14.3018L18.0975 18.8892L19.1582 17.8285L14.5461 13.2165ZM14.8077 8.15386C14.8077 11.8287 11.8287 14.8077 8.15386 14.8077C4.47903 14.8077 1.5 11.8287 1.5 8.15386C1.5 4.47903 4.47903 1.5 8.15386 1.5C11.8287 1.5 14.8077 4.47903 14.8077 8.15386Z" fill="white"/>
</svg>
