<svg width="18" height="18" viewBox="0 0 18 18" fill="none" xmlns="http://www.w3.org/2000/svg">
<path fill-rule="evenodd" clip-rule="evenodd" d="M14.3182 5.86364C15.5232 5.86364 16.5 4.8868 16.5 3.68182C16.5 2.47683 15.5232 1.5 14.3182 1.5C13.1132 1.5 12.1364 2.47683 12.1364 3.68182C12.1364 4.8868 13.1132 5.86364 14.3182 5.86364ZM14.3182 7.36364C16.3516 7.36364 18 5.71523 18 3.68182C18 1.64841 16.3516 0 14.3182 0C12.2848 0 10.6364 1.64841 10.6364 3.68182C10.6364 5.71523 12.2848 7.36364 14.3182 7.36364Z" fill="#FF5500"/>
<path fill-rule="evenodd" clip-rule="evenodd" d="M14.3182 16.5C15.5232 16.5 16.5 15.5232 16.5 14.3182C16.5 13.1132 15.5232 12.1364 14.3182 12.1364C13.1132 12.1364 12.1364 13.1132 12.1364 14.3182C12.1364 15.5232 13.1132 16.5 14.3182 16.5ZM14.3182 18C16.3516 18 18 16.3516 18 14.3182C18 12.2848 16.3516 10.6364 14.3182 10.6364C12.2848 10.6364 10.6364 12.2848 10.6364 14.3182C10.6364 16.3516 12.2848 18 14.3182 18Z" fill="#FF5500"/>
<path fill-rule="evenodd" clip-rule="evenodd" d="M3.68182 11.5909C4.8868 11.5909 5.86364 10.614 5.86364 9.40905C5.86364 8.20406 4.8868 7.22723 3.68182 7.22723C2.47683 7.22723 1.5 8.20406 1.5 9.40905C1.5 10.614 2.47683 11.5909 3.68182 11.5909ZM3.68182 13.0909C5.71523 13.0909 7.36364 11.4425 7.36364 9.40905C7.36364 7.37564 5.71523 5.72723 3.68182 5.72723C1.64841 5.72723 0 7.37564 0 9.40905C0 11.4425 1.64841 13.0909 3.68182 13.0909Z" fill="#FF5500"/>
<path fill-rule="evenodd" clip-rule="evenodd" d="M12.1808 5.58867L6.04439 8.4523L5.41007 7.09303L11.5464 4.22939L12.1808 5.58867ZM6.04439 9.54757L12.1808 12.4112L11.5464 13.7705L5.41007 10.9068L6.04439 9.54757Z" fill="#FF5500"/>
</svg>
