<svg width="12" height="18" viewBox="0 0 12 18" fill="none" xmlns="http://www.w3.org/2000/svg">
<path fill-rule="evenodd" clip-rule="evenodd" d="M10 2.25V2C10 0.895431 9.10457 0 8 0H4C2.89543 0 2 0.89543 2 2V2.25L4 2.25L0.333333 2.25C0.149238 2.25 0 2.41789 0 2.625V3.375C0 3.58211 0.149239 3.75 0.333333 3.75H11.6667C11.8508 3.75 12 3.58211 12 3.375V2.625C12 2.41789 11.8508 2.25 11.6667 2.25L8 2.25L10 2.25ZM8 2.25V1.5L4 1.5V2.25L8 2.25Z" fill="#414141"/>
<path d="M4 7.5C3.63181 7.5 3.33333 7.83579 3.33333 8.25V14.25C3.33333 14.6642 3.63181 15 4 15C4.36819 15 4.66667 14.6642 4.66667 14.25V8.25C4.66667 7.83579 4.36819 7.5 4 7.5Z" fill="#414141"/>
<path d="M7.33333 8.25C7.33333 7.83579 7.63181 7.5 8 7.5C8.36819 7.5 8.66667 7.83579 8.66667 8.25V14.25C8.66667 14.6642 8.36819 15 8 15C7.63181 15 7.33333 14.6642 7.33333 14.25V8.25Z" fill="#414141"/>
<path fill-rule="evenodd" clip-rule="evenodd" d="M12 18H0V4.5H12V18ZM10.6667 6H1.33333V16.5H10.6667V6Z" fill="#414141"/>
</svg>
