<svg width="133" height="31" viewBox="0 0 133 31" fill="none" xmlns="http://www.w3.org/2000/svg">
<path d="M7.95615 0H5.35291L0.0512695 18.3004V18.347H2.77052L6.60694 3.55018L10.4093 18.347H13.221L7.95615 0Z" fill="#EE9A49"/>
<path d="M30.381 10.2177C30.381 10.5943 30.1814 10.9037 29.7821 11.1459C29.3829 11.3881 28.8722 11.5102 28.2502 11.512H21.5979C21.5504 11.5126 21.5035 11.5225 21.4597 11.5412C21.416 11.5599 21.3764 11.587 21.3432 11.621C21.31 11.655 21.2838 11.6952 21.2661 11.7393C21.2484 11.7834 21.2396 11.8306 21.2402 11.8782V18.3498H18.6001V0H28.2502C28.8704 0 29.3799 0.119034 29.7786 0.357102C30.1774 0.59517 30.3771 0.902945 30.3775 1.28043L30.381 10.2177ZM27.7409 8.65173V2.40314C27.7422 2.22315 27.6724 2.04994 27.5465 1.92124C27.4207 1.79254 27.2491 1.71878 27.0691 1.71604H21.6063C21.508 1.71732 21.4143 1.75754 21.3456 1.82788C21.277 1.89822 21.239 1.99292 21.2402 2.0912V8.96923C21.2396 9.01786 21.2486 9.06613 21.2667 9.11126C21.2848 9.1564 21.3117 9.19753 21.3457 9.23231C21.3797 9.26708 21.4202 9.29482 21.4649 9.31393C21.5096 9.33304 21.5577 9.34316 21.6063 9.34371H27.0691C27.2498 9.34078 27.4218 9.26625 27.5476 9.1365C27.6733 9.00674 27.7423 8.83238 27.7395 8.65173H27.7409ZM48.4153 18.1997H45.6412L40.3013 8.86641C40.2426 8.76389 40.2099 8.64851 40.2061 8.53041C40.2024 8.4123 40.2277 8.29508 40.2798 8.18903C40.3364 8.07222 40.4246 7.97359 40.5344 7.90434C40.6441 7.83508 40.7711 7.79796 40.9009 7.79719H45.1847V1.98351H38.4005V18.1997H35.7604V0.147982H45.7169C46.3376 0.147982 46.8445 0.267016 47.2377 0.505084C47.631 0.743152 47.8271 1.0507 47.8262 1.42771V8.27935C47.8262 9.14825 46.8635 9.5827 44.9381 9.5827C44.7477 9.5827 44.4698 9.57691 44.1044 9.56533L43.6181 9.55213C43.5867 9.55227 43.556 9.56073 43.529 9.57663C43.502 9.59253 43.4797 9.61531 43.4644 9.64264C43.449 9.66998 43.4412 9.70089 43.4418 9.73222C43.4423 9.76355 43.4511 9.79419 43.4673 9.821C45.1222 12.607 46.7716 15.3999 48.4153 18.1997ZM56.3702 18.1997H53.7302V0.147982H56.3702V18.1997ZM74.5665 16.9186C74.5665 17.2961 74.3638 17.6036 73.9586 17.8412C73.5533 18.0788 73.0401 18.1983 72.419 18.1997H64.7607C64.1396 18.1997 63.6329 18.0802 63.2406 17.8412C62.8483 17.6022 62.6517 17.2947 62.6508 16.9186V1.42563C62.6508 1.04907 62.8474 0.741531 63.2406 0.503C63.6339 0.264469 64.1406 0.145435 64.7607 0.145898H72.419C73.0401 0.145898 73.5533 0.264932 73.9586 0.503C74.3638 0.741068 74.5665 1.04861 74.5665 1.42563V5.6247H71.9063V1.98351H65.2929V16.3649H71.9063V12.3353H74.5665V16.9186ZM117.734 14.9351C117.734 15.8883 117.218 16.6705 116.185 17.2819C115.152 17.8933 113.85 18.1992 112.28 18.1997H105.727C105.66 18.1988 105.595 18.1713 105.548 18.1233C105.501 18.0752 105.475 18.0105 105.476 17.9433V0.404345C105.476 0.371043 105.482 0.337996 105.494 0.307089C105.507 0.276182 105.525 0.248022 105.548 0.224216C105.572 0.20041 105.599 0.181425 105.63 0.168344C105.661 0.155264 105.693 0.148345 105.727 0.147982H112.28C113.863 0.147982 115.168 0.453441 116.195 1.06436C117.221 1.67528 117.735 2.4578 117.734 3.41192V14.9351ZM115.094 14.3605V3.96703C115.094 3.3751 114.787 2.89642 114.172 2.53098C113.558 2.16554 112.762 1.98305 111.787 1.98351H108.721C108.641 1.98433 108.562 2.00089 108.489 2.03224C108.415 2.06359 108.349 2.10912 108.293 2.16622C108.237 2.22333 108.193 2.29089 108.163 2.36504C108.133 2.43919 108.119 2.51848 108.119 2.59837V15.75C108.119 15.8299 108.133 15.9092 108.163 15.9833C108.193 16.0575 108.237 16.125 108.293 16.1821C108.349 16.2393 108.415 16.2848 108.489 16.3161C108.562 16.3475 108.641 16.364 108.721 16.3649H111.635C112.661 16.3649 113.495 16.1861 114.136 15.8285C114.777 15.4709 115.097 14.9816 115.094 14.3605ZM132.495 18.1997H123.171C123.099 18.1988 123.031 18.1694 122.98 18.1179C122.93 18.0665 122.902 17.9972 122.903 17.9253V0.421714C122.903 0.386131 122.909 0.350825 122.923 0.317811C122.936 0.284797 122.956 0.254722 122.98 0.229303C123.005 0.203884 123.035 0.18362 123.068 0.169667C123.1 0.155714 123.136 0.148345 123.171 0.147982H132.382C132.405 0.148254 132.428 0.153125 132.449 0.162315C132.471 0.171505 132.49 0.184836 132.507 0.201545C132.523 0.218255 132.536 0.238015 132.545 0.259699C132.553 0.281383 132.558 0.304566 132.557 0.327923V1.80288C132.558 1.82629 132.553 1.84955 132.545 1.87131C132.536 1.89308 132.523 1.91292 132.507 1.92971C132.491 1.94649 132.471 1.95988 132.45 1.96912C132.428 1.97835 132.405 1.98324 132.382 1.98351H125.813C125.777 1.98388 125.742 1.99125 125.709 2.0052C125.676 2.01915 125.647 2.03942 125.622 2.06484C125.597 2.09025 125.577 2.12033 125.564 2.15334C125.551 2.18636 125.544 2.22166 125.545 2.25725V8.30158H131.754C131.777 8.30185 131.8 8.30674 131.822 8.31597C131.843 8.32519 131.863 8.33857 131.879 8.35535C131.896 8.37212 131.908 8.39196 131.917 8.41373C131.926 8.43549 131.93 8.45877 131.93 8.48221V9.56672C131.93 9.59014 131.926 9.61337 131.917 9.6351C131.908 9.65683 131.896 9.67662 131.879 9.69334C131.863 9.71006 131.843 9.72338 131.822 9.73253C131.8 9.74168 131.777 9.74648 131.754 9.74666H125.545V16.0953C125.544 16.1309 125.551 16.1662 125.564 16.1992C125.577 16.2322 125.597 16.2623 125.622 16.2877C125.647 16.3131 125.676 16.3334 125.709 16.3473C125.742 16.3613 125.777 16.3687 125.813 16.369H132.495C132.542 16.3698 132.587 16.3892 132.62 16.423C132.653 16.4568 132.672 16.5024 132.671 16.5497V18.0211C132.671 18.0681 132.653 18.1131 132.62 18.1465C132.587 18.1799 132.542 18.199 132.495 18.1997Z" fill="white"/>
<path d="M87.8791 18.3019H84.6485C83.5476 18.3019 82.6381 18.1071 81.9202 17.7176C81.2023 17.3281 80.8431 16.835 80.8427 16.2385V10.57L78.1123 8.99987V8.70738L80.8427 7.14697V2.1135C80.8427 1.51601 81.2016 1.02274 81.9195 0.633678C82.6375 0.244618 83.5471 0.0503189 84.6485 0.0507821H87.8791V1.68484C87.7179 1.68484 87.4301 1.67974 87.0155 1.66955C86.601 1.65936 86.2823 1.65427 86.0596 1.65427C84.3153 1.65427 83.4429 2.00326 83.4424 2.70126V6.95591C83.4424 7.37276 83.1249 7.71597 82.5323 8.06335C81.9209 8.39961 81.6291 8.55662 81.0462 8.85884C81.6465 9.16453 81.9494 9.33057 82.5323 9.65433C83.1249 10.0017 83.4424 10.3421 83.4424 10.7513V15.7056C83.4424 16.3962 84.3148 16.7417 86.0596 16.7422C86.2828 16.7422 86.6015 16.7371 87.0155 16.7269C87.4296 16.7167 87.7175 16.7116 87.8791 16.7116V18.3019ZM91.4258 16.7116C91.587 16.7116 91.8746 16.7167 92.2887 16.7269C92.7056 16.7373 93.0224 16.7422 93.2454 16.7422C94.9901 16.7422 95.8625 16.3967 95.8625 15.7056V10.7499C95.8625 10.3407 96.1793 10.0003 96.7726 9.65294C97.3555 9.32918 97.6584 9.16661 98.2587 8.85745C97.6723 8.55523 97.384 8.39822 96.7726 8.06196C96.1793 7.71458 95.8625 7.36721 95.8625 6.95452V2.70126C95.8625 2.00373 94.9901 1.65473 93.2454 1.65427C93.0224 1.65427 92.7042 1.65913 92.2887 1.66955C91.8732 1.67997 91.587 1.68484 91.4258 1.68484V0.0507821H94.6564C95.7578 0.0507821 96.6673 0.245544 97.3847 0.635068C98.1021 1.02459 98.4611 1.51786 98.4616 2.11489V7.14836L101.192 8.70877V9.00126L98.4616 10.5714V16.2385C98.4616 16.836 98.1026 17.3292 97.3847 17.7183C96.6668 18.1074 95.7574 18.3021 94.6564 18.3026H91.4258V16.7116Z" fill="#EE9A49"/>
<path d="M3.58005 25.297C3.90721 25.2941 4.2299 25.3732 4.51866 25.527C4.81406 25.6893 5.06084 25.9274 5.23356 26.2169L6.42714 25.5221C6.1865 25.0332 5.79741 24.633 5.31554 24.3786C4.82226 24.1132 4.24817 23.9805 3.59325 23.9805C2.94714 23.9685 2.3083 24.1183 1.73479 24.4161C1.20655 24.6916 0.765204 25.1084 0.459922 25.6201C0.158393 26.1562 0 26.761 0 27.3761C0 27.9912 0.158393 28.5959 0.459922 29.132C0.764387 29.6484 1.20814 30.0686 1.74035 30.3444C2.31224 30.6404 2.94867 30.7899 3.59255 30.7793C4.24099 30.7793 4.81092 30.6448 5.30234 30.3757C5.78539 30.1159 6.17777 29.715 6.42714 29.2265L5.23356 28.5318C5.06084 28.8212 4.81406 29.0594 4.51866 29.2217C4.23001 29.3758 3.90725 29.4549 3.58005 29.4516C2.99183 29.4516 2.50921 29.2629 2.13219 28.8854C1.75517 28.5079 1.56666 28.0045 1.56666 27.375C1.56666 26.7456 1.75725 26.2421 2.13844 25.8646C2.51963 25.4872 3.00016 25.2979 3.58005 25.297ZM9.87102 25.0233V24.0541H8.3912V30.6925H9.94536V27.473C9.94536 26.8093 10.1153 26.3016 10.4553 25.9501C10.7953 25.5985 11.2677 25.4223 11.8726 25.4214C11.9937 25.4227 12.1144 25.4353 12.2332 25.4589V23.9791C11.1054 23.9791 10.318 24.3271 9.87102 25.0233ZM18.7319 24.4084C18.2003 24.1163 17.6015 23.9683 16.995 23.9791C16.3788 23.9696 15.7707 24.1196 15.2296 24.4147C14.717 24.6963 14.2936 25.1161 14.0076 25.6263C13.7092 26.1595 13.5568 26.762 13.5657 27.3729C13.5557 27.9896 13.7127 28.5974 14.0201 29.132C14.3232 29.6514 14.7697 30.0724 15.3061 30.3444C15.8619 30.6348 16.5043 30.7798 17.2333 30.7793C17.7599 30.7875 18.2832 30.6948 18.7749 30.5063C19.2137 30.336 19.6027 30.0582 19.906 29.6983L19.0723 28.7409C18.5999 29.2217 17.9991 29.4621 17.2701 29.4621C16.6981 29.4621 16.2194 29.3189 15.8341 29.0327C15.453 28.7536 15.1963 28.3364 15.1192 27.8704H20.3298C20.3465 27.6717 20.3548 27.5184 20.3548 27.4105C20.3548 26.731 20.2117 26.1321 19.9255 25.6138C19.6504 25.1067 19.2363 24.6885 18.7319 24.4084ZM15.1081 26.8401C15.1628 26.3831 15.3871 25.9633 15.7365 25.6638C16.0859 25.3643 16.535 25.2069 16.995 25.2227C17.5008 25.2227 17.9234 25.3718 18.2629 25.6701C18.6033 25.9709 18.8199 26.3873 18.8708 26.8387L15.1081 26.8401ZM24.8137 23.9791C24.2887 23.9754 23.7658 24.0456 23.2603 24.1875C22.8074 24.311 22.3815 24.5176 22.0042 24.7968L22.6134 25.9286C22.8838 25.7092 23.1941 25.544 23.527 25.4422C23.8825 25.3269 24.2538 25.2681 24.6275 25.2678C25.1745 25.2678 25.5868 25.3922 25.8642 25.6409C26.1416 25.8896 26.2806 26.2461 26.281 26.7101V26.8095H24.5678C23.6146 26.8095 22.9164 26.9899 22.4731 27.3507C22.0299 27.7115 21.8082 28.19 21.8082 28.7861C21.8034 29.151 21.9095 29.5089 22.1125 29.8122C22.3284 30.1248 22.6279 30.3704 22.9768 30.5209C23.3887 30.6983 23.8339 30.785 24.2822 30.7751C24.7797 30.7751 25.2044 30.6985 25.5564 30.5452C25.8879 30.4095 26.1714 30.178 26.3707 29.8803V30.6925H27.8331V26.8019C27.8331 25.857 27.574 25.1504 27.0557 24.6822C26.5374 24.2139 25.7901 23.9795 24.8137 23.9791ZM26.281 28.6165C26.1644 28.9389 25.9375 29.2096 25.6405 29.3808C25.3252 29.5626 24.9664 29.6551 24.6025 29.6482C24.2051 29.6482 23.8943 29.5653 23.6702 29.3995C23.5631 29.3241 23.4764 29.2233 23.4179 29.1062C23.3593 28.9891 23.3307 28.8593 23.3346 28.7284C23.3346 28.1402 23.7822 27.8458 24.6776 27.8454H26.281V28.6165ZM33.1306 29.4989C32.8323 29.4989 32.6044 29.4139 32.447 29.2439C32.2895 29.0739 32.2105 28.8275 32.21 28.5047V25.2227H33.9886V23.9791H29.563V25.2227H30.6573V28.5415C30.6573 29.271 30.856 29.8268 31.2534 30.2089C31.6508 30.591 32.2144 30.7816 32.9444 30.7807C33.2239 30.7823 33.5022 30.7447 33.7711 30.6688C34.0136 30.6041 34.2399 30.4898 34.436 30.3333L34.0011 29.2265C33.7506 29.4142 33.4434 29.5104 33.1306 29.4989ZM36.3382 24.0541H37.8924V30.6925H36.3382V24.0541ZM43.151 28.9771L41.0869 24.0541H39.4709L42.318 30.6925H43.9215L46.7685 24.0541H45.2769L43.151 28.9771ZM52.7913 24.4084C52.2597 24.1163 51.661 23.9683 51.0545 23.9791C50.4383 23.9696 49.8301 24.1196 49.2891 24.4147C48.7757 24.696 48.3515 25.1158 48.065 25.6263C47.7666 26.1595 47.6142 26.762 47.6231 27.3729C47.613 27.9896 47.7701 28.5974 48.0775 29.132C48.3825 29.6524 48.8315 30.0735 49.3704 30.3444C49.9262 30.6348 50.5684 30.7798 51.2969 30.7793C51.8235 30.7875 52.3468 30.6948 52.8386 30.5063C53.2774 30.336 53.6663 30.0582 53.9696 29.6983L53.1359 28.7409C52.6635 29.2217 52.0625 29.4621 51.3331 29.4621C50.7611 29.4621 50.2824 29.3189 49.897 29.0327C49.5159 28.7536 49.2593 28.3364 49.1821 27.8704H54.3927C54.4094 27.6717 54.4178 27.5184 54.4178 27.4105C54.4178 26.731 54.2746 26.1321 53.9884 25.6138C53.7124 25.1062 53.2971 24.688 52.7913 24.4084ZM49.1675 26.8401C49.2226 26.3829 49.4474 25.963 49.7974 25.6637C50.1474 25.3644 50.597 25.2075 51.0572 25.2241C51.563 25.2241 51.9857 25.3732 52.3252 25.6715C52.6663 25.9718 52.8835 26.3884 52.9345 26.8401H49.1675ZM60.5802 24.0541H62.1344V30.6925H60.5802V24.0541ZM68.5608 23.9791C68.1097 23.9718 67.6614 24.0521 67.2408 24.2153C66.8638 24.3623 66.5295 24.6011 66.2681 24.91V24.0541H64.7939V30.6925H66.3473V27.3361C66.3473 26.6877 66.5131 26.1923 66.8448 25.85C67.1764 25.5078 67.6275 25.3364 68.1981 25.3359C68.703 25.3359 69.0925 25.483 69.3667 25.7771C69.6409 26.0712 69.7775 26.5084 69.7766 27.0888V30.6925H71.3308V26.888C71.3308 25.9274 71.0779 25.2023 70.5721 24.7127C70.0663 24.2232 69.3959 23.9786 68.5608 23.9791ZM77.6982 23.9791C77.247 23.9718 76.7988 24.0521 76.3781 24.2153C76.0012 24.3623 75.6669 24.6011 75.4055 24.91V24.0541H73.9264V30.6925H75.4798V27.3361C75.4798 26.6877 75.6456 26.1923 75.9773 25.85C76.3089 25.5078 76.7607 25.3359 77.3327 25.3345C77.8376 25.3345 78.2271 25.4816 78.5013 25.7757C78.7755 26.0698 78.9121 26.507 78.9112 27.0874V30.6925H80.4654V26.888C80.4654 25.9274 80.2125 25.2023 79.7067 24.7127C79.2009 24.2232 78.5314 23.9786 77.6982 23.9791ZM87.9423 24.4147C87.3779 24.1283 86.7539 23.9791 86.121 23.9791C85.4881 23.9791 84.8641 24.1283 84.2997 24.4147C83.7751 24.6912 83.3381 25.1086 83.038 25.6201C82.7405 26.1575 82.5844 26.7618 82.5844 27.3761C82.5844 27.9904 82.7405 28.5946 83.038 29.132C83.3364 29.6466 83.7737 30.0667 84.2997 30.3444C84.8642 30.6304 85.4881 30.7795 86.121 30.7795C86.7538 30.7795 87.3778 30.6304 87.9423 30.3444C88.4683 30.0667 88.9055 29.6466 89.2039 29.132C89.5015 28.5946 89.6576 27.9904 89.6576 27.3761C89.6576 26.7618 89.5015 26.1575 89.2039 25.6201C88.9038 25.1086 88.4669 24.6912 87.9423 24.4147ZM87.5324 28.8778C87.1595 29.2585 86.6871 29.4491 86.1151 29.4495C85.5431 29.45 85.0727 29.2599 84.704 28.8792C84.3335 28.4975 84.1482 27.9959 84.1482 27.3743C84.1482 26.7528 84.3335 26.2514 84.704 25.8702C85.0746 25.4895 85.5449 25.2989 86.1151 25.2984C86.6852 25.2979 87.1577 25.4885 87.5324 25.8702C87.9029 26.2518 88.0882 26.7532 88.0882 27.3743C88.0882 27.9954 87.9029 28.497 87.5324 28.8792V28.8778ZM94.1832 28.9771L92.1191 24.0541H90.5031L93.3502 30.6925H94.9537L97.8008 24.0541H96.3092L94.1832 28.9771ZM101.716 23.9791C101.191 23.9755 100.668 24.0456 100.162 24.1875C99.7097 24.3111 99.284 24.5177 98.9068 24.7968L99.5161 25.9286C99.7865 25.7092 100.097 25.544 100.43 25.4422C100.785 25.3269 101.157 25.2681 101.53 25.2678C102.077 25.2678 102.489 25.3922 102.767 25.6409C103.044 25.8896 103.183 26.2461 103.184 26.7101V26.8095H101.468C100.515 26.8095 99.8172 26.9899 99.373 27.3507C98.9288 27.7115 98.7072 28.19 98.7081 28.7861C98.7033 29.151 98.8094 29.5089 99.0124 29.8122C99.2283 30.1248 99.5278 30.3704 99.8767 30.5209C100.289 30.6983 100.734 30.785 101.182 30.7751C101.68 30.7751 102.104 30.6985 102.456 30.5452C102.788 30.4095 103.071 30.178 103.271 29.8803V30.6925H104.738V26.8019C104.738 25.857 104.479 25.1504 103.96 24.6822C103.442 24.2139 102.694 23.9795 101.716 23.9791ZM103.184 28.6165C103.067 28.9389 102.84 29.2096 102.543 29.3808C102.228 29.5626 101.869 29.6551 101.505 29.6482C101.107 29.6482 100.796 29.5653 100.573 29.3995C100.466 29.3241 100.379 29.2233 100.321 29.1062C100.262 28.9891 100.233 28.8593 100.237 28.7284C100.237 28.1402 100.685 27.8458 101.58 27.8454H103.184V28.6165ZM110.033 29.4989C109.735 29.4989 109.507 29.4139 109.35 29.2439C109.192 29.0739 109.113 28.8275 109.113 28.5047V25.2227H110.891V23.9791H106.466V25.222H107.56V28.5408C107.56 29.2703 107.759 29.8261 108.157 30.2082C108.555 30.5903 109.118 30.7809 109.847 30.78C110.127 30.7817 110.405 30.744 110.674 30.6681C110.916 30.6034 111.143 30.4891 111.339 30.3326L110.904 29.2265C110.653 29.4143 110.346 29.5105 110.033 29.4989ZM113.241 24.0541H114.795V30.6925H113.241V24.0541ZM122.266 24.4147C121.702 24.1283 121.078 23.9791 120.445 23.9791C119.812 23.9791 119.188 24.1283 118.624 24.4147C118.099 24.691 117.662 25.1085 117.362 25.6201C117.064 26.1574 116.908 26.7617 116.908 27.3761C116.908 27.9905 117.064 28.5948 117.362 29.132C117.66 29.6467 118.098 30.0669 118.624 30.3444C119.188 30.6304 119.812 30.7795 120.445 30.7795C121.078 30.7795 121.702 30.6304 122.266 30.3444C122.792 30.0667 123.23 29.6466 123.528 29.132C123.826 28.5946 123.982 27.9904 123.982 27.3761C123.982 26.7618 123.826 26.1575 123.528 25.6201C123.228 25.1086 122.791 24.6912 122.266 24.4147ZM121.856 28.8792C121.485 29.2599 121.013 29.4505 120.439 29.4509C119.864 29.4514 119.394 29.2608 119.028 28.8792C118.659 28.4975 118.474 27.9959 118.472 27.3743C118.469 26.7528 118.655 26.2514 119.028 25.8702C119.398 25.4895 119.868 25.2989 120.439 25.2984C121.009 25.2979 121.481 25.4885 121.856 25.8702C122.229 26.2518 122.416 26.7532 122.416 27.3743C122.416 27.9954 122.229 28.497 121.856 28.8792ZM131.876 24.7107C131.37 24.2215 130.699 23.977 129.861 23.977C129.41 23.9699 128.962 24.0501 128.541 24.2132C128.166 24.3606 127.833 24.5994 127.572 24.908V24.0541H126.092V30.6925H127.647V27.3361C127.647 26.6877 127.812 26.1923 128.144 25.85C128.476 25.5078 128.927 25.3359 129.499 25.3345C130.005 25.3345 130.394 25.4816 130.667 25.7757C130.941 26.0698 131.078 26.507 131.078 27.0874V30.6925H132.631V26.888C132.633 25.9274 132.382 25.2016 131.876 24.7107Z" fill="white"/>
</svg>
