<svg width="279" height="284" viewBox="0 0 279 284" fill="none" xmlns="http://www.w3.org/2000/svg">
<path d="M122.985 282.54L123.934 271.497L125.471 271.63L124.64 281.301L129.502 281.724L129.889 278.499C130.073 276.979 130.304 275.754 130.584 274.825C130.854 273.894 131.218 273.205 131.678 272.758C132.137 272.321 132.722 272.133 133.433 272.195C133.757 272.223 134.083 272.294 134.41 272.407L134.18 273.802C134.016 273.745 133.851 273.71 133.683 273.695C133.234 273.656 132.858 273.804 132.555 274.138C132.252 274.482 132.001 275.011 131.803 275.725C131.604 276.439 131.433 277.388 131.289 278.573L130.717 283.212L122.985 282.54Z" fill="#FF5500"/>
<path d="M114.037 278.463L112.561 278.138L113.86 272.167L107.563 277.037L106.225 276.743L108.009 268.544L109.485 268.869L108.186 274.84L114.468 269.966L115.821 270.264L114.037 278.463Z" fill="#FF5500"/>
<path d="M90.8057 271.956L93.5384 264.026L94.9662 264.524L93.8628 267.726C94.853 267.624 95.7695 267.72 96.6124 268.014C97.594 268.356 98.2734 268.85 98.6507 269.496C99.028 270.142 99.0586 270.923 98.7423 271.841L97.8555 274.414L96.4277 273.916L97.2836 271.433C97.4726 270.884 97.4467 270.411 97.2059 270.014C96.9551 269.614 96.5223 269.307 95.9076 269.092C95.2135 268.85 94.4047 268.764 93.4813 268.833L92.2335 272.454L90.8057 271.956Z" fill="#FF5500"/>
<path d="M82.6242 268.608L81.2623 267.949L82.7973 264.739L78.513 262.666L76.978 265.877L75.6162 265.218L79.2318 257.655L80.5937 258.313L79.0792 261.482L83.3635 263.554L84.878 260.386L86.2399 261.045L82.6242 268.608Z" fill="#FF5500"/>
<path d="M65.4574 259.43C64.4811 258.81 63.8867 258.096 63.6743 257.287C63.4529 256.473 63.6418 255.588 64.2409 254.632L66.9285 250.347L68.14 251.115L67.5521 252.053C67.9723 251.858 68.4381 251.798 68.9495 251.872C69.4464 251.951 69.9656 252.162 70.507 252.505C71.297 253.006 71.8112 253.601 72.0497 254.289C72.2794 254.972 72.1982 255.625 71.8063 256.25C71.4144 256.875 70.8745 257.232 70.1867 257.32C69.4932 257.416 68.6539 257.152 67.6687 256.527L65.645 255.243L65.4855 255.497C65.1383 256.051 65.0321 256.576 65.1669 257.074C65.3016 257.571 65.6797 258.017 66.301 258.411C66.7181 258.676 67.1712 258.863 67.6602 258.974C68.1436 259.094 68.5957 259.125 69.0164 259.067L68.9443 260.369C68.3956 260.433 67.8207 260.38 67.2196 260.211C66.6129 260.051 66.0255 259.79 65.4574 259.43ZM69.6725 253.361C69.1843 253.051 68.6955 252.891 68.2061 252.88C67.7111 252.878 67.2577 253.027 66.846 253.327L66.2245 254.318L68.195 255.569C69.2778 256.256 70.0488 256.233 70.5079 255.501C70.7319 255.144 70.7707 254.776 70.6243 254.396C70.4779 254.016 70.1607 253.671 69.6725 253.361Z" fill="#FF5500"/>
<path d="M49.9697 248.067L55.1741 241.508L56.2322 242.357L54.5825 244.437L56.6125 246.067L59.6893 245.133L60.9566 246.151L57.5921 247.117C57.9664 247.66 58.1506 248.206 58.1446 248.756C58.1321 249.313 57.9229 249.847 57.5171 250.359C56.9213 251.11 56.2154 251.475 55.3992 251.454C54.5764 251.442 53.718 251.077 52.824 250.359L49.9697 248.067ZM56.3408 249.354C56.6878 248.916 56.811 248.482 56.7106 248.05C56.5954 247.62 56.263 247.184 55.7135 246.743L53.9049 245.291L51.8526 247.877L53.6119 249.29C54.7438 250.199 55.6534 250.22 56.3408 249.354Z" fill="#FF5500"/>
<path d="M33.2019 229.277L36.253 232.778L41.5319 228.121L42.5282 229.264L36.255 234.798L32.2077 230.154L33.2019 229.277Z" fill="#FF5500"/>
<path d="M25.9012 221.978C25.2339 221.03 24.9555 220.142 25.066 219.313C25.1705 218.475 25.6808 217.73 26.5971 217.077L30.7073 214.147L31.5354 215.323L30.6363 215.964C31.0987 215.945 31.5521 216.068 31.9963 216.333C32.4259 216.597 32.8258 216.991 33.1959 217.516C33.7358 218.283 33.9855 219.03 33.9449 219.758C33.8982 220.477 33.5752 221.05 32.9757 221.477C32.3763 221.904 31.7421 222.026 31.0731 221.843C30.3955 221.666 29.7199 221.1 29.0465 220.144L27.6633 218.18L27.4193 218.354C26.8884 218.732 26.5908 219.177 26.5267 219.688C26.4625 220.2 26.6427 220.757 27.0674 221.36C27.3525 221.765 27.7001 222.112 28.1101 222.402C28.5116 222.698 28.9176 222.901 29.3283 223.009L28.7675 224.185C28.2362 224.033 27.7249 223.764 27.2335 223.376C26.7336 222.995 26.2895 222.529 25.9012 221.978ZM32.0998 217.987C31.7661 217.513 31.3752 217.177 30.927 216.979C30.4703 216.787 29.9946 216.751 29.5001 216.871L28.5496 217.548L29.8964 219.46C30.6365 220.511 31.3577 220.786 32.0599 220.286C32.4024 220.042 32.5781 219.716 32.587 219.309C32.5958 218.901 32.4334 218.461 32.0998 217.987Z" fill="#FF5500"/>
<path d="M16.9075 207.514C16.5214 206.8 16.3322 206.074 16.3397 205.337C16.3473 204.6 16.547 203.92 16.9389 203.297C17.3257 202.665 17.8879 202.147 18.6254 201.743C19.3629 201.34 20.1052 201.144 20.8522 201.156C21.5851 201.163 22.2611 201.364 22.8805 201.758C23.4998 202.152 24.0025 202.707 24.3886 203.421C24.6744 203.949 24.8362 204.492 24.8741 205.048C24.907 205.595 24.8126 206.127 24.5908 206.645L28.3798 204.572L29.1018 205.907L19.0902 211.385L18.3983 210.105L19.5598 209.47C18.9937 209.395 18.4864 209.186 18.0379 208.842C17.5802 208.504 17.2034 208.061 16.9075 207.514ZM23.2872 204.167C23.0315 203.695 22.6973 203.331 22.2847 203.076C21.8578 202.816 21.3932 202.686 20.8906 202.685C20.3739 202.679 19.862 202.815 19.355 203.092C18.8479 203.37 18.461 203.726 18.1942 204.16C17.9131 204.59 17.7693 205.054 17.7629 205.55C17.7514 206.037 17.8735 206.517 18.1293 206.99C18.38 207.453 18.7188 207.815 19.1456 208.074C19.5582 208.329 20.0183 208.462 20.5258 208.473C21.0283 208.474 21.5331 208.336 22.0402 208.059C22.5472 207.781 22.9412 207.427 23.2223 206.997C23.4942 206.572 23.6379 206.109 23.6536 205.607C23.66 205.111 23.5379 204.631 23.2872 204.167Z" fill="#FF5500"/>
<path d="M10.0663 192.93C9.63823 191.852 9.57444 190.923 9.87498 190.142C10.1716 189.353 10.8414 188.748 11.8842 188.329L16.5622 186.45L17.0934 187.788L16.0701 188.199C16.5241 188.29 16.9362 188.516 17.3062 188.879C17.6626 189.236 17.9596 189.714 18.197 190.312C18.5434 191.184 18.6121 191.97 18.4032 192.667C18.1904 193.355 17.7429 193.836 17.0607 194.11C16.3785 194.384 15.7334 194.354 15.1256 194.018C14.5081 193.686 13.9833 192.977 13.5513 191.888L12.6639 189.653L12.3861 189.765C11.7819 190.007 11.389 190.37 11.2075 190.852C11.026 191.334 11.0715 191.918 11.3439 192.605C11.5268 193.065 11.7838 193.485 12.1149 193.864C12.4362 194.246 12.7839 194.538 13.158 194.74L12.3389 195.751C11.8578 195.479 11.4234 195.096 11.0359 194.604C10.6386 194.116 10.3154 193.558 10.0663 192.93ZM17.0218 190.511C16.8077 189.972 16.5059 189.553 16.1163 189.255C15.717 188.961 15.263 188.813 14.7544 188.813L13.6726 189.248L14.5366 191.424C15.0114 192.62 15.6484 193.058 16.4476 192.737C16.8374 192.58 17.0841 192.305 17.1876 191.911C17.2911 191.517 17.2358 191.05 17.0218 190.511Z" fill="#FF5500"/>
<path d="M5.93253 181.044L5.53614 179.577L8.95394 178.643L7.70696 174.028L4.28917 174.962L3.89278 173.495L11.9436 171.294L12.34 172.761L8.96775 173.683L10.2147 178.298L13.587 177.376L13.9833 178.843L5.93253 181.044Z" fill="#FF5500"/>
<path d="M2.47083 158.586L2.95214 161.62L9.88506 160.507L10.1232 162.008L3.19031 163.121L3.67162 166.155L2.36587 166.365L1.16508 158.796L2.47083 158.586Z" fill="#FF5500"/>
<path d="M0.37914 151.514L0.307492 149.996L6.37684 149.706L0.0649315 144.855L0 143.479L8.33356 143.081L8.40521 144.6L2.33586 144.889L8.64702 149.724L8.7127 151.116L0.37914 151.514Z" fill="#FF5500"/>
<path d="M0.589986 127.222L8.91203 127.816L8.81627 129.174L6.17834 128.986L5.99461 131.592L8.50337 133.613L8.38868 135.24L5.69027 132.999C5.4573 133.618 5.11435 134.08 4.66141 134.387C4.198 134.692 3.64179 134.822 2.99277 134.776C2.04019 134.708 1.34091 134.33 0.894939 133.642C0.438501 132.953 0.250739 132.035 0.331654 130.887L0.589986 127.222ZM3.149 133.231C3.70381 133.27 4.12954 133.126 4.4262 132.798C4.71314 132.459 4.88148 131.936 4.93122 131.231L5.0949 128.909L1.81319 128.675L1.65396 130.933C1.55152 132.387 2.04987 133.152 3.149 133.231Z" fill="#FF5500"/>
<path d="M9.14892 106.356L8.71127 108.041L12.1229 108.938L11.7409 110.409L3.66884 108.287L4.0508 106.816L7.46238 107.713L7.908 105.997L5.18075 102.465L5.59055 100.887L8.67456 104.987L13.7183 102.794L13.2687 104.525L9.14892 106.356Z" fill="#FF5500"/>
<path d="M9.02565 90.5415C9.43917 89.4573 10.0195 88.7315 10.7666 88.364C11.5175 87.9867 12.4171 88.0004 13.4655 88.405L18.1684 90.2202L17.6553 91.5656L16.6265 91.1685C16.8988 91.545 17.0484 91.9928 17.0752 92.512C17.0959 93.0175 16.9916 93.5709 16.7623 94.1721C16.4277 95.0494 15.9483 95.6728 15.324 96.0424C14.7034 96.4022 14.0502 96.4497 13.3644 96.185C12.6785 95.9203 12.2257 95.4571 12.0059 94.7956C11.7764 94.1304 11.8702 93.2507 12.2875 92.1566L13.1446 89.9094L12.8654 89.8016C12.2579 89.5672 11.7248 89.5649 11.2662 89.795C10.8075 90.025 10.4466 90.485 10.1834 91.1749C10.0068 91.6382 9.91222 92.1218 9.89982 92.6259C9.87761 93.1261 9.93562 93.5782 10.0738 93.982L8.7901 94.165C8.6209 93.6361 8.56016 93.0586 8.60788 92.4325C8.6458 91.8026 8.78505 91.1723 9.02565 90.5415ZM15.765 93.5158C15.9717 92.9737 16.0327 92.4602 15.9479 91.9752C15.8534 91.4864 15.6195 91.0682 15.2462 90.7206L14.1587 90.3008L13.3241 92.4889C12.8655 93.6914 13.0379 94.4477 13.8413 94.7578C14.2332 94.909 14.6001 94.8754 14.942 94.6568C15.2839 94.4383 15.5582 94.0579 15.765 93.5158Z" fill="#FF5500"/>
<path d="M17.0699 73.0704L24.4808 76.9252L23.7867 78.2755L20.7944 76.7191C20.7527 77.7195 20.5271 78.6183 20.1174 79.4154C19.6402 80.3437 19.0571 80.9496 18.368 81.2329C17.6789 81.5163 16.9055 81.4349 16.0479 80.9888L13.6429 79.7379L14.3369 78.3875L16.6581 79.5948C17.1708 79.8615 17.6396 79.9033 18.0645 79.7202C18.4942 79.5278 18.8585 79.1409 19.1573 78.5594C19.4947 77.903 19.6955 77.1102 19.7596 76.1809L16.3758 74.4208L17.0699 73.0704Z" fill="#FF5500"/>
<path d="M29.2395 61.4754C29.3353 61.5402 29.4557 61.6343 29.6008 61.7578L25.8252 67.4093C26.4876 67.7427 27.1582 67.8081 27.8371 67.6057C28.5132 67.3887 29.0795 66.9384 29.5361 66.255C30.0922 65.4226 30.2613 64.5639 30.0434 63.6788L31.3188 63.5299C31.4739 64.0926 31.4892 64.6753 31.3647 65.278C31.246 65.872 30.9936 66.4581 30.6072 67.0364C30.1155 67.7724 29.5313 68.325 28.8547 68.6944C28.1694 69.0578 27.4513 69.2147 26.7006 69.165C25.9557 69.1066 25.2435 68.8477 24.5642 68.3884C23.8935 67.935 23.3877 67.3767 23.0467 66.7137C22.7115 66.042 22.5715 65.3431 22.6266 64.6172C22.6788 63.8766 22.9274 63.1734 23.3722 62.5075C23.8171 61.8416 24.3647 61.3532 25.0149 61.0423C25.6622 60.7168 26.3525 60.592 27.0857 60.668C27.8248 60.7352 28.5427 61.0043 29.2395 61.4754ZM24.4305 63.2229C24.0266 63.8275 23.87 64.4594 23.9607 65.1185C24.0572 65.7689 24.3782 66.3293 24.9237 66.7998L27.9091 62.3312C27.2787 62.0068 26.643 61.9268 26.0021 62.0913C25.3583 62.2412 24.8344 62.6184 24.4305 63.2229Z" fill="#FF5500"/>
<path d="M39.923 54.6789C39.3714 55.3295 38.7379 55.7919 38.0225 56.0661C37.314 56.3323 36.5937 56.401 35.8615 56.2722C35.1213 56.1365 34.4398 55.8015 33.817 55.2671C33.1943 54.7327 32.762 54.1119 32.5202 53.4049C32.2704 52.691 32.2243 51.9645 32.3819 51.2256C32.5383 50.4718 32.8924 49.7696 33.4441 49.119C33.9344 48.5407 34.4861 48.1261 35.099 47.875C35.7188 47.6159 36.3538 47.5502 37.004 47.6781L36.8211 49.0406C36.3474 48.981 35.9088 49.0347 35.5051 49.2017C35.1014 49.3687 34.7463 49.6329 34.4398 49.9943C34.0857 50.412 33.8574 50.8683 33.7549 51.3632C33.6593 51.85 33.7015 52.3372 33.8813 52.8245C34.06 53.297 34.3689 53.7217 34.808 54.0985C35.2551 54.4822 35.7286 54.729 36.2286 54.8388C36.7274 54.9338 37.2082 54.8955 37.6711 54.7238C38.1408 54.544 38.5527 54.2453 38.9068 53.8277C39.2133 53.4663 39.4167 53.0719 39.517 52.6445C39.6173 52.2172 39.6009 51.7729 39.4678 51.3118L40.7645 50.9051C40.9924 51.5309 41.0321 52.1755 40.8834 52.8388C40.7335 53.4873 40.4134 54.1006 39.923 54.6789Z" fill="#FF5500"/>
<path d="M46.929 37.1343L44.7177 39.2531L49.5599 44.3671L48.4657 45.4156L43.6235 40.3016L41.4122 42.4204L40.5003 41.4573L46.017 36.1712L46.929 37.1343Z" fill="#FF5500"/>
<path d="M58.4674 31.1424C59.4897 30.695 60.3311 30.9016 60.9918 31.7622C61.4409 32.347 61.5671 32.9692 61.3707 33.6287C61.1826 34.2817 60.6566 34.9438 59.7928 35.6149L56.6159 38.0831L51.5163 31.4408L54.5811 29.0597C55.3618 28.4531 56.0877 28.1292 56.7589 28.088C57.4236 28.0384 57.9644 28.2852 58.3814 28.8283C58.6508 29.1792 58.7894 29.5584 58.7972 29.9658C58.8069 30.3584 58.697 30.7506 58.4674 31.1424ZM54.8812 33.3884L56.6752 31.9946C57.132 31.6397 57.4126 31.2883 57.5168 30.9405C57.6294 30.5863 57.5638 30.2504 57.3201 29.9329C56.8325 29.298 56.1237 29.3418 55.1935 30.0645L53.3995 31.4584L54.8812 33.3884ZM58.9936 34.7553C59.4919 34.3681 59.8047 33.9983 59.932 33.646C60.0593 33.2937 59.9947 32.9504 59.7381 32.6162C59.4751 32.2736 59.1632 32.1091 58.8023 32.1227C58.4498 32.1298 58.0285 32.3238 57.5385 32.7045L55.5451 34.2532L57.075 36.2459L58.9936 34.7553Z" fill="#FF5500"/>
<path d="M66.5373 20.6915C67.5233 20.0877 68.4236 19.8701 69.2382 20.0387C70.0617 20.2018 70.7654 20.7658 71.3493 21.7307L73.9684 26.0591L72.7448 26.8084L72.1719 25.8615C72.1586 26.3269 72.0049 26.7733 71.7106 27.2007C71.4199 27.6135 71.0011 27.9874 70.4543 28.3222C69.6565 28.8107 68.8982 29.0093 68.1795 28.918C67.4698 28.8212 66.924 28.4571 66.542 27.8259C66.16 27.1946 66.0831 26.5497 66.3111 25.891C66.5336 25.2233 67.1424 24.5848 68.1374 23.9755L70.1812 22.724L70.0257 22.467C69.6874 21.9079 69.2669 21.5784 68.7641 21.4784C68.2613 21.3784 67.6962 21.5205 67.0687 21.9048C66.6474 22.1628 66.2787 22.4874 65.9626 22.8787C65.6411 23.261 65.4123 23.6544 65.2763 24.059L64.1491 23.4145C64.3366 22.8919 64.6394 22.3974 65.0576 21.9313C65.4703 21.4561 65.9636 21.0428 66.5373 20.6915ZM70.0638 27.1895C70.5568 26.8876 70.9171 26.5187 71.1447 26.0827C71.3669 25.6377 71.4358 25.1629 71.3516 24.6583L70.746 23.6573L68.7559 24.8759C67.6623 25.5456 67.3392 26.2501 67.7867 26.9896C68.0049 27.3503 68.3157 27.5493 68.7191 27.5865C69.1225 27.6237 69.5707 27.4914 70.0638 27.1895Z" fill="#FF5500"/>
<path d="M93.2052 17.0408C92.4288 17.3333 91.6666 17.4232 90.9187 17.3105C90.1707 17.1978 89.5076 16.9065 88.9292 16.4368C88.357 15.9534 87.9274 15.3262 87.6403 14.5551C87.3532 13.7839 87.2693 13.0321 87.3888 12.2994C87.5144 11.5531 87.8241 10.8953 88.3181 10.3259C88.8084 9.74661 89.4418 9.3107 90.2181 9.01817C90.9945 8.72565 91.7518 8.6376 92.4899 8.75404C93.2342 8.85689 93.8924 9.14999 94.4646 9.63334C95.0429 10.1031 95.4757 10.7235 95.7628 11.4947C96.0499 12.2658 96.1306 13.0245 96.0051 13.7707C95.8856 14.5034 95.5808 15.1593 95.0905 15.7386C94.61 16.3142 93.9816 16.7483 93.2052 17.0408ZM92.7414 15.7952C93.2426 15.6063 93.6474 15.3241 93.9559 14.9486C94.2704 14.5596 94.4635 14.1148 94.5349 13.6144C94.6026 13.1042 94.5353 12.5772 94.3329 12.0334C94.1304 11.4897 93.8389 11.0528 93.4582 10.7227C93.0739 10.3828 92.638 10.175 92.1504 10.0995C91.6726 10.0202 91.1831 10.075 90.6819 10.2638C90.1807 10.4527 89.771 10.7367 89.4527 11.1159C89.1443 11.4914 88.9513 11.9361 88.8737 12.4501C88.8022 12.9505 88.8678 13.4726 89.0702 14.0163C89.2727 14.56 89.566 15.0019 89.9503 15.3418C90.3408 15.6682 90.7767 15.8759 91.2582 15.9651C91.7458 16.0406 92.2402 15.984 92.7414 15.7952Z" fill="#FF5500"/>
<path d="M108.806 4.80086L105.848 5.56457L107.594 12.4054L106.13 12.7833L104.384 5.94248L101.426 6.70619L101.098 5.41778L108.477 3.51245L108.806 4.80086Z" fill="#FF5500"/>
<path d="M134.766 7.11697L134.994 10.3868L133.581 10.4868L133.445 8.54382L126.489 9.03585L126.625 10.9788L125.196 11.0799L124.967 7.81003L125.407 7.77893C125.939 7.70958 126.279 7.30455 126.427 6.56385C126.575 5.82315 126.639 4.78676 126.62 3.45468L126.548 0.618253L133.002 0.161762L133.494 7.20693L134.766 7.11697ZM128.009 3.46752C128.041 4.52357 128.013 5.40393 127.926 6.10859C127.848 6.80199 127.647 7.3136 127.323 7.64343L131.987 7.31356L131.587 1.59528L127.975 1.85074L128.009 3.46752Z" fill="#FF5500"/>
<path d="M142.313 0L143.822 0.0785956L143.508 6.18286L148.931 0.344675L150.299 0.415902L149.868 8.79741L148.358 8.71882L148.673 2.61455L143.265 8.45356L141.882 8.38151L142.313 0Z" fill="#FF5500"/>
<path d="M164.145 2.16412C164.94 2.30752 165.621 2.61268 166.189 3.07958C166.756 3.54649 167.158 4.12854 167.397 4.82574C167.645 5.52479 167.696 6.28997 167.548 7.12127C167.399 7.95258 167.087 8.65777 166.611 9.23685C166.147 9.8074 165.568 10.2125 164.875 10.4522C164.182 10.6919 163.438 10.7401 162.642 10.5967C162.054 10.4905 161.532 10.2784 161.077 9.96044C160.632 9.6443 160.278 9.23729 160.015 8.73939L159.254 13.0102L157.766 12.742L159.777 1.45707L161.202 1.71407L160.969 3.02338C161.381 2.62576 161.861 2.35827 162.408 2.22092C162.956 2.07317 163.535 2.05424 164.145 2.16412ZM162.752 9.26503C163.279 9.36001 163.77 9.32524 164.226 9.16074C164.694 8.9877 165.085 8.70438 165.401 8.31078C165.728 7.90865 165.943 7.42182 166.045 6.8503C166.146 6.27878 166.112 5.75245 165.942 5.27132C165.784 4.78166 165.515 4.37915 165.134 4.06379C164.763 3.75029 164.314 3.54606 163.788 3.45108C163.271 3.35796 162.779 3.39792 162.311 3.57095C161.855 3.73546 161.464 4.01358 161.139 4.40532C160.823 4.79892 160.615 5.28148 160.513 5.85301C160.411 6.42453 160.439 6.95512 160.597 7.44478C160.757 7.92405 161.027 8.32656 161.406 8.65231C161.787 8.96767 162.235 9.17191 162.752 9.26503Z" fill="#FF5500"/>
<path d="M182.855 11.4048C182.821 11.5157 182.766 11.6589 182.691 11.8343L176.223 9.8268C176.096 10.561 176.227 11.2258 176.616 11.8214C177.017 12.4101 177.609 12.8258 178.391 13.0685C179.344 13.3642 180.21 13.2795 180.99 12.8144L181.499 14C181.008 14.3116 180.458 14.4944 179.849 14.5482C179.249 14.6052 178.618 14.531 177.956 14.3256C177.114 14.0641 176.42 13.6608 175.873 13.1155C175.33 12.5601 174.973 11.9137 174.804 11.1762C174.645 10.4419 174.686 9.68126 174.927 8.89442C175.165 8.11767 175.551 7.46948 176.084 6.94987C176.627 6.43336 177.251 6.09699 177.958 5.94074C178.678 5.77753 179.419 5.81419 180.181 6.05072C180.943 6.28726 181.566 6.67388 182.05 7.21057C182.546 7.74029 182.864 8.36922 183.003 9.09737C183.152 9.82862 183.103 10.5978 182.855 11.4048ZM179.805 7.27638C179.114 7.06163 178.467 7.09295 177.866 7.37036C177.274 7.65087 176.834 8.12166 176.543 8.78273L181.657 10.37C181.784 9.66924 181.677 9.03387 181.336 8.46391C181.007 7.88697 180.497 7.49113 179.805 7.27638Z" fill="#FF5500"/>
<path d="M193.501 16.2391L191.916 15.5387L190.498 18.7865L189.114 18.1752L192.469 10.4908L193.853 11.102L192.435 14.3498L194.049 15.0629L197.946 12.9103L199.43 13.5661L194.919 15.9836L196.277 21.3397L194.649 20.6202L193.501 16.2391Z" fill="#FF5500"/>
<path d="M211.127 21.4237L208.472 19.9047L205.001 26.0433L203.687 25.2916L207.159 19.1529L204.504 17.6339L205.158 16.4777L211.78 20.2676L211.127 21.4237Z" fill="#FF5500"/>
<path d="M215.861 33.1905C215.189 32.703 214.691 32.1149 214.37 31.4263C214.048 30.7377 213.921 30.0211 213.989 29.2765C214.071 28.5294 214.352 27.8219 214.83 27.1538C215.309 26.4857 215.884 25.9985 216.556 25.692C217.243 25.3831 217.959 25.2775 218.704 25.3751C219.455 25.4641 220.167 25.7524 220.84 26.24C221.512 26.7275 222.005 27.3125 222.318 27.9949C222.646 28.6749 222.769 29.3885 222.687 30.1355C222.619 30.8802 222.346 31.5865 221.867 32.2546C221.389 32.9227 220.806 33.4111 220.119 33.72C219.447 34.0265 218.735 34.1352 217.984 34.0461C217.241 33.9633 216.534 33.6781 215.861 33.1905ZM216.634 32.1113C217.068 32.4261 217.526 32.6084 218.008 32.6583C218.504 32.7057 218.979 32.6206 219.433 32.4028C219.892 32.1764 220.291 31.8277 220.628 31.3566C220.966 30.8856 221.165 30.3992 221.227 29.8975C221.295 29.3873 221.225 28.9071 221.017 28.4571C220.818 28.0132 220.501 27.6339 220.067 27.3192C219.632 27.0044 219.17 26.819 218.68 26.763C218.198 26.7131 217.724 26.7983 217.255 27.0185C216.802 27.2363 216.406 27.5807 216.069 28.0518C215.732 28.5229 215.529 29.0135 215.461 29.5238C215.408 30.0316 215.478 30.5117 215.671 30.9642C215.879 31.4142 216.2 31.7966 216.634 32.1113Z" fill="#FF5500"/>
<path d="M234.3 37.2811C234.894 37.833 235.304 38.4593 235.532 39.1601C235.76 39.8608 235.787 40.5694 235.614 41.2859C235.45 42.0096 235.082 42.6815 234.512 43.3015C233.942 43.9216 233.301 44.3465 232.59 44.5762C231.893 44.8053 231.189 44.833 230.477 44.6593C229.764 44.4857 229.112 44.1229 228.518 43.571C228.079 43.1624 227.753 42.7009 227.54 42.1863C227.335 41.679 227.254 41.1442 227.299 40.5822L224.371 43.7678L223.262 42.7357L230.999 34.3182L232.062 35.3073L231.165 36.2839C231.725 36.1722 232.272 36.2067 232.806 36.3874C233.348 36.5604 233.846 36.8583 234.3 37.2811ZM229.324 42.5084C229.717 42.8739 230.149 43.1109 230.621 43.2193C231.108 43.3272 231.59 43.3007 232.066 43.14C232.558 42.9788 232.999 42.685 233.391 42.2587C233.783 41.8324 234.036 41.3705 234.15 40.8729C234.279 40.3748 234.268 39.8896 234.116 39.4175C233.972 38.9525 233.703 38.5373 233.31 38.1717C232.925 37.8134 232.489 37.5803 232.002 37.4724C231.53 37.364 231.052 37.3865 230.568 37.5401C230.091 37.7007 229.657 37.9942 229.265 38.4205C228.873 38.8468 228.613 39.3091 228.483 39.8072C228.361 40.2976 228.373 40.7827 228.518 41.2626C228.67 41.7347 228.938 42.15 229.324 42.5084Z" fill="#FF5500"/>
<path d="M245.428 48.8925C246.177 49.776 246.534 50.6357 246.498 51.4715C246.468 52.3153 246.027 53.1038 245.172 53.8369L241.34 57.1255L240.41 56.0292L241.249 55.3098C240.79 55.3706 240.327 55.2887 239.861 55.0643C239.41 54.8411 238.976 54.4846 238.561 53.9946C237.955 53.2798 237.639 52.5583 237.615 51.8299C237.597 51.1097 237.868 50.5097 238.427 50.0301C238.986 49.5505 239.606 49.3717 240.289 49.4935C240.98 49.6085 241.703 50.1118 242.459 51.0033L244.012 52.8345L244.239 52.6392C244.734 52.2144 244.991 51.7444 245.009 51.2292C245.028 50.7139 244.798 50.1752 244.322 49.613C244.002 49.2355 243.624 48.9209 243.19 48.6691C242.764 48.4104 242.341 48.2457 241.923 48.1748L242.376 46.953C242.919 47.0562 243.452 47.2785 243.976 47.6198C244.508 47.9543 244.992 48.3785 245.428 48.8925ZM239.61 53.4269C239.985 53.8686 240.404 54.1679 240.868 54.3247C241.34 54.4747 241.817 54.4678 242.299 54.3041L243.186 53.5436L241.674 51.7606C240.843 50.7807 240.1 50.5717 239.445 51.1335C239.126 51.4076 238.98 51.7479 239.007 52.1544C239.035 52.561 239.236 52.9851 239.61 53.4269Z" fill="#FF5500"/>
<path d="M256.223 72.7019L255.361 71.1916L252.303 72.9588L251.55 71.6407L258.784 67.4594L259.537 68.7775L256.48 70.5447L257.358 72.0824L261.764 72.6768L262.572 74.091L257.515 73.343L255.448 78.4646L254.562 76.9131L256.223 72.7019Z" fill="#FF5500"/>
<path d="M259.761 87.8544C259.432 87.0885 259.306 86.3271 259.382 85.57C259.457 84.813 259.714 84.1325 260.152 83.5286C260.605 82.9302 261.206 82.468 261.958 82.1421C262.71 81.8161 263.452 81.6953 264.186 81.7797C264.933 81.8696 265.601 82.1489 266.19 82.6175C266.789 83.082 267.253 83.6972 267.581 84.4631C267.909 85.229 268.033 85.9855 267.954 86.7329C267.888 87.4857 267.629 88.1613 267.177 88.7597C266.738 89.3637 266.143 89.8286 265.392 90.1546C264.64 90.4805 263.891 90.5986 263.144 90.5087C262.41 90.4243 261.744 90.1499 261.145 89.6854C260.55 89.2306 260.089 88.6202 259.761 87.8544ZM260.975 87.3278C261.187 87.8222 261.487 88.2153 261.874 88.5069C262.276 88.8041 262.727 88.9764 263.227 89.0239C263.737 89.0672 264.257 88.9739 264.787 88.744C265.317 88.5142 265.737 88.2 266.046 87.8015C266.365 87.3988 266.55 86.9507 266.601 86.4571C266.657 85.9732 266.579 85.4841 266.367 84.9896C266.155 84.4952 265.853 84.0973 265.461 83.796C265.073 83.5043 264.622 83.332 264.108 83.279C263.608 83.2316 263.093 83.3228 262.563 83.5526C262.033 83.7825 261.608 84.0987 261.289 84.5014C260.984 84.9096 260.799 85.3577 260.734 85.8458C260.683 86.3394 260.763 86.8334 260.975 87.3278Z" fill="#FF5500"/>
<path d="M274.869 105.955L266.854 108.286L266.473 106.962L272.326 105.26L266.515 103.686L266.332 103.047L270.435 98.6233L264.568 100.329L264.183 98.9907L272.198 96.6601L272.631 98.1662L268.126 102.905L274.475 104.586L274.869 105.955Z" fill="#FF5500"/>
<path d="M277.952 122.382L269.71 123.684L269.475 122.182L276.411 121.086L275.681 116.409L268.745 117.505L268.511 116.003L276.753 114.701L277.952 122.382Z" fill="#FF5500"/>
<path d="M278.994 134.126C279.042 135.287 278.795 136.184 278.254 136.82C277.713 137.466 276.882 137.812 275.76 137.858L270.727 138.067L270.668 136.627L271.769 136.582C271.371 136.345 271.057 135.993 270.828 135.527C270.609 135.071 270.487 134.522 270.461 133.878C270.422 132.94 270.617 132.176 271.044 131.588C271.472 131.01 272.053 130.706 272.787 130.675C273.521 130.645 274.119 130.89 274.582 131.409C275.055 131.928 275.315 132.773 275.363 133.944L275.462 136.349L275.761 136.337C276.411 136.31 276.901 136.099 277.231 135.705C277.562 135.311 277.712 134.745 277.682 134.007C277.661 133.511 277.558 133.029 277.37 132.561C277.194 132.093 276.962 131.701 276.676 131.386L277.783 130.706C278.146 131.124 278.43 131.63 278.633 132.224C278.846 132.817 278.967 133.451 278.994 134.126ZM271.635 134.083C271.659 134.663 271.805 135.159 272.074 135.571C272.354 135.982 272.733 136.272 273.213 136.443L274.377 136.394L274.281 134.053C274.228 132.766 273.771 132.14 272.912 132.176C272.492 132.193 272.169 132.37 271.941 132.707C271.713 133.044 271.611 133.503 271.635 134.083Z" fill="#FF5500"/>
<path d="M278.969 146.715L278.858 148.232L275.326 147.971L274.977 152.74L278.51 153.001L278.399 154.517L270.078 153.903L270.189 152.386L273.674 152.644L274.022 147.874L270.537 147.617L270.648 146.101L278.969 146.715Z" fill="#FF5500"/>
<path d="M277.266 163.244L276.972 164.735L271.012 163.55L275.98 169.784L275.714 171.136L267.53 169.508L267.823 168.016L273.784 169.202L268.812 162.983L269.081 161.616L277.266 163.244Z" fill="#FF5500"/>
<path d="M273.335 180.421L272.858 181.864L267.092 179.937L271.245 186.748L270.813 188.055L262.896 185.409L263.372 183.966L269.138 185.894L264.981 179.097L265.418 177.775L273.335 180.421Z" fill="#FF5500"/>
<path d="M263.338 207.262C263.173 207.411 262.989 207.497 262.786 207.517C262.583 207.538 262.376 207.489 262.164 207.373C261.888 207.22 261.711 207.008 261.632 206.736C261.553 206.463 261.585 206.198 261.726 205.938C261.872 205.67 262.081 205.496 262.352 205.417C262.631 205.343 262.905 205.379 263.172 205.526C263.3 205.597 263.422 205.682 263.535 205.781C263.653 205.894 263.813 206.073 264.015 206.317L265.591 208.036L265.114 208.911L263.338 207.262ZM261.907 209.886C261.742 210.035 261.558 210.12 261.355 210.141C261.152 210.161 260.945 210.113 260.733 209.996C260.457 209.844 260.28 209.632 260.201 209.359C260.122 209.087 260.153 208.821 260.295 208.562C260.441 208.294 260.65 208.12 260.92 208.041C261.2 207.966 261.474 208.003 261.74 208.15C261.869 208.221 261.99 208.306 262.104 208.405C262.222 208.518 262.382 208.697 262.584 208.941L264.16 210.66L263.683 211.534L261.907 209.886Z" fill="#FF5500"/>
<path d="M247.675 219.926L251.043 215.106L249.486 212.515L250.419 211.181L256.564 221.662L255.667 222.945L243.774 220.69L244.725 219.329L247.675 219.926ZM249.022 220.201L254.806 221.368L251.756 216.288L249.022 220.201Z" fill="#FF5500"/>
<path d="M244.274 237.146C243.309 238.205 242.299 238.805 241.243 238.949C240.187 239.092 239.218 238.757 238.336 237.944C237.455 237.13 237.039 236.188 237.089 235.118C237.139 234.047 237.647 232.982 238.611 231.924L240.452 229.905L237.992 227.636L239.056 226.469L247.178 233.96L244.274 237.146ZM239.653 232.82C238.979 233.559 238.62 234.266 238.574 234.941C238.537 235.622 238.812 236.234 239.4 236.776C239.988 237.319 240.614 237.538 241.278 237.434C241.95 237.337 242.622 236.92 243.296 236.18L245.105 234.196L241.461 230.836L239.653 232.82Z" fill="#FF5500"/>
<path d="M228.078 250.65L230.942 248.171L224.648 240.813L225.817 239.801L232.111 247.158L234.963 244.69L235.856 245.734L228.971 251.694L228.078 250.65Z" fill="#FF5500"/>
<path d="M207.751 253.185L212.147 259.942L211.831 252.116L212.438 251.719L219.401 255.13L215.044 248.404L216.31 247.574L222.326 256.861L221.244 257.569L213.165 253.567L213.595 262.584L212.514 263.293L206.485 254.015L207.751 253.185Z" fill="#FF5500"/>
<path d="M194.331 260.155C195.342 259.688 196.354 259.489 197.366 259.557C198.382 259.634 199.303 259.958 200.129 260.529C200.946 261.105 201.575 261.878 202.016 262.847C202.458 263.816 202.629 264.8 202.53 265.798C202.421 266.801 202.062 267.71 201.452 268.525C200.846 269.35 200.038 269.995 199.027 270.462C198.025 270.923 197.016 271.116 196 271.039C194.988 270.971 194.073 270.649 193.257 270.074C192.445 269.507 191.816 268.735 191.37 267.756C190.924 266.777 190.751 265.789 190.85 264.791C190.954 263.802 191.308 262.895 191.914 262.07C192.523 261.255 193.329 260.616 194.331 260.155ZM194.914 261.436C194.18 261.774 193.598 262.246 193.169 262.85C192.731 263.459 192.478 264.133 192.411 264.872C192.339 265.625 192.468 266.367 192.801 267.096C193.133 267.826 193.604 268.404 194.215 268.831C194.82 269.272 195.494 269.524 196.239 269.587C196.974 269.655 197.709 269.519 198.443 269.18C199.178 268.842 199.769 268.366 200.217 267.753C200.655 267.144 200.911 266.463 200.983 265.71C201.05 264.971 200.918 264.236 200.585 263.507C200.253 262.777 199.784 262.192 199.179 261.751C198.569 261.324 197.892 261.079 197.147 261.016C196.393 260.957 195.649 261.097 194.914 261.436Z" fill="#FF5500"/>
<path d="M177.541 276.879L181.146 275.741L178.256 266.48L179.728 266.015L182.617 275.276L186.207 274.143L186.617 275.457L177.951 278.194L177.541 276.879Z" fill="#FF5500"/>
<path d="M163.016 270.098C164.111 269.899 165.14 269.959 166.103 270.278C167.069 270.607 167.881 271.151 168.54 271.911C169.188 272.673 169.607 273.579 169.795 274.628C169.983 275.677 169.906 276.673 169.563 277.615C169.21 278.559 168.637 279.349 167.845 279.986C167.055 280.634 166.112 281.057 165.018 281.256C163.933 281.453 162.908 281.387 161.943 281.058C160.979 280.739 160.173 280.199 159.525 279.437C158.878 278.686 158.46 277.78 158.27 276.72C158.079 275.661 158.156 274.66 158.499 273.718C158.844 272.786 159.411 271.997 160.201 271.349C160.993 270.712 161.932 270.295 163.016 270.098ZM163.265 271.485C162.47 271.629 161.79 271.94 161.225 272.418C160.65 272.898 160.238 273.488 159.991 274.187C159.734 274.899 159.677 275.649 159.819 276.439C159.96 277.229 160.274 277.906 160.759 278.473C161.236 279.051 161.828 279.464 162.533 279.712C163.228 279.961 163.974 280.013 164.769 279.869C165.564 279.725 166.254 279.411 166.84 278.93C167.415 278.45 167.83 277.854 168.087 277.143C168.334 276.443 168.388 275.699 168.246 274.909C168.104 274.12 167.795 273.436 167.318 272.857C166.832 272.291 166.237 271.884 165.531 271.637C164.816 271.391 164.06 271.341 163.265 271.485Z" fill="#FF5500"/>
<path d="M150.306 283.806C150.013 283.825 149.765 283.735 149.564 283.537C149.352 283.349 149.236 283.103 149.217 282.797C149.207 282.639 149.212 282.48 149.234 282.32C149.256 282.171 149.31 281.95 149.397 281.659L150.01 279.398L150.999 279.334L150.568 281.726C150.772 281.787 150.942 281.898 151.078 282.058C151.205 282.23 151.276 282.432 151.29 282.664C151.31 282.98 151.227 283.244 151.041 283.457C150.855 283.67 150.61 283.786 150.306 283.806ZM147.337 283.998C147.044 284.016 146.796 283.927 146.595 283.728C146.383 283.541 146.267 283.294 146.248 282.989C146.238 282.831 146.243 282.672 146.265 282.512C146.287 282.362 146.341 282.142 146.428 281.851L147.041 279.59L148.03 279.526L147.599 281.918C147.803 281.979 147.973 282.089 148.109 282.25C148.236 282.422 148.307 282.623 148.321 282.855C148.341 283.171 148.258 283.436 148.072 283.649C147.886 283.862 147.641 283.978 147.337 283.998Z" fill="#FF5500"/>
</svg>
