<svg width="471" height="39" viewBox="0 0 471 39" fill="none" xmlns="http://www.w3.org/2000/svg">
<path d="M53.7165 0.195312C56.6034 0.195312 58.6175 1.27248 59.7768 3.43519C60.2704 4.36407 60.5132 5.40206 60.5132 6.56596V38.1039H52.1751V23.2885H8.4595V38.1039H0V6.56689C0 3.8987 1.14936 2.03348 3.45405 0.946062C4.44519 0.442454 5.57365 0.196248 6.85039 0.196248H53.7165V0.195312ZM51.0068 7.78208H9.63175C8.968 7.78208 8.57693 8.06652 8.4595 8.65127C8.4187 8.76038 8.39781 8.8583 8.39781 8.93851C8.39781 9.32181 8.4187 11.5731 8.4595 15.7027H52.1751V8.99633C52.1751 8.37521 51.8716 7.98818 51.2496 7.8399C51.1651 7.80166 51.0825 7.78208 51.0068 7.78208ZM119.237 15.6524C119.891 15.6524 120.279 15.3558 120.405 14.785C120.449 14.6666 120.468 14.5659 120.468 14.4885V8.93758C120.468 8.31273 120.163 7.92943 119.543 7.78114C119.414 7.74384 119.322 7.72239 119.237 7.72239H77.1217V15.6524H119.237ZM103.492 23.2885H76.9954V38.1039H68.7229V0.195312H121.828C124.706 0.195312 126.728 1.27248 127.88 3.43519C128.373 4.36407 128.616 5.40206 128.616 6.56596V16.8666C128.616 19.5618 127.488 21.4494 125.224 22.5369C124.201 23.0405 123.062 23.2876 121.828 23.2876H113.989L129.732 38.103H119.237L103.492 23.2885ZM136.836 0.195312H196.729V7.78208H170.741V38.1039H162.403V7.78208H136.836V0.195312Z" fill="#FF5500"/>
<path d="M264.793 0.195312V38.1039H256.573V13.5698L234.957 26.8735L213.16 13.5698V38.1039H204.951V0.195312L234.957 18.6563L264.793 0.195312ZM333.517 31.6848C333.517 34.3409 332.388 36.2369 330.123 37.3523C329.132 37.8568 328.004 38.1039 326.72 38.1039H280.043C277.236 38.1039 275.204 37.0762 273.93 35.031C273.306 34.035 273 32.9168 273 31.6848V6.56689C273 4.019 274.129 2.16218 276.396 1.00762C277.469 0.462973 278.682 0.196248 280.044 0.196248H326.721C329.608 0.196248 331.621 1.27341 332.781 3.43613C333.275 4.365 333.517 5.40299 333.517 6.56689V31.6848ZM325.245 29.3636V8.93758C325.245 8.31273 324.937 7.94901 324.315 7.83803C324.233 7.80073 324.148 7.78114 324.073 7.78114H282.508C281.856 7.78114 281.464 8.06559 281.339 8.65033C281.298 8.75945 281.274 8.85737 281.274 8.93758V29.3626C281.274 29.9837 281.688 30.3502 282.508 30.4668H324.073C324.729 30.4678 325.119 30.0919 325.245 29.3636ZM341.728 0.195312H401.621V7.78208H375.633V38.1039H367.296V7.78208H341.728V0.195312ZM470.354 31.6848C470.354 34.3409 469.226 36.2369 466.961 37.3523C465.97 37.8568 464.842 38.1039 463.558 38.1039H416.882C414.075 38.1039 412.042 37.0762 410.769 35.031C410.145 34.035 409.841 32.9168 409.841 31.6848V6.56689C409.841 4.019 410.967 2.16218 413.234 1.00762C414.309 0.462973 415.519 0.196248 416.882 0.196248H463.558C466.445 0.196248 468.459 1.27341 469.618 3.43613C470.112 4.365 470.354 5.40299 470.354 6.56689V31.6848ZM462.082 29.3636V8.93758C462.082 8.31273 461.774 7.94901 461.154 7.83803C461.07 7.80073 460.986 7.78114 460.912 7.78114H419.347C418.693 7.78114 418.301 8.06559 418.176 8.65033C418.134 8.75945 418.111 8.85737 418.111 8.93758V29.3626C418.111 29.9837 418.524 30.3502 419.347 30.4668H460.912C461.567 30.4678 461.956 30.0919 462.082 29.3636Z" fill="white"/>
</svg>
