<svg width="30" height="30" viewBox="0 0 30 30" fill="none" xmlns="http://www.w3.org/2000/svg">
<path d="M25.6066 25.6066C22.7936 28.4196 18.9782 30 15 30C11.0218 30 7.20645 28.4196 4.3934 25.6066C1.58036 22.7936 1.60847e-06 18.9783 0 15C-1.60847e-06 11.0218 1.58035 7.20645 4.39339 4.3934L15 15L25.6066 25.6066Z" fill="#494949"/>
<path d="M4.3934 4.3934C7.20644 1.58035 11.0218 4.78191e-07 15 0C18.9782 -4.78191e-07 22.7936 1.58035 25.6066 4.3934C28.4196 7.20644 30 11.0217 30 15C30 18.9782 28.4197 22.7935 25.6066 25.6066L15 15L4.3934 4.3934Z" fill="#4A7DFF"/>
</svg>
