<svg width="58" height="32" fill="none" xmlns="http://www.w3.org/2000/svg"><path d="M39.52 25.104c-.597-.981-1.056-2.107-1.376-3.376-.32-1.28-.48-2.65-.48-4.112 0-1.461.16-2.832.48-4.112.32-1.29.779-2.416 1.376-3.376h1.088a12.798 12.798 0 00-1.392 3.472c-.288 1.237-.432 2.576-.432 4.016s.144 2.779.432 4.016a12.798 12.798 0 001.392 3.472H39.52zm7.042-3.008c-.864 0-1.638-.23-2.32-.688-.672-.459-1.2-1.115-1.584-1.968-.374-.864-.56-1.877-.56-3.04s.186-2.17.56-3.024c.384-.864.912-1.525 1.584-1.984.682-.459 1.456-.688 2.32-.688.864 0 1.632.23 2.304.688.682.459 1.216 1.12 1.6 1.984.384.853.576 1.861.576 3.024s-.192 2.176-.576 3.04c-.384.853-.918 1.51-1.6 1.968-.672.459-1.44.688-2.304.688zm0-1.056c.65 0 1.221-.181 1.712-.544.501-.363.89-.89 1.168-1.584.277-.693.416-1.53.416-2.512 0-.981-.139-1.819-.416-2.512-.278-.693-.667-1.221-1.168-1.584-.491-.363-1.062-.544-1.712-.544-.651 0-1.227.181-1.728.544-.491.363-.875.89-1.152 1.584-.278.693-.416 1.53-.416 2.512 0 .981.138 1.819.416 2.512.277.693.661 1.221 1.152 1.584a2.872 2.872 0 001.728.544zm5.937 4.064a12.833 12.833 0 001.392-3.456c.299-1.237.448-2.581.448-4.032 0-1.45-.149-2.79-.448-4.016a12.798 12.798 0 00-1.392-3.472h1.088c.598.96 1.056 2.085 1.376 3.376.331 1.28.496 2.65.496 4.112 0 1.461-.16 2.832-.48 4.112-.32 1.28-.784 2.405-1.392 3.376H52.5z" fill="#8D8D8D"/><g clip-path="url(#clip0)"><path stroke="red" stroke-width="1.5" d="M30.065 7.637H1.663"/><path stroke="red" d="M15.874 5v6.597"/><path fill-rule="evenodd" clip-rule="evenodd" d="M8.244 9.313L7.38 7.84l-.863 1.473L1.842 17.3l-.103.174H0v1.5c0 .866.222 1.708.635 2.474.41.764.997 1.43 1.703 1.973.705.543 1.523.96 2.401 1.24.878.28 1.81.42 2.746.42.936 0 1.868-.14 2.746-.42a7.838 7.838 0 002.401-1.24 6.236 6.236 0 001.704-1.973 5.207 5.207 0 00.634-2.474v-1.5h-1.948l-.102-.174-4.676-7.986zm3.62 8.16l-.393-.67-3.51-5.995-.58-.99-.58.99-3.51 5.996-.393.67h8.965zm-4.379 1.5H1.5a3.663 3.663 0 00.456 1.764c.3.559.741 1.067 1.297 1.494a6.341 6.341 0 001.942 1c.726.23 1.504.35 2.29.35s1.564-.12 2.29-.35a6.342 6.342 0 001.942-1 4.738 4.738 0 001.298-1.495 3.662 3.662 0 00.456-1.763H7.484zm17.516-9.66l-.863-1.473-.863 1.473L18.6 17.3l-.102.174h-1.74v1.5c0 .866.223 1.708.635 2.474a6.23 6.23 0 001.704 1.973 7.84 7.84 0 002.4 1.24c.879.28 1.811.42 2.747.42.936 0 1.868-.14 2.746-.42a7.838 7.838 0 002.401-1.24 6.236 6.236 0 001.703-1.973 5.207 5.207 0 00.635-2.474v-1.5H29.78l-.102-.174L25 9.313zm3.62 8.16l-.392-.67-3.511-5.995-.58-.99-.579.99-3.511 5.996-.392.67h8.965zm-4.378 1.5h-5.985a3.664 3.664 0 00.455 1.764 4.728 4.728 0 001.298 1.494 6.342 6.342 0 001.942 1c.726.23 1.504.35 2.29.35s1.564-.12 2.29-.35a6.341 6.341 0 001.942-1 4.738 4.738 0 001.297-1.495 3.662 3.662 0 00.456-1.763h-5.985z" fill="red"/></g><defs><clipPath id="clip0"><path fill="#fff" d="M0 0h32v32H0z"/></clipPath></defs></svg>