<svg width="1631" height="42" fill="none" xmlns="http://www.w3.org/2000/svg"><path d="M8.86 18.725V12.93h1.76l.26-2.269H8.86V9.216c0-.655.164-1.103 1.01-1.103h1.071V6.09A12.806 12.806 0 009.371 6C7.816 6 6.748 7.055 6.748 8.992v1.665H5v2.269h1.752v5.8H8.86z" fill="#fff"/><path d="M22 18l5-6-5-6" stroke="#F3F6FA" stroke-width="2" stroke-linecap="round" stroke-linejoin="round"/><path d="M45 18l-5-6 5-6" stroke="#242424" stroke-width="2" stroke-linecap="round" stroke-linejoin="round"/><path fill-rule="evenodd" clip-rule="evenodd" d="M56.2 6.5h9.6c.66 0 1.2.506 1.2 1.125v6.75c0 .619-.54 1.125-1.2 1.125h-9.6c-.66 0-1.2-.506-1.2-1.125v-6.75c0-.619.54-1.125 1.2-1.125z" fill="#FA4616"/><path d="M66 7.5l-5 4-5-4" stroke="#1D1D1B" stroke-linecap="round" stroke-linejoin="round"/><path fill-rule="evenodd" clip-rule="evenodd" d="M89 13.984v1.807a1.203 1.203 0 01-1.316 1.204 11.956 11.956 0 01-5.207-1.849 11.756 11.756 0 01-3.62-3.613 11.9 11.9 0 01-1.852-5.22A1.203 1.203 0 0178.205 5h1.81a1.206 1.206 0 011.207 1.036 7.71 7.71 0 00.423 1.692 1.2 1.2 0 01-.272 1.27l-.766.765a9.644 9.644 0 003.62 3.613l.766-.765c.335-.33.832-.436 1.273-.27a7.755 7.755 0 001.696.42A1.205 1.205 0 0189 13.985z" fill="#FA4616"/><path d="M111.707 13.071a1 1 0 000-1.414l-6.364-6.364a1 1 0 10-1.414 1.414l5.657 5.657-5.657 5.657a1 1 0 101.414 1.414l6.364-6.364zM99 13.364h12v-2H99v2zm34.312-7.297l-10.746 4.143c-.733.295-.729.704-.134.887l2.759.86 6.383-4.027c.302-.184.577-.085.351.116l-5.172 4.668h-.001.001l-.19 2.844c.279 0 .402-.128.558-.279l1.34-1.303 2.787 2.059c.514.283.883.137 1.011-.476l1.83-8.623c.187-.75-.287-1.09-.777-.87z" fill="#fff"/><path d="M158 6l-6 5-6-5" stroke="#242424" stroke-linecap="round" stroke-linejoin="round"/><path d="M172 11a3 3 0 100-6 3 3 0 000 6zm8 0a3 3 0 100-6 3 3 0 000 6zm0 8a3 3 0 100-6 3 3 0 000 6zm-8 0a3 3 0 100-6 3 3 0 000 6z" fill="#fff"/><path d="M200 5c-3.866 0-7 3.358-7 7.5 0 4.142 3.134 7.5 7 7.5s7-3.358 7-7.5c0-4.142-3.134-7.5-7-7.5zm3.023 5.05l-3.29 4.89a.511.511 0 01-.177.163.47.47 0 01-.454 0 .511.511 0 01-.177-.164l-1.948-2.893c-.06-.088 0-.212.101-.212h.733a.49.49 0 01.405.222l1.112 1.654 2.456-3.65a.491.491 0 01.405-.222h.733c.101 0 .161.124.101.213z" fill="#39B54A"/><path d="M224 7.405l-.627-.645c-1.473-1.514-4.173-.992-5.148.911-.458.896-.561 2.188.275 3.837.805 1.588 2.479 3.49 5.5 5.563 3.02-2.072 4.694-3.975 5.5-5.563.836-1.65.733-2.941.275-3.837-.975-1.903-3.675-2.426-5.148-.912l-.627.646zm0 10.72C210.584 9.26 219.869 2.34 223.846 6c.052.048.104.098.154.15.049-.052.101-.101.154-.149 3.976-3.663 13.262 3.258-.154 12.124z" fill="#464646"/><path d="M247.25 5.266a1.19 1.19 0 011.5 0l5.852 4.826c.802.661.311 1.914-.749 1.914h-11.706c-1.06 0-1.551-1.253-.749-1.914l5.852-4.826z" fill="#C5C5C5"/><path fill-rule="evenodd" clip-rule="evenodd" d="M244.565 10.099c-1.264 0-2.29.976-2.29 2.18v6.54c0 1.205 1.026 2.181 2.29 2.181h2.29v-4.36h2.29V21h2.29c1.264 0 2.29-.976 2.29-2.18v-6.541c0-1.204-1.026-2.18-2.29-2.18h-6.87z" fill="#C5C5C5"/><path d="M272.362 9.098a3.26 3.26 0 00-3.265 3.266 3.26 3.26 0 003.265 3.265 3.26 3.26 0 003.265-3.265 3.26 3.26 0 00-3.265-3.266zm0 5.388a2.126 2.126 0 01-2.122-2.122c0-1.169.953-2.123 2.122-2.123 1.168 0 2.122.954 2.122 2.123a2.127 2.127 0 01-2.122 2.122zm3.399-6.282a.762.762 0 10-.002 1.524.762.762 0 00.002-1.524zm2.966 4.16c0-.88.008-1.75-.042-2.627-.049-1.019-.282-1.923-1.027-2.668-.746-.747-1.649-.978-2.668-1.027-.879-.05-1.749-.042-2.626-.042-.879 0-1.75-.007-2.627.042-1.019.05-1.923.282-2.668 1.027-.747.746-.978 1.649-1.027 2.668-.049.879-.042 1.75-.042 2.627 0 .877-.007 1.75.042 2.626.049 1.02.282 1.924 1.027 2.669.746.746 1.649.977 2.668 1.026.879.05 1.749.042 2.627.042.878 0 1.749.008 2.626-.042 1.019-.049 1.923-.281 2.668-1.026.747-.747.978-1.65 1.027-2.669.051-.877.042-1.748.042-2.626zm-1.401 3.754a2.04 2.04 0 01-.481.729c-.225.224-.44.364-.729.48-.838.333-2.826.258-3.754.258-.928 0-2.918.075-3.756-.256a2.03 2.03 0 01-.729-.48 2.039 2.039 0 01-.48-.73c-.332-.839-.257-2.827-.257-3.755 0-.929-.075-2.918.257-3.756.116-.29.256-.506.48-.729.225-.223.44-.365.729-.48.838-.332 2.828-.257 3.756-.257.928 0 2.918-.075 3.755.256.29.116.507.257.729.481.225.224.365.44.481.73.331.837.257 2.826.257 3.755 0 .928.074 2.916-.258 3.754z" fill="#fff"/><path d="M302 12c0 4.667-6 8.667-6 8.667s-6-4-6-8.667a6 6 0 1112 0z" stroke="#FA4616" stroke-linecap="round" stroke-linejoin="round"/><path d="M296 14a2 2 0 100-4 2 2 0 000 4z" stroke="#FA4616" stroke-linecap="round" stroke-linejoin="round"/><path d="M321.07 7.832l2.828 2.833-2.828-2.833zm0 0l1.621-1.625a.706.706 0 011 0l1.828 1.832a.707.707 0 010 1.002l-1.621 1.624-2.828-2.833zm0 0l-6.863 6.875a.711.711 0 00-.207.501v1.832a.707.707 0 00.707.708h1.828a.705.705 0 00.5-.207l6.863-6.876-2.828-2.833z" stroke="#000" stroke-linecap="round" stroke-linejoin="round"/><path clip-rule="evenodd" d="M350 14.984v1.807a1.206 1.206 0 01-1.316 1.204 11.959 11.959 0 01-5.207-1.849 11.77 11.77 0 01-3.62-3.613 11.909 11.909 0 01-1.852-5.22A1.202 1.202 0 01339.206 6h1.81a1.205 1.205 0 011.206 1.036 7.71 7.71 0 00.423 1.692c.165.44.059.936-.272 1.27l-.766.765a9.648 9.648 0 003.62 3.613l.766-.765c.335-.33.832-.436 1.273-.27a7.772 7.772 0 001.696.42A1.205 1.205 0 01350 14.985zm13.666-6.817h10.667c.733 0 1.333.6 1.333 1.333v8c0 .733-.6 1.333-1.333 1.333h-10.667c-.733 0-1.333-.6-1.333-1.333v-8c0-.733.6-1.333 1.333-1.333z" stroke="#FA4616" stroke-linecap="round" stroke-linejoin="round"/><path d="M375.666 9.5L369 14.167 362.333 9.5" stroke="#FA4616" stroke-linecap="round" stroke-linejoin="round"/><path fill-rule="evenodd" clip-rule="evenodd" d="M387.5 12.158a7.158 7.158 0 1114.316 0 7.158 7.158 0 01-14.316 0zm7.158-6.316a6.316 6.316 0 100 12.632 6.316 6.316 0 000-12.632z" fill="#E7590E"/><path fill-rule="evenodd" clip-rule="evenodd" d="M399.118 16.618a.42.42 0 01.595 0l3.664 3.663a.422.422 0 01-.596.596l-3.663-3.663a.422.422 0 010-.596z" fill="#E7590E"/><path d="M422.522 6.345a.5.5 0 01.951 0l1.545 4.756a.5.5 0 00.475.345h5a.5.5 0 01.294.905l-4.045 2.939a.502.502 0 00-.182.559l1.546 4.755a.5.5 0 01-.77.56l-4.045-2.94a.5.5 0 00-.588 0l-4.045 2.94a.5.5 0 01-.769-.56l1.545-4.755a.5.5 0 00-.182-.56l-4.045-2.938a.5.5 0 01.294-.905h5a.5.5 0 00.476-.345l1.545-4.756z" fill="#FFC700"/><path d="M447.375 11.375h1.063v6.375h-1.063v-6.375zm3.187 0h1.063v6.375h-1.063v-6.375z" fill="#FA4616"/><path d="M443.125 8.188V9.25h1.063v10.625a1.06 1.06 0 001.062 1.063h8.5a1.06 1.06 0 001.062-1.063V9.25h1.063V8.187h-12.75zm2.125 11.687V9.25h8.5v10.625h-8.5zm2.125-13.812h4.25v1.062h-4.25V6.062z" fill="#FA4616"/><path d="M474.375 11.375h1.063v6.375h-1.063v-6.375zm3.187 0h1.063v6.375h-1.063v-6.375z" fill="#555"/><path d="M470.125 8.188V9.25h1.063v10.625a1.06 1.06 0 001.062 1.063h8.5a1.06 1.06 0 001.062-1.063V9.25h1.063V8.187h-12.75zm2.125 11.687V9.25h8.5v10.625h-8.5zm2.125-13.812h4.25v1.062h-4.25V6.062z" fill="#555"/><path d="M470.125 8.188V9.25h1.063v10.625a1.06 1.06 0 001.062 1.063h8.5a1.06 1.06 0 001.062-1.063V9.25h1.063V8.187h-12.75zm2.125 11.687V9.25h8.5v10.625h-8.5zm2.125-13.812h4.25v1.062h-4.25V6.062z" fill="#555"/><path d="M503 6l-7 7 7 7m-7-7h16" stroke="#FA4616" stroke-width="2" stroke-linecap="round" stroke-linejoin="round"/><path d="M540.05 10h-16.1a.95.95 0 00-.95.95v.1c0 .525.425.95.95.95h16.1a.95.95 0 00.95-.95v-.1a.95.95 0 00-.95-.95zm0 5h-16.1a.95.95 0 00-.95.95v.1c0 .525.425.95.95.95h16.1a.95.95 0 00.95-.95v-.1a.95.95 0 00-.95-.95zm0-10h-16.1a.95.95 0 00-.95.95v.1c0 .525.425.95.95.95h16.1a.95.95 0 00.95-.95v-.1a.95.95 0 00-.95-.95z" fill="#FA4616"/><path d="M552 12.994l6 5.994L568 7" stroke="#FA4616" stroke-width="2" stroke-linecap="round" stroke-linejoin="round"/><path d="M580 13.938a.687.687 0 01.688-.688h4.124a.688.688 0 110 1.375h-4.124a.688.688 0 01-.688-.688zm0-4.126a.687.687 0 01.688-.687h9.624a.688.688 0 110 1.375h-9.624a.688.688 0 01-.688-.688zm0-4.124a.687.687 0 01.688-.688h15.124a.688.688 0 110 1.375h-15.124a.688.688 0 01-.688-.688z" fill="#fff"/><path d="M630 6h-21a1 1 0 00-1 1v13a1 1 0 001 1h21a1 1 0 001-1V7a1 1 0 00-1-1z" fill="#fff" stroke="#000" stroke-width="2"/><path d="M630 9h-22v5h22V9zm36.93 5.88l-2.625-6.343a.9.9 0 00-.322-.402.853.853 0 00-.483-.15h-2.625V6.171a.924.924 0 00-.256-.641.86.86 0 00-.619-.266h-16.625a.86.86 0 00-.619.266.923.923 0 00-.256.64v15.407c0 .24.092.47.256.64a.86.86 0 00.619.266h1.872a3.639 3.639 0 001.252 1.93 3.425 3.425 0 002.126.744 3.42 3.42 0 002.126-.745 3.632 3.632 0 001.251-1.929h5.496a3.632 3.632 0 001.251 1.93 3.425 3.425 0 002.126.744 3.42 3.42 0 002.126-.745 3.639 3.639 0 001.252-1.929h1.872a.86.86 0 00.619-.265c.164-.17.256-.4.256-.641v-6.344a.93.93 0 00-.07-.353zm-6.055-5.083h2.048l1.872 4.53h-3.92v-4.53zm-12.25 13.593c-.346 0-.684-.106-.972-.305a1.803 1.803 0 01-.645-.814 1.872 1.872 0 01-.099-1.047c.067-.351.234-.674.479-.928a1.73 1.73 0 01.896-.496c.339-.07.691-.034 1.011.103.319.138.593.37.785.668a1.862 1.862 0 01-.218 2.288c-.328.34-.773.531-1.237.531zm8.873-2.718h-5.496a3.632 3.632 0 00-1.251-1.93 3.425 3.425 0 00-2.126-.745c-.768 0-1.515.262-2.126.745a3.64 3.64 0 00-1.252 1.93h-.997V7.078h14.875V18.46c-.398.24-.747.558-1.027.938-.279.38-.483.812-.6 1.274zm3.377 2.718c-.346 0-.685-.106-.972-.305a1.803 1.803 0 01-.645-.814 1.872 1.872 0 01-.099-1.047c.067-.351.234-.674.479-.928a1.73 1.73 0 01.896-.496c.339-.07.691-.034 1.011.103.32.138.593.37.785.668a1.862 1.862 0 01-.218 2.288c-.328.34-.773.531-1.237.531zm4.375-2.718h-.997a3.636 3.636 0 00-1.242-1.956 3.422 3.422 0 00-2.136-.763V16.14h4.375v4.532z" fill="#000"/><path clip-rule="evenodd" d="M687.167 29.917a2.167 2.167 0 10-.001-4.333 2.167 2.167 0 00.001 4.333zm13 0a2.167 2.167 0 10-.001-4.333 2.167 2.167 0 00.001 4.333z" stroke="#fff" stroke-width="2" stroke-linecap="round" stroke-linejoin="round"/><path d="M684.643 11.5h18.774l-1.82 9.09a2.167 2.167 0 01-2.167 1.743h-11.451a2.166 2.166 0 01-2.166-1.885l-1.647-12.48a2.167 2.167 0 00-2.145-1.885h-2.438" stroke="#fff" stroke-width="2" stroke-linecap="round" stroke-linejoin="round"/><path clip-rule="evenodd" d="M741.722 9.15a7.334 7.334 0 00-10.374 0l-1.413 1.412-1.413-1.413a7.336 7.336 0 00-10.374 10.373l1.414 1.414 10.373 10.373 10.373-10.373 1.414-1.414a7.333 7.333 0 000-10.373z" stroke="#FA4616" stroke-width="2" stroke-linecap="round" stroke-linejoin="round"/><path clip-rule="evenodd" d="M781.722 9.15a7.334 7.334 0 00-10.374 0l-1.413 1.412-1.413-1.413a7.336 7.336 0 00-10.374 10.373l1.414 1.414 10.373 10.373 10.373-10.373 1.414-1.414a7.333 7.333 0 000-10.373z" stroke="#979797" stroke-width="2" stroke-linecap="round" stroke-linejoin="round"/><path clip-rule="evenodd" d="M805.667 35.667a2.667 2.667 0 10-.001-5.333 2.667 2.667 0 00.001 5.333zm16 0a2.667 2.667 0 10-.001-5.333 2.667 2.667 0 00.001 5.333z" stroke="#FA4616" stroke-width="2" stroke-linecap="round" stroke-linejoin="round"/><path d="M802.56 13h23.107l-2.24 11.187a2.667 2.667 0 01-2.667 2.146h-14.093a2.666 2.666 0 01-2.667-2.32l-2.027-15.36a2.665 2.665 0 00-2.64-2.32h-3" stroke="#FA4616" stroke-width="2" stroke-linecap="round" stroke-linejoin="round"/><path d="M849.025 33C842.384 33 837 27.616 837 21s5.384-12 12-12a11.92 11.92 0 018.484 3.516 12.078 12.078 0 012.469 3.581 1.001 1.001 0 01-.498 1.324 1.002 1.002 0 01-1.324-.498 10.103 10.103 0 00-2.062-2.993A9.923 9.923 0 00849 11c-5.515 0-10 4.485-10 10s4.485 10 10 10c.552 0 1.013.448 1.013 1a.99.99 0 01-.988 1z" fill="#FA4616"/><path d="M848.386 28.293c-.032 0-.063-.001-.096-.004a7.292 7.292 0 01-6.63-7.29c0-4.043 3.289-7.333 7.332-7.333 1.951 0 3.794.759 5.187 2.14.459.458.855.982 1.181 1.562a1 1 0 01-1.741.981 5.27 5.27 0 00-.849-1.127 5.35 5.35 0 00-3.778-1.556 5.338 5.338 0 00-5.332 5.332 5.3 5.3 0 004.819 5.3 1 1 0 01-.093 1.995z" fill="#FA4616"/><path d="M849.015 22a1 1 0 01-.706-1.708l8.666-8.667a1 1 0 011.415 1.415l-8.667 8.666a.997.997 0 01-.708.294z" fill="#FA4616"/><path d="M861.349 13h-3.333a1 1 0 01-1-1V8.666c0-.265.105-.52.293-.706l2.667-2.667a1 1 0 011.706.707v2.333h2.334a1 1 0 01.706 1.707l-2.666 2.667a.998.998 0 01-.707.293zm-2.333-2h1.918l.667-.667h-.919a1 1 0 01-1-1v-.919l-.666.667V11zm1.334 26c-4.778 0-8.666-3.888-8.666-8.667s3.888-8.667 8.666-8.667c4.779 0 8.667 3.888 8.667 8.667S865.129 37 860.35 37zm0-15.334a6.674 6.674 0 00-6.666 6.667A6.674 6.674 0 00860.35 35a6.674 6.674 0 006.667-6.667 6.675 6.675 0 00-6.667-6.667z" fill="#FA4616"/><path d="M859.017 31.666a.997.997 0 01-.651-.24l-2.333-2a1 1 0 011.302-1.52l1.604 1.375 3.678-3.961a1 1 0 011.466 1.36l-4.333 4.666a.999.999 0 01-.733.32zM895 15.938a5.444 5.444 0 005.438-5.438A5.444 5.444 0 00895 5.062a5.444 5.444 0 00-5.438 5.438A5.444 5.444 0 00895 15.938zm0-9a3.566 3.566 0 013.562 3.562A3.566 3.566 0 01895 14.063a3.566 3.566 0 01-3.562-3.563A3.566 3.566 0 01895 6.937zm11 9a3.442 3.442 0 003.438-3.438A3.442 3.442 0 00906 9.062a3.442 3.442 0 00-3.438 3.438A3.442 3.442 0 00906 15.938zm0-5a1.564 1.564 0 010 3.124 1.564 1.564 0 010-3.124zm.756 7.125h-1.45a4.252 4.252 0 00-3.856 2.459 7.543 7.543 0 00-5.576-2.46h-1.748a7.543 7.543 0 00-5.576 2.46 4.252 4.252 0 00-3.856-2.46h-1.45c-2.34 0-4.244 1.893-4.244 4.219v6.825c0 1.01.825 1.831 1.838 1.831h5.733a2.191 2.191 0 002.18 2h12.498a2.191 2.191 0 002.18-2h5.667c1.05 0 1.904-.85 1.904-1.896v-6.76c0-2.326-1.904-4.218-4.244-4.218zm-25.881 4.218c0-1.292 1.063-2.343 2.369-2.343h1.45c1.306 0 2.368 1.05 2.368 2.343v.642c-.63 1.641-.5 2.625-.5 6.14h-5.687V22.28zm20.687 8.468c0 .173-.14.314-.313.314h-12.498a.314.314 0 01-.313-.314v-5.123a5.694 5.694 0 015.688-5.689h1.748a5.695 5.695 0 015.688 5.69v5.122zm7.563-1.708c0 .033.35.021-5.687.021 0-3.54.129-4.5-.5-6.14v-.641c0-1.292 1.062-2.343 2.368-2.343h1.45c1.306 0 2.369 1.05 2.369 2.343v6.76zM884 15.938a3.442 3.442 0 003.438-3.438A3.442 3.442 0 00884 9.062a3.442 3.442 0 00-3.438 3.438A3.442 3.442 0 00884 15.938zm0-5a1.564 1.564 0 010 3.124 1.564 1.564 0 010-3.124zm68.994 1.954a1 1 0 00-.571-.798l-15-7a1 1 0 00-.846 0l-15 7A1 1 0 00921 13v17a1 1 0 00.629.928l15 6a.997.997 0 00.742 0l15-6A1 1 0 00953 30V13l-.006-.108zM937 7.103l12.484 5.826-4.807 1.923-12.719-5.396L937 7.103zm-7.481 3.492l12.522 5.312L937 17.923l-12.484-4.994 5.003-2.335zM923 14.476l13 5.2v14.846l-13-5.2V14.477zm15 20.046V19.677l13-5.2v14.846l-13 5.2zm56.377-20.966l-14.873-7.437a1.127 1.127 0 00-1.008 0l-14.873 7.437a1.127 1.127 0 00-.623 1.008v20.45c0 .622.504 1.127 1.127 1.127h3.718c.622 0 1.127-.505 1.127-1.127V17.55h20.056v17.465c0 .622.505 1.127 1.127 1.127h3.718c.623 0 1.127-.505 1.127-1.127v-20.45c0-.427-.241-.817-.623-1.008zm-1.63 20.331h-1.465V16.423c0-.623-.505-1.127-1.127-1.127h-22.31c-.622 0-1.127.504-1.127 1.127v17.464h-1.465V15.26L979 8.387l13.747 6.873v18.627zM1005 21c0 8.81 7.19 16 16 16 8.81 0 16-7.19 16-16 0-8.81-7.19-16-16-16-8.8 0-16 7.182-16 16zm1.88 0c0-2.804.82-5.42 2.23-7.62l1.78.434c.31.078.57.293.7.588s.11.628-.05.912c-.67 1.235-.27 2.828.93 3.627l4.05 2.7.93 1.863c.32.635.2 1.398-.3 1.9l-.56.558a.93.93 0 000 1.326l1.12 1.118c.31.311.48.724.48 1.164 0 1.904.43 3.793 1.25 5.468-7.06-.778-12.56-6.776-12.56-14.038zm12.25 1.666l-.36-.729h.13c.94 0 1.78.52 2.2 1.357a4.305 4.305 0 003.87 2.393h.72v.938c0 .758-.3 1.469-.84 2.001-1.73 1.709-3.02 3.416-3.92 5.175a10.908 10.908 0 01-.87-4.231c0-.94-.36-1.824-1.03-2.49l-.46-.457a3.505 3.505 0 00.56-3.957zm3.28 12.389c.8-1.718 2.04-3.396 3.76-5.094a4.646 4.646 0 001.39-3.336V24.75a.938.938 0 00-.94-.938h-1.65c-.93 0-1.78-.52-2.19-1.356a4.32 4.32 0 00-3.88-2.393h-1.07l-.29-.57c-.5-1.011-.04-2.24 1.05-2.8.89-.459 1.47-1.464 1.47-2.56V13.5a.94.94 0 01.94-.938h1.13c1.93 0 3.28-1.901 2.67-3.713l-.54-1.593c2.11.5 4.03 1.47 5.65 2.794l-.28.859c-.05.137-.13.264-.23.366l-1.01 1.013a2.805 2.805 0 00-.83 1.989v1.098c0 1.55 1.26 2.813 2.82 2.813.51 0 .93.42.93.937v1.432c0 .145-.03.29-.1.42l-.32.64c-.44.878-.39 1.901.13 2.737a2.785 2.785 0 002.39 1.333h.91c-1.78 5.066-6.38 8.817-11.91 9.368zM1035.12 21c0 .963-.09 1.903-.28 2.813h-1.43a.928.928 0 01-.8-.445.935.935 0 01-.04-.912l.32-.64c.19-.39.3-.824.3-1.259v-1.432c0-1.55-1.26-2.813-2.81-2.813-.52 0-.94-.42-.94-.937v-1.098c0-.25.09-.486.27-.663l1.01-1.013c.31-.307.55-.687.68-1.1l.02-.032c2.3 2.514 3.7 5.861 3.7 9.531zM1021 6.875c.4 0 .79.017 1.18.05l.84 2.523a.938.938 0 01-.89 1.24H1021a2.814 2.814 0 00-2.81 2.812v.632c0 .395-.19.753-.46.893-1.46.75-2.29 2.184-2.27 3.655l-1.95-1.299c-.39-.264-.54-.775-.32-1.164.44-.798.48-1.733.11-2.565a2.868 2.868 0 00-1.96-1.658l-1.01-.245c2.6-2.984 6.42-4.874 10.67-4.874zm58 7.021c0-.251-.1-.492-.28-.67l-8.01-7.954a.946.946 0 00-1.33.003l-2.33 2.33c-1.36-.13-2.75.014-4.05.418-1.3-.405-2.69-.548-4.05-.418l-2.33-2.33a.946.946 0 00-1.33-.003l-8.01 7.955a.937.937 0 000 1.336l2.39 2.33c-.14 1.399.02 2.828.45 4.161.27.843.65 1.633 1.12 2.366l-.42.416a2.81 2.81 0 00.87 4.57 2.818 2.818 0 00.46 3.385 2.805 2.805 0 003.38.454c.14.321.34.617.59.872a2.819 2.819 0 003.98 0l.25-.247.57.572c.03.032.07.06.1.087.53.525 1.23.815 1.98.815s1.45-.29 1.98-.818c.53-.508.34-.326.67-.656.33.326.98 1.07 2.24 1.07a2.797 2.797 0 002.58-1.696 2.81 2.81 0 003.38-.453 2.818 2.818 0 00.46-3.385 2.81 2.81 0 00.87-4.57l-.42-.418a10.332 10.332 0 001.57-6.526l2.39-2.33a.93.93 0 00.28-.666zm-26.85 12.592a.93.93 0 010-1.326l.25-.251.24.251 1.08 1.079-.25.247a.932.932 0 01-1.32 0zm2.65 3.977a.942.942 0 01-1.33 0 .949.949 0 010-1.325l1.58-1.573 1.32 1.325-1.57 1.573zm3.98 1.326a.944.944 0 01-1.33 0 .915.915 0 01-.27-.663c0-.25.09-.486.27-.663l.25-.247 1.32 1.326-.24.247zm15.07-5.303a.932.932 0 01-1.32 0l-6.63-6.63a.943.943 0 00-1.33 0 .949.949 0 000 1.326l7.96 7.956c.36.365.36.96 0 1.325a.944.944 0 01-1.33 0c-.44-.438-7.48-7.486-7.95-7.955a.943.943 0 00-1.33 0 .93.93 0 000 1.326l6.63 6.63a.93.93 0 010 1.325.942.942 0 01-1.33 0l-6.62-6.629a.943.943 0 00-1.33 0 .93.93 0 000 1.326l5.06 5.056c-.31.305-.17.17-.66.64 0 .003 0 .007-.01.01a.913.913 0 01-.66.275.914.914 0 01-.66-.275c-.01-.003-.01-.007-.01-.01-.56-.54-7.77-7.75-8.36-8.348a8.353 8.353 0 01-2.39-7.16.953.953 0 00-.27-.803l-2.04-1.986 6.68-6.626 1.99 1.99c.21.21.51.307.8.266.46-.066.92-.092 1.39-.08-.48.337-.93.718-1.35 1.14-1.16 1.158-4.29 4.289-5.31 5.304a2.81 2.81 0 001.99 4.8c.72 0 1.44-.274 1.99-.822l3.76-3.761a6.58 6.58 0 003.77.188l8.87 8.876a.93.93 0 010 1.326zm.84-10.615a.952.952 0 00-.27.803 8.58 8.58 0 01-1.02 5.377l-6.55-6.547c.43-.265.84-.582 1.21-.95a.949.949 0 000-1.326.942.942 0 00-1.33 0 4.701 4.701 0 01-5.34.916.929.929 0 00-1.06.183l-4.21 4.204a.932.932 0 01-1.32 0 .925.925 0 010-1.326c1.09-1.096 4.22-4.218 5.3-5.303a8.376 8.376 0 017.16-2.387c.29.041.59-.057.8-.265l1.99-1.991 6.68 6.626-2.04 1.986z" fill="#FA4616"/><path d="M1115.67 33v-2.667a5.336 5.336 0 00-5.34-5.333h-10.66a5.336 5.336 0 00-5.34 5.333V33" stroke="#FA4616" stroke-width="2" stroke-linecap="round" stroke-linejoin="round"/><path clip-rule="evenodd" d="M1105 19.667c2.95 0 5.33-2.388 5.33-5.334A5.328 5.328 0 001105 9a5.328 5.328 0 00-5.33 5.333 5.328 5.328 0 005.33 5.334z" stroke="#FA4616" stroke-width="2" stroke-linecap="round" stroke-linejoin="round"/><path d="M1211 27.5l-5-6 5-6" stroke="#FA4616" stroke-width="2" stroke-linecap="round" stroke-linejoin="round"/><path d="M1173.07 11a4.07 4.07 0 00-4.07 4.074 4.07 4.07 0 004.07 4.074 4.08 4.08 0 004.08-4.074 4.08 4.08 0 00-4.08-4.074zm0 11.852a4.07 4.07 0 00-4.07 4.074 4.07 4.07 0 004.07 4.074 4.08 4.08 0 004.08-4.074 4.08 4.08 0 00-4.08-4.074zm11.86 0a4.08 4.08 0 00-4.08 4.074 4.08 4.08 0 004.08 4.074 4.07 4.07 0 004.07-4.074 4.07 4.07 0 00-4.07-4.074zm0-11.852a4.08 4.08 0 00-4.08 4.074 4.08 4.08 0 004.08 4.074 4.07 4.07 0 004.07-4.074 4.07 4.07 0 00-4.07-4.074z" fill="#FA4616"/><path d="M1238.22 13.76l1.72 1.723-5.4 5.402 5.51 5.516-1.83 1.84-5.52-5.517-5.49 5.487-1.72-1.723 5.49-5.488-5.49-5.488 1.84-1.839 5.48 5.488 5.41-5.402z" fill="#fff"/><path d="M1267.22 13.76l1.72 1.723-5.4 5.402 5.51 5.516-1.83 1.84-5.52-5.517-5.49 5.487-1.72-1.723 5.49-5.488-5.49-5.488 1.84-1.839 5.48 5.488 5.41-5.402z" fill="#242424"/><path fill-rule="evenodd" clip-rule="evenodd" d="M1131 19.737c0-5.93 4.81-10.737 10.74-10.737 5.93 0 10.73 4.807 10.73 10.737s-4.8 10.737-10.73 10.737c-5.93 0-10.74-4.807-10.74-10.737zm10.74-9.474c-5.24 0-9.48 4.242-9.48 9.474s4.24 9.474 9.48 9.474c5.23 0 9.47-4.242 9.47-9.474s-4.24-9.474-9.47-9.474z" fill="#E7590E"/><path fill-rule="evenodd" clip-rule="evenodd" d="M1148.43 26.427a.628.628 0 01.89 0l5.49 5.495c.25.247.25.646 0 .893a.628.628 0 01-.89 0l-5.49-5.495a.626.626 0 010-.893z" fill="#E7590E"/><path clip-rule="evenodd" d="M1131 19.737c0-5.93 4.81-10.737 10.74-10.737 5.93 0 10.73 4.807 10.73 10.737s-4.8 10.737-10.73 10.737c-5.93 0-10.74-4.807-10.74-10.737zm10.74-9.474c-5.24 0-9.48 4.242-9.48 9.474s4.24 9.474 9.48 9.474c5.23 0 9.47-4.242 9.47-9.474s-4.24-9.474-9.47-9.474z" stroke="#FA4616" stroke-linecap="round" stroke-linejoin="round"/><path clip-rule="evenodd" d="M1148.43 26.427a.628.628 0 01.89 0l5.49 5.495c.25.247.25.646 0 .893a.628.628 0 01-.89 0l-5.49-5.495a.626.626 0 010-.893z" stroke="#FA4616" stroke-linecap="round" stroke-linejoin="round"/><path d="M1306 14.919a.755.755 0 00-.43-.599l-11.25-5.25a.763.763 0 00-.64 0l-11.25 5.25c-.24.112-.4.34-.43.599V27.75c0 .307.19.582.47.696l11.25 4.5c.09.036.19.054.28.054.09 0 .19-.018.28-.054l11.25-4.5c.28-.114.47-.39.47-.696V14.919zm-12-4.341l9.36 4.37-3.6 1.441-9.54-4.047 3.78-1.764zm-5.61 2.618l9.39 3.984-3.78 1.512-9.36-3.745 3.75-1.751zm-4.89 2.912l9.75 3.9v11.134l-9.75-3.9V16.108zm11.25 15.034V20.008l9.75-3.9v11.134l-9.75 3.9z" fill="#000"/><path d="M1324.25 19.313h1.06v6.375h-1.06v-6.375zm3.19 0h1.06v6.375h-1.06v-6.375z" fill="#F8F8F8"/><path d="M1320 16.125v1.063h1.06v10.625a1.058 1.058 0 001.06 1.062h8.5a1.058 1.058 0 001.07-1.063V17.188h1.06v-1.062H1320zm2.12 11.688V17.188h8.5v10.625h-8.5zM1324.25 14h4.25v1.063h-4.25V14z" fill="#F8F8F8"/><path clip-rule="evenodd" d="M1370.72 11.15a7.324 7.324 0 00-5.19-2.15c-1.94 0-3.81.773-5.18 2.15l-1.42 1.412-1.41-1.413a7.331 7.331 0 00-10.37 0 7.325 7.325 0 000 10.373l1.41 1.414 10.37 10.373 10.38-10.373 1.41-1.414a7.318 7.318 0 002.15-5.186c0-1.946-.77-3.811-2.15-5.187z" stroke="#39B54A" stroke-width="2" stroke-linecap="round" stroke-linejoin="round"/><path d="M1398.06 13.97c0-.697.25-1.372.69-1.906a2.981 2.981 0 011.76-1.017 2.952 2.952 0 011.99.344c.61.346 1.07.893 1.32 1.547a3 3 0 01.01 2.026c-.24.657-.69 1.21-1.29 1.563a2.964 2.964 0 01-3.76-.625l-7.98 3.705c.18.582.18 1.205 0 1.786l7.98 3.705a2.972 2.972 0 013.95-.499c.6.421 1.03 1.051 1.19 1.768.17.716.06 1.47-.3 2.112-.35.642-.94 1.13-1.63 1.366-.7.236-1.46.206-2.14-.085a2.997 2.997 0 01-1.52-1.492 2.956 2.956 0 01-.13-2.13l-7.98-3.704c-.39.46-.92.788-1.51.94-.58.152-1.2.121-1.77-.09a2.99 2.99 0 01-1.41-1.087 3.016 3.016 0 01-.53-1.697c0-.606.19-1.198.53-1.696a2.99 2.99 0 011.41-1.088 2.96 2.96 0 011.77-.09c.59.153 1.12.48 1.51.941l7.98-3.705c-.09-.289-.14-.59-.14-.893z" fill="#fff"/><path d="M1426.02 12.463c.15-.46.81-.46.96 0l1.54 4.756c.07.206.26.345.48.345h5c.48 0 .68.62.29.905l-4.05 2.939a.519.519 0 00-.18.559l1.55 4.755a.5.5 0 01-.77.56l-4.05-2.94a.488.488 0 00-.58 0l-4.05 2.94a.5.5 0 01-.77-.56l1.55-4.755a.519.519 0 00-.18-.56l-4.05-2.938c-.39-.285-.19-.905.29-.905h5c.22 0 .41-.14.48-.345l1.54-4.756z" fill="#C4C4C4"/><path d="M1590.51 23.39l.89-5.791h-5.56v-3.758c0-1.584.78-3.129 3.27-3.129h2.52v-4.93s-2.29-.391-4.48-.391c-4.58 0-7.57 2.774-7.57 7.795V17.6h-5.09v5.791h5.09v14h6.26v-14l4.67-.001zm-115.8-10.2c-.84.37-1.74.62-2.68.732a4.699 4.699 0 002.05-2.578c-.92.543-1.92.926-2.96 1.13a4.654 4.654 0 00-5.6-.922 4.726 4.726 0 00-2.05 2.19 4.708 4.708 0 00-.29 2.982 13.27 13.27 0 01-5.32-1.413 13.261 13.261 0 01-4.28-3.454c-.4.69-.63 1.49-.63 2.341 0 .768.19 1.523.55 2.2.36.676.89 1.253 1.52 1.678a4.656 4.656 0 01-2.11-.582v.06a4.674 4.674 0 003.74 4.568 4.68 4.68 0 01-2.1.08c.29.925.87 1.734 1.65 2.314.78.58 1.73.902 2.7.92a9.354 9.354 0 01-5.79 1.994c-.37 0-.74-.021-1.11-.064a13.18 13.18 0 007.14 2.093c8.57 0 13.26-7.099 13.26-13.255 0-.2-.01-.402-.02-.602a9.394 9.394 0 002.32-2.41l.01-.002zm38.42-5.195c-.32.023-.63.099-.93.223-.29.113-1.64.683-3.7 1.547l-7.39 3.109-10.5 4.426.06-.024s-.36.118-.73.375c-.23.147-.43.34-.59.567-.18.27-.33.683-.28 1.11.09.722.56 1.155.9 1.394.34.242.66.355.66.355h.01l4.88 1.645c.22.703 1.49 4.875 1.8 5.836.18.574.35.933.57 1.207.11.14.23.257.38.351.08.045.16.08.25.106l-.05-.012c.01.004.02.016.03.02.04.011.07.015.12.023.77.234 1.4-.246 1.4-.246l.03-.028 2.88-2.625 4.84 3.707.11.047c1 .442 2.02.196 2.56-.238.54-.437.76-.996.76-.996l.03-.09 3.73-19.129c.11-.472.14-.914.02-1.343a1.81 1.81 0 00-.78-1.047 1.87 1.87 0 00-1.07-.27zm-.1 2.05c0 .063.01.056-.02.177v.011l-3.7 18.93a.369.369 0 01-.11.145c-.08.062-.14.101-.47-.028l-5.91-4.531-3.57 3.254.75-4.79 9.66-9c.39-.37.26-.448.26-.448.03-.454-.6-.133-.6-.133l-12.18 7.543v-.02l-5.84-1.965v-.004l-.01-.003a.313.313 0 00.03-.012l.03-.016.03-.011s5.21-2.196 10.51-4.426l7.38-3.11c2.05-.863 3.57-1.496 3.66-1.53.08-.032.04-.033.1-.033z" fill="#fff"/><path d="M1549 27v2c0 .53-.21 1.04-.59 1.414-.37.375-.88.586-1.41.586h-8c-.53 0-1.04-.21-1.41-.586A1.984 1.984 0 011537 29V18c0-.53.21-1.04.59-1.414.37-.375.88-.586 1.41-.586h2l8 11zm-1.31-16H1543c-.53 0-1.04.21-1.41.586-.38.375-.59.884-.59 1.414v12c0 .53.21 1.04.59 1.414.37.375.88.586 1.41.586h8c.53 0 1.04-.21 1.41-.586.38-.375.59-.884.59-1.414v-8.758c0-.266-.05-.53-.16-.776-.1-.245-.25-.468-.44-.654l-3.32-3.242a1.98 1.98 0 00-1.39-.57v0z" stroke="#000" stroke-width="2" stroke-linecap="round" stroke-linejoin="round"/><path d="M1626 27v2c0 .53-.21 1.04-.59 1.414-.37.375-.88.586-1.41.586h-8c-.53 0-1.04-.21-1.41-.586A1.984 1.984 0 011614 29V18c0-.53.21-1.04.59-1.414.37-.375.88-.586 1.41-.586h2l8 11zm-1.31-16H1620c-.53 0-1.04.21-1.41.586-.38.375-.59.884-.59 1.414v12c0 .53.21 1.04.59 1.414.37.375.88.586 1.41.586h8c.53 0 1.04-.21 1.41-.586.38-.375.59-.884.59-1.414v-8.758c0-.266-.05-.53-.16-.776-.1-.245-.25-.468-.44-.654l-3.32-3.242a1.98 1.98 0 00-1.39-.57v0z" stroke="#52B44E" stroke-width="2" stroke-linecap="round" stroke-linejoin="round"/></svg>