<svg width="234" height="75" fill="none" xmlns="http://www.w3.org/2000/svg"><g clip-path="url(#clip0)"><path d="M20.733 6.004a39.16 39.16 0 014.608-1.996l-1.095.98c-.46.498-.883 1.034-1.343 1.551l-.557.665c-.327.093-.653.167-.96.277a.875.875 0 01-.582-.06.827.827 0 01-.4-.41.784.784 0 01-.029-.562.818.818 0 01.358-.445zm28.278-2.956a35.75 35.75 0 00-6.181-1.2 39.542 39.542 0 00-10.79.35 25.595 25.595 0 00-4.127 3.455l-.25.258a52.14 52.14 0 018.083-.683 36.787 36.787 0 016.719.61l1.094-.555c.98-.539 2-1.008 3.053-1.404l2.4-.831zm21.386 28.356a32.907 32.907 0 011.152 8.59v.96c.807-.554 1.613-1.071 2.38-1.625l2.458-1.238a36.504 36.504 0 00-.192-4.083 35.778 35.778 0 00-.921-4.784l-2.554 1.035a13.4 13.4 0 00-2.323 1.145zM62.277 9.68a38.443 38.443 0 00-9.599-5.45l-4.991 1.977a9.624 9.624 0 00-1.344.61 35.796 35.796 0 019.925 4.82l4.281-1.514 1.728-.443zm12.44 17.549c-.85-2.67-2.03-5.23-3.513-7.63l-1.613.48-3.647 1.46a34.982 34.982 0 013.84 7.666c.672-.374 1.379-.69 2.11-.942l2.823-1.034zm-4.627-9.237a37.007 37.007 0 00-6.009-6.724l-2.86.85-2.841 1.164a36.193 36.193 0 016.297 6.52l4.242-1.514 1.171-.296zm1.363 26.343a45.294 45.294 0 01-1.305 9.236c-.092.275-.07.574.061.834.13.26.36.462.641.564.28.102.592.096.868-.016a1.15 1.15 0 00.618-.587 34.793 34.793 0 003.84-13.578l-.96.536c-1.133 1.016-2.496 1.92-3.763 3.01z" fill="#fff" opacity=".39"/><path d="M75.14 27.063l-1.92.72a37.469 37.469 0 00-3.84-7.61l.269-.093 2.092-.628a35.179 35.179 0 013.398 7.61zm-10.464-15.98l-2.783.832a38.03 38.03 0 016.258 6.558l.768-.277 1.69-.444a37.364 37.364 0 00-5.933-6.668zm11.02 18.012l-1.92.776a35.66 35.66 0 011.42 8.848l1.594-.85v-.295a35.075 35.075 0 00-1.094-8.553v.074zm-.5 12.45c0 1.164-.153 2.346-.306 3.492a.504.504 0 00.115.355.555.555 0 00.713.112.519.519 0 00.227-.3c.326-1.506.55-3.03.672-4.564l-1.305.72-.115.185zM32.502 1.847l-1.785 1.386a40.41 40.41 0 016.028-.444 39.3 39.3 0 019.733 1.201h.173l3.09-1.127a39.34 39.34 0 00-10.616-1.478 38.777 38.777 0 00-6.623.462zm20.79 2.163l-.403.11-2.61 1.053a38.842 38.842 0 019.598 5.154l.595-.203 2.361-.591a37.23 37.23 0 00-9.54-5.523z" fill="#fff" opacity=".75"/><path d="M234 20.837v16.626c-.005 3.314-1.377 6.49-3.814 8.831-2.436 2.342-5.739 3.657-9.183 3.657H95.431c-.57 0-1.117-.218-1.52-.606a2.03 2.03 0 01-.63-1.463V31.256c0-3.312 1.367-6.488 3.801-8.83 2.434-2.342 5.735-3.657 9.177-3.657h125.572c.572 0 1.12.217 1.527.604.406.388.637.914.642 1.464z" fill="#39B54A"/><path d="M111.884 36.946h-2.937v6.724h-4.819V24.865h7.679a6.563 6.563 0 012.571.319 6.38 6.38 0 012.224 1.283 6.093 6.093 0 011.502 2.033 5.9 5.9 0 01.531 2.442 5.9 5.9 0 01-.531 2.442 6.093 6.093 0 01-1.502 2.033 6.38 6.38 0 01-2.224 1.284c-.825.276-1.7.384-2.571.319l.077-.074zm-.211-7.98h-2.726v3.805h2.726c.259 0 .516-.05.756-.145.24-.095.458-.235.642-.412.183-.177.329-.387.428-.617a1.83 1.83 0 000-1.457 1.902 1.902 0 00-.428-.617 1.99 1.99 0 00-.642-.413 2.045 2.045 0 00-.756-.144zm19.639 14.778l-3.475-7.02h-1.632v7.02h-4.818v-18.88h7.775a6.506 6.506 0 012.541.341c.814.281 1.558.72 2.187 1.291a6.041 6.041 0 011.468 2.025c.34.765.511 1.59.504 2.421a5.261 5.261 0 01-.856 2.916 5.558 5.558 0 01-2.35 2.017l4.242 7.87h-5.586zm-2.361-14.778h-2.746v3.805h2.746a2.037 2.037 0 001.398-.557c.183-.177.329-.386.428-.617a1.83 1.83 0 000-1.457 1.9 1.9 0 00-.428-.617 1.99 1.99 0 00-.642-.412 2.045 2.045 0 00-.756-.145zm22.173 12.82a7.23 7.23 0 01-2.508 1.63 7.456 7.456 0 01-2.983.494 7.368 7.368 0 01-2.985-.487 7.129 7.129 0 01-2.505-1.637c-2.074-1.995-1.92-4.637-1.92-7.482 0-2.845 0-5.542 1.92-7.389a7.134 7.134 0 012.496-1.633 7.372 7.372 0 012.975-.491 7.449 7.449 0 012.982.494 7.212 7.212 0 012.508 1.63c2.055 1.977 1.92 4.637 1.92 7.39 0 2.752.154 5.486-1.9 7.48zm-3.552-12.119a2.454 2.454 0 00-.865-.613 2.543 2.543 0 00-1.055-.2 2.483 2.483 0 00-1.057.195 2.38 2.38 0 00-.862.619c-.442.554-.73 1.2-.73 4.636s.288 4.064.73 4.618c.232.273.525.49.858.638.332.147.695.22 1.061.212.366.004.727-.07 1.059-.218.332-.147.626-.362.861-.632.422-.554.71-1.163.71-4.618 0-3.454-.288-4.082-.71-4.637zm21.367 12.23a7.349 7.349 0 01-2.447 1.432 7.56 7.56 0 01-2.832.415h-7.219v-18.88h7.276c.963-.041 1.926.1 2.832.417a7.37 7.37 0 012.448 1.431c2.284 2.198 2.035 4.618 2.035 7.574 0 2.956.249 5.412-2.093 7.61zm-3.302-11.823a2.49 2.49 0 00-1.008-.844 2.602 2.602 0 00-1.315-.227h-2.054v10.603h2.112a2.62 2.62 0 001.31-.222 2.517 2.517 0 001.013-.83c.384-.537.518-1.035.518-4.25 0-3.214-.134-3.713-.518-4.23h-.058zm15.819 13.836a7.26 7.26 0 01-2.819-.402 7.06 7.06 0 01-2.42-1.449 6.746 6.746 0 01-1.619-2.256 6.507 6.507 0 01-.552-2.69V24.864h4.818v12.081c-.051.35-.021.708.088 1.047.108.338.292.65.539.912.248.263.552.47.891.607.34.137.706.2 1.074.187.369.013.737-.051 1.078-.188.341-.137.647-.343.897-.605.25-.261.438-.572.551-.91a2.37 2.37 0 00.104-1.05v-12.08h4.838v12.247a6.587 6.587 0 01-.574 2.695 6.793 6.793 0 01-1.636 2.255 7.11 7.11 0 01-2.43 1.447 7.323 7.323 0 01-2.828.401zm17.911 0a7.546 7.546 0 01-2.968-.506 7.322 7.322 0 01-2.503-1.618c-2.054-1.995-1.92-4.637-1.92-7.482 0-2.845 0-5.542 1.92-7.39a7.322 7.322 0 012.503-1.617 7.548 7.548 0 012.968-.506 7.26 7.26 0 014.999 1.64 6.736 6.736 0 012.431 4.511h-4.915a2.286 2.286 0 00-.838-1.477 2.46 2.46 0 00-1.657-.537 2.402 2.402 0 00-1.058.178 2.32 2.32 0 00-.862.617c-.442.554-.749 1.219-.749 4.655s.307 4.12.749 4.674c.235.265.531.474.864.612.332.138.694.2 1.056.182a2.476 2.476 0 001.652-.542 2.3 2.3 0 00.843-1.472h4.915a6.757 6.757 0 01-2.46 4.46 7.281 7.281 0 01-4.97 1.618zm19.006-14.907V43.78h-4.838V29.003h-4.818v-4.138h14.475v4.138h-4.819zM107.871 14.594a5.29 5.29 0 01-2.132-.283 5.138 5.138 0 01-1.822-1.103l1.363-1.33c.354.31.769.548 1.221.7.452.153.931.216 1.409.187 1.247 0 1.919-.462 1.919-1.293a1.17 1.17 0 00-.403-.887 1.706 1.706 0 00-.96-.35l-1.324-.186a3.664 3.664 0 01-2.016-.812 2.673 2.673 0 01-.619-.945 2.594 2.594 0 01-.168-1.106 3.12 3.12 0 01.311-1.336c.201-.42.494-.792.858-1.093a3.468 3.468 0 012.67-.748 4.816 4.816 0 011.89.255c.605.21 1.157.538 1.624.964l-1.344 1.275a3.094 3.094 0 00-1.039-.575 3.162 3.162 0 00-1.188-.146c-1.133 0-1.69.61-1.69 1.33a.98.98 0 00.327.74 1.96 1.96 0 001.017.424l1.286.166a3.724 3.724 0 012.016.795c.289.294.512.643.654 1.025.142.381.201.787.172 1.191 0 1.995-1.747 3.14-4.032 3.14zm10.252-.001a3.978 3.978 0 01-1.517-.237 3.868 3.868 0 01-1.298-.791 3.7 3.7 0 01-.872-1.217 3.573 3.573 0 01-.306-1.45V4.046h2.131v6.798c-.02.248.015.497.105.73.089.233.23.444.412.62a1.826 1.826 0 001.403.497 1.86 1.86 0 001.395-.504c.182-.175.322-.385.413-.617.09-.231.128-.479.111-.726V4.045h2.112v6.872a3.56 3.56 0 01-.32 1.466 3.691 3.691 0 01-.898 1.223 3.87 3.87 0 01-1.329.78c-.494.17-1.019.24-1.542.207zm9.752.001a5.353 5.353 0 01-2.141-.284 5.204 5.204 0 01-1.833-1.102l1.383-1.33c.353.311.768.55 1.22.702.452.152.932.215 1.41.185 1.248 0 1.919-.462 1.919-1.293a1.19 1.19 0 00-.345-.887 1.711 1.711 0 00-.96-.35l-1.305-.186a3.67 3.67 0 01-2.112-.812 2.745 2.745 0 01-.602-.95 2.67 2.67 0 01-.166-1.1c0-.464.104-.92.305-1.341.2-.42.493-.794.857-1.096a3.39 3.39 0 011.255-.652 3.464 3.464 0 011.422-.09 4.831 4.831 0 011.889.257 4.7 4.7 0 011.625.963l-1.344 1.275a3.094 3.094 0 00-1.039-.575 3.162 3.162 0 00-1.188-.146c-1.133 0-1.69.61-1.69 1.33a.98.98 0 00.327.74c.283.23.63.378.998.424l1.286.166a3.664 3.664 0 012.016.795c.292.293.517.642.662 1.023.146.382.208.788.183 1.193 0 1.995-1.766 3.14-4.032 3.14zm12.268-.093v-4.378h-3.725v4.378h-2.035V4.045h2.131v4.268h3.629V4.045h2.111v10.456h-2.111zm4.991 0V4.045h2.131v10.456h-2.131zm-38.069 46.571V57.1h-1.92v3.971h-.998V56.27h3.935v4.803h-1.017zm6.623-.388a1.7 1.7 0 01-.577.344c-.214.077-.442.11-.671.099a1.569 1.569 0 01-.714-.125 1.512 1.512 0 01-.572-.43v2.44h-.998v-6.743h.979v.498c.156-.186.355-.333.583-.43.227-.096.475-.139.722-.124.392-.034.782.075 1.094.304.313.229.525.562.596.934.048.411.048.826 0 1.237a2.615 2.615 0 01-.442 1.995zm-1.497-3.695a.915.915 0 00-.495.109.862.862 0 00-.35.353c-.146.377-.211.78-.192 1.182 0 1.09.307 1.552 1.056 1.552.749 0 1.037-.462 1.037-1.607 0-1.146-.308-1.515-1.056-1.515v-.074zm7.238 3.565a2.095 2.095 0 01-.689.432 2.146 2.146 0 01-.809.14 1.987 1.987 0 01-.804-.13 1.919 1.919 0 01-.674-.442 2.445 2.445 0 01-.493-.865c-.102-.318-.137-.651-.102-.982-.033-.33.003-.664.105-.981.102-.317.269-.611.49-.866a1.968 1.968 0 011.478-.554 2.108 2.108 0 011.498.554c.437.518.644 1.182.575 1.847.037.33.004.662-.094.98a2.476 2.476 0 01-.481.867zm-.73-3.177a1.025 1.025 0 00-.768-.314 1.01 1.01 0 00-.423.083.973.973 0 00-.345.25 2.009 2.009 0 00-.307 1.311c-.052.443.064.889.326 1.256a1.007 1.007 0 00.749.296 1.052 1.052 0 00.768-.314c.256-.37.365-.816.307-1.257a1.915 1.915 0 00-.307-1.311zm6.892-1.108v3.953h.672v2.069h-.96v-1.22h-3.225v1.22h-.96v-2.07h.537c.425-.85.616-1.791.557-2.733v-1.22h3.379zm-2.419 1.607a4.94 4.94 0 01-.48 2.346h1.92V57.1h-1.402l-.038.776zm6.239 4.138a1.273 1.273 0 01-.509.722c-.253.176-.562.26-.873.238h-.403v-.868h.249c.403 0 .576-.11.711-.517l.288-.758-1.767-4.562h1.075l1.191 3.38 1.171-3.38h1.075l-2.208 5.745zm3.571-.942v-4.803h1.017v2.29l1.92-2.29h1.21l-1.92 2.253 2.131 2.55h-1.229l-1.92-2.494v2.493h-1.209zm7.449-3.972v3.971h-.999V57.1h-1.593v-.831h4.223v.83h-1.631zm6.066 3.972v-3.307l-2.131 3.306h-1.017V56.27h1.017v3.25l2.131-3.25h.998v4.803h-.998zm7.468.055a2.97 2.97 0 01-2.093-.702l.595-.61c.372.326.861.498 1.363.48.519 0 1.056-.24 1.056-.683 0-.443-.345-.647-.864-.647h-.749v-.72h.73c.48 0 .806-.24.806-.646 0-.407-.384-.61-.979-.61-.433 0-.855.13-1.209.37l-.557-.61a3.16 3.16 0 011.92-.536c.96 0 1.785.443 1.785 1.293.002.226-.066.447-.196.635a1.17 1.17 0 01-.533.418c.237.08.443.231.587.43.145.199.221.436.219.678a1.61 1.61 0 01-.627 1.105 1.725 1.725 0 01-.59.298c-.216.06-.441.08-.664.057zm8.178.887a1.257 1.257 0 01-.506.727 1.342 1.342 0 01-.876.233h-.403v-.868h.268c.403 0 .557-.11.711-.517l.268-.758-1.747-4.562h1.075l1.191 3.38 1.152-3.38h1.075l-2.208 5.745zm6.451-1.054a2.307 2.307 0 01-.903.167c-1.401 0-2.227-.924-2.227-2.494 0-1.57.826-2.42 2.227-2.42.308-.002.613.048.903.148.277.13.525.313.729.536l-.672.628a1.299 1.299 0 00-.437-.334 1.346 1.346 0 00-.542-.128c-.806 0-1.209.554-1.209 1.588 0 1.035.403 1.607 1.209 1.607a1.25 1.25 0 00.547-.118 1.2 1.2 0 00.432-.343l.672.646a2.265 2.265 0 01-.729.518zm4.703.112h-2.323v-4.803h.998v1.847h1.325c.204 0 .406.039.595.114.189.075.36.185.505.324a1.45 1.45 0 010 2.116c-.145.14-.316.25-.505.325a1.61 1.61 0 01-.595.114v-.038zm-.173-2.199h-1.152v1.404h1.152a.744.744 0 00.516-.205.688.688 0 00.214-.497.688.688 0 00-.214-.496.744.744 0 00-.516-.206zm6.777 1.681c-.406.366-.941.57-1.498.57a2.236 2.236 0 01-1.497-.57 2.408 2.408 0 01-.576-1.847 2.463 2.463 0 01.576-1.847c.41-.359.944-.557 1.497-.557.554 0 1.088.198 1.498.556.438.519.645 1.183.576 1.848.036.33.004.662-.095.98a2.461 2.461 0 01-.481.867zm-.73-3.177a1.05 1.05 0 00-.768-.314.967.967 0 00-.767.332c-.252.392-.36.854-.308 1.312-.052.443.064.889.327 1.256a.964.964 0 00.748.295 1.049 1.049 0 00.768-.314c.256-.37.365-.815.308-1.256a1.915 1.915 0 00-.308-1.311zm4.205-.277v3.971h-.999V56.27h3.226v.83h-2.227zm6.872 3.454c-.4.37-.933.575-1.487.575a2.195 2.195 0 01-1.488-.575 2.445 2.445 0 01-.493-.865 2.386 2.386 0 01-.102-.982c-.033-.33.003-.664.105-.981.102-.317.269-.612.49-.866a2.255 2.255 0 011.488-.555c.55 0 1.081.198 1.487.555.221.254.386.55.485.867.099.317.13.65.091.98a2.445 2.445 0 01-.576 1.847zm-.729-3.177a1.07 1.07 0 00-1.536 0 2.01 2.01 0 00-.307 1.311c-.044.443.071.886.326 1.256.205.195.481.303.768.303.288 0 .563-.108.768-.303a1.95 1.95 0 00.307-1.256 1.791 1.791 0 00-.326-1.311zm8.889 3.583a2.15 2.15 0 01-.884.167c-1.42 0-2.246-.924-2.246-2.494 0-1.57.845-2.42 2.246-2.42.31-.021.619.03.904.149.284.119.534.302.728.535l-.672.628a1.298 1.298 0 00-.437-.334 1.347 1.347 0 00-.542-.128c-.806 0-1.209.554-1.209 1.589 0 1.034.403 1.607 1.209 1.607.19.002.377-.039.547-.119a1.2 1.2 0 00.432-.343l.672.647a2.305 2.305 0 01-.748.517zm4.876.112h-2.477v-4.803h2.381a1.36 1.36 0 011.056.308 1.28 1.28 0 01.46.966c.014.223-.048.445-.176.631a1.068 1.068 0 01-.534.404c.239.082.444.236.586.439.141.202.212.444.201.688.009.188-.024.376-.097.55a1.31 1.31 0 01-.326.463c-.142.13-.312.228-.497.29a1.414 1.414 0 01-.577.063zm-.308-4.046h-1.171v1.2h1.171c.48 0 .749-.203.749-.609 0-.406-.23-.591-.749-.591zm0 1.958h-1.228v1.33h1.228a.7.7 0 00.546-.16.636.636 0 00.222-.505c.058-.425-.249-.665-.71-.665h-.058zm3.648-4.674h1.075v.85h-1.075v-.85zm0 2.051h.998v4.71h-.998v-4.71zm5.01.739v3.971h-.998V57.1h-1.574v-.831h4.031v.83h-1.459zm4.493 4.914a1.273 1.273 0 01-.509.722c-.253.176-.562.26-.873.238h-.404v-.868h.25c.422 0 .576-.11.73-.517l.268-.758-1.747-4.562h1.171l1.191 3.38 1.151-3.38h1.075l-2.303 5.745zM107.89 65.985v3.954h.692v2.105h-.96v-1.219h-3.245v1.22h-.94v-2.106h.518c.444-.845.643-1.79.576-2.734v-1.22h3.359zm-2.303 1.608a4.939 4.939 0 01-.48 2.346h1.92v-3.122h-1.44v.776zm7.429 3.195v-3.971h-1.44v1.404c0 2.032-.614 2.567-1.593 2.567h-.557v-.85h.173c.422 0 .941-.11.941-1.958v-1.995h3.494v4.803h-1.018zm2.726 0l1.075-1.976a1.384 1.384 0 01-.773-.505 1.295 1.295 0 01-.263-.862c-.004-.2.037-.4.118-.584.081-.185.201-.351.353-.489a1.528 1.528 0 011.141-.387h2.361v4.803h-1.017v-1.847h-.902l-.941 1.847h-1.152zm3.014-4.027h-1.171a.799.799 0 00-.619.168.731.731 0 00-.27.562.73.73 0 00.27.562.799.799 0 00.619.168h1.171v-1.46zm9.964 4.027v-2.956h-2.86v2.956h-1.075v-6.743h1.056v2.882h2.86v-2.882h1.056v6.743h-1.037zm6.585-.591c-.4.37-.933.575-1.488.575a2.198 2.198 0 01-1.488-.575 2.482 2.482 0 01-.489-.866 2.435 2.435 0 01-.106-.981 2.356 2.356 0 01.099-.983c.103-.318.272-.612.496-.864.401-.37.934-.576 1.488-.576.555 0 1.088.206 1.488.576.225.252.394.546.496.864.102.318.136.652.099.983.033.33-.003.664-.105.98a2.485 2.485 0 01-.49.867zm-.749-3.214a1.117 1.117 0 00-.748-.277c-.271 0-.532.1-.73.277a1.79 1.79 0 00-.326 1.311 1.9 1.9 0 00.326 1.33 1.1 1.1 0 00.73.278c.277.002.544-.097.748-.278.288-.384.412-.86.346-1.33a1.796 1.796 0 00-.346-1.237v-.074zm7.18 3.805l-1.478-2.845h-1.325v2.845h-1.075v-6.742h2.726a1.99 1.99 0 01.84.072c.271.083.52.224.728.411.207.188.369.417.473.672.104.255.148.53.128.803.016.414-.113.822-.368 1.157a1.921 1.921 0 01-1.033.69l1.612 2.993-1.228-.056zm-1.229-5.837h-1.574v2.124h1.574a1.116 1.116 0 00.843-.266c.113-.1.202-.222.262-.358a.992.992 0 00.085-.429 1.025 1.025 0 00-.339-.799 1.112 1.112 0 00-.851-.273zm4.915 3.713a1.159 1.159 0 00.313.953c.12.128.268.23.432.298.165.068.343.101.522.097.228.01.455-.03.664-.116.209-.087.396-.217.546-.383l.633.573a2.288 2.288 0 01-.865.6 2.367 2.367 0 01-1.055.157c-1.247 0-2.246-.646-2.246-2.475 0-1.551.845-2.438 2.112-2.438.304-.003.605.058.883.176.277.12.526.294.727.513.202.218.353.476.443.756.09.279.116.574.078.864v.425h-3.187zm2.112-1.33a1.047 1.047 0 00-.404-.449 1.107 1.107 0 00-.594-.16 1.07 1.07 0 00-.588.159 1.013 1.013 0 00-.392.45 1.22 1.22 0 00-.134.665h2.246a1.79 1.79 0 00-.134-.665zm5.317 3.51a2.666 2.666 0 01-1.038-.167 2.585 2.585 0 01-.881-.554c-.672-.665-.672-1.422-.672-2.715s0-2.032.672-2.697c.251-.241.551-.43.881-.554.331-.124.684-.18 1.038-.167a2.48 2.48 0 011.683.556 2.3 2.3 0 01.832 1.513h-1.094a1.37 1.37 0 00-.329-.68 1.448 1.448 0 00-.65-.415 1.493 1.493 0 00-.779-.029 1.46 1.46 0 00-.68.367c-.346.37-.442.757-.442 2.106 0 1.348 0 1.755.442 2.106.13.133.288.238.463.308a1.4 1.4 0 00.554.098c.343.005.676-.108.94-.317.263-.21.441-.504.5-.828h1.075a2.34 2.34 0 01-.841 1.502 2.518 2.518 0 01-1.674.567zm6.988-.056v-.443a1.672 1.672 0 01-1.344.498c-.24.02-.483-.01-.711-.086a1.739 1.739 0 01-.613-.357 1.392 1.392 0 01-.403-1.035c0-.793.575-1.366 1.727-1.366h1.325v-.351c0-.61-.326-.905-1.094-.905a1.212 1.212 0 00-.613.086 1.166 1.166 0 00-.482.376l-.672-.592c.22-.248.499-.44.814-.56a2.14 2.14 0 01.991-.123c1.363 0 2.054.554 2.054 1.644v3.214h-.979zm0-2.124h-1.171c-.595 0-.902.258-.902.683 0 .425.288.684.921.684.166.023.334.01.494-.038.159-.047.306-.13.428-.24a.89.89 0 00.23-.701v-.388z" fill="#fff"/><path d="M66.72 11.077c2.114 2.027 3.845 4.054 5.383 6.45-.961.184-1.923.552-3.076.736-1.73.553-3.461 1.29-5.576 2.027-.962.37-1.923.922-3.077 1.475-.961.552-2.115 1.105-3.269 1.658-1.922 1.474-4.23 2.764-6.152 4.607-.577.369-.962.921-1.538 1.29-.385.553-.962 1.106-1.346 1.474-.962 1.106-1.73 2.027-2.5 3.317-1.73 2.212-3.076 4.607-4.614 6.818l-2.308 3.317c-.769 1.106-1.538 2.212-2.5 3.133-1.73 2.027-3.653 3.686-5.575 5.16-2.115 1.29-4.038 2.764-6.153 3.685-.962.553-2.115.922-3.076 1.474-.962.553-1.923.737-2.885 1.106-1.922.737-3.653 1.474-5.191 1.843-1.538.368-3.076.737-4.23 1.105a36.11 36.11 0 01-3.269-4.238c.193 0 .385-.184.577-.184 1.73-.553 3.461-1.474 5.576-2.212.961-.368 2.115-.737 3.076-1.474.962-.552 2.115-1.105 3.27-1.842 2.306-1.106 4.23-2.765 6.536-4.423 2.115-1.843 4.23-3.685 5.96-6.081.962-1.106 1.731-2.211 2.5-3.501.77-1.106 1.539-2.396 2.308-3.502 1.538-2.395 2.692-4.79 4.23-6.818.769-1.105 1.538-2.211 2.307-3.132.385-.553.77-.922 1.154-1.475l1.346-1.29c1.73-1.842 3.653-3.132 5.576-4.606l2.884-1.659c.961-.553 1.922-1.106 2.884-1.474a70.31 70.31 0 005.191-2.211c1.538-.553 3.077-.922 4.23-1.29.193 0 .577-.185.77-.185.384.553.576.738.576.922zM4.806 41.482c.961-.553 1.923-.921 3.076-1.474 2.115-.921 4.038-2.396 6.153-3.686 1.923-1.658 3.845-3.132 5.576-5.16.961-.92 1.73-2.026 2.5-3.132l2.307-3.317c1.538-2.211 2.884-4.607 4.614-6.818.77-1.106 1.73-2.211 2.5-3.317.385-.553.961-1.106 1.346-1.474l1.538-1.474c1.923-2.027 4.23-3.317 6.153-4.607 1.154-.553 2.115-1.106 3.269-1.659a23.368 23.368 0 013.076-1.474c1.923-.737 3.653-1.29 5.191-1.843C46.723.205 41.146-.348 35.571.205c-.577.368-1.154.737-1.73.92C32.11 2.6 29.994 3.89 28.263 5.734l-1.346 1.29c-.384.553-.769.921-1.153 1.474-.77.921-1.538 2.027-2.308 3.133-1.538 2.21-2.691 4.606-4.23 6.818-.769 1.105-1.346 2.395-2.307 3.501-.769 1.106-1.538 2.396-2.5 3.317-2.114 2.396-4.23 4.238-6.152 6.081-2.307 1.474-4.23 3.317-6.538 4.423-.576.368-1.153.552-1.73.921 0 2.211 0 4.423.385 6.45.384-.185.96-.369 1.538-.553.961-.369 1.922-.553 2.884-1.106zm65.18-9.95c-.96.552-1.922 1.105-3.075 1.658-1.73 1.474-3.846 2.764-5.576 4.607l-1.346 1.29c-.385.552-.77.921-1.154 1.474-.77.921-1.538 2.027-2.307 3.133-1.539 2.21-2.884 4.606-4.23 6.818-.77 1.105-1.346 2.395-2.308 3.5-.769 1.106-1.538 2.396-2.5 3.318-1.73 2.211-3.845 4.054-5.767 5.897-2.308 1.474-4.23 3.317-6.538 4.422-1.153.553-2.115 1.106-3.268 1.659-.962.552-2.115.921-3.077 1.29l-4.038 1.658c3.27 1.29 6.922 2.027 10.383 2.396h.193c.96-.369 1.922-.553 2.884-1.106.961-.553 1.922-.921 3.076-1.474 2.115-.922 4.038-2.396 6.153-3.686 1.923-1.658 3.845-3.132 5.576-5.16.961-.92 1.73-2.026 2.5-3.132.768-1.106 1.538-2.211 2.307-3.317 1.538-2.211 2.884-4.607 4.614-6.818.77-1.106 1.73-2.212 2.5-3.317.384-.553.961-1.106 1.346-1.474.577-.553.961-.922 1.538-1.29 1.923-1.843 4.23-3.317 6.153-4.607 1.153-.553 2.115-1.106 3.268-1.659.385-.184.577-.368.962-.552 0-2.949-.385-5.897-1.154-8.661-1.346.552-2.692 1.105-4.23 1.658-.961.369-1.923 1.106-2.884 1.474zM10.96 23.054c.961-.922 1.73-2.027 2.5-3.133l2.306-3.317c1.539-2.211 2.885-4.607 4.615-6.818.77-1.106 1.73-2.211 2.5-3.317.384-.553.961-1.106 1.346-1.474.576-.553.961-.922 1.538-1.29.769-.737 1.73-1.474 2.5-2.212-6.153 1.659-11.922 4.792-16.729 9.583-5.96 5.712-9.613 12.899-10.96 20.27 1.731-.921 3.27-2.027 5-3.133 1.73-1.658 3.845-3.317 5.384-5.16zm58.836 22.85l-1.346 1.29c-.385.553-.77.921-1.154 1.474-.769.921-1.538 2.027-2.307 3.133-1.538 2.21-2.692 4.606-4.23 6.818-.77 1.105-1.346 2.395-2.307 3.501-.77 1.106-1.539 2.396-2.5 3.317-1.73 2.211-3.846 4.054-5.96 5.897-1.346.921-2.692 2.027-4.038 2.948 7.498-1.29 14.805-4.791 20.765-10.32 7.114-6.817 10.768-15.478 11.345-24.324-.962.553-1.731.922-2.692 1.475-1.73 1.658-3.846 2.948-5.576 4.79zm-5.384-23.772c-.961.369-1.923.922-2.884 1.475l-2.884 1.658c-1.73 1.474-3.846 2.764-5.576 4.607l-1.346 1.29c-.385.553-.77.921-1.154 1.474-.769.921-1.538 2.027-2.307 3.133-1.538 2.21-2.692 4.606-4.23 6.818-.77 1.105-1.346 2.395-2.307 3.501-.77 1.106-1.539 2.396-2.5 3.317-1.73 2.211-3.845 4.054-5.96 5.897-2.308 1.474-4.23 3.317-6.538 4.422-1.153.553-2.115 1.106-3.268 1.659-.962.553-2.115.921-3.077 1.29-2.115.737-3.845 1.658-5.576 2.211l-1.73.553c1.73 1.474 3.653 2.764 5.576 4.054.961-.184 1.922-.553 3.076-.921 1.538-.553 3.269-1.106 5.191-1.843.962-.369 1.923-.553 2.885-1.106.96-.553 1.922-.921 3.076-1.474 2.115-.921 4.038-2.396 6.153-3.685 1.923-1.659 3.845-3.133 5.576-5.16.961-.922 1.73-2.027 2.5-3.133l2.307-3.317c1.538-2.211 2.884-4.607 4.614-6.818.77-1.106 1.73-2.211 2.5-3.317.384-.553.961-1.106 1.346-1.474.577-.553.961-.922 1.538-1.29 1.923-2.027 4.23-3.317 6.153-4.607 1.153-.553 2.115-1.106 3.268-1.658.962-.553 1.923-1.106 3.077-1.475a61.47 61.47 0 004.614-1.658A29.806 29.806 0 0073.065 19c-.962.368-2.116.552-3.462 1.105-1.538.553-3.268 1.29-5.191 2.027zm-54.221 28.38c.96-.369 1.922-.553 2.884-1.106.961-.553 1.922-.921 3.076-1.474 2.115-.922 4.038-2.396 6.153-3.686 1.923-1.658 3.845-3.132 5.576-5.16.961-.92 1.73-2.026 2.5-2.948l2.307-3.317c1.538-2.211 2.884-4.607 4.614-6.818.77-1.106 1.73-2.211 2.692-3.317.385-.553.962-1.106 1.346-1.474.577-.553.961-.921 1.538-1.29 1.923-1.843 4.23-3.317 6.345-4.607 1.154-.553 2.115-1.106 3.269-1.658.961-.553 2.115-1.106 3.076-1.29 2.115-.737 3.846-1.29 5.576-2.027 1.538-.369 2.884-.737 4.038-.922-2.884-2.395-5.96-4.238-9.23-5.712-1.345 0-2.114.184-2.883.368-1.538.553-3.269 1.29-5.192 2.027-.961.369-1.922.922-2.884 1.475l-2.884 1.658c-1.73 1.474-3.845 2.58-5.576 4.423l-1.346 1.29c-.577.552-.961 1.105-1.346 1.658-.769.921-1.538 2.027-2.307 3.133-1.538 2.211-2.692 4.607-4.23 6.818-.77 1.105-1.346 2.395-2.307 3.501-.77 1.106-1.538 2.396-2.5 3.317-1.73 2.211-3.845 4.054-5.96 5.897-2.308 1.474-4.23 3.317-6.538 4.422-1.153.553-2.115 1.106-3.268 1.659-.962.737-1.923 1.106-3.077 1.474-.769.369-1.538.553-2.307.922.577 1.658 1.154 3.317 1.923 4.975.576-.184 1.153-.369 1.73-.369 1.73-.552 3.269-1.29 5.192-1.842z" fill="url(#paint0_linear)"/><path opacity=".39" d="M20.765 6.101c1.539-.737 3.077-1.474 4.615-2.027-.384.369-.769.738-1.153.922-.385.553-.962 1.105-1.346 1.474a2.558 2.558 0 00-.577.737c-.192.184-.577.184-.962.184-.961.369-1.538-.921-.576-1.29zM49.03 2.97c-1.923-.553-4.038-.922-6.153-1.106-3.653-.368-7.306-.184-10.767.369-1.346 1.105-2.884 2.027-4.038 3.5l-.192.185c2.692-.368 5.383-.737 8.075-.737 2.308 0 4.615.184 6.73.553l1.154-.553a23.368 23.368 0 013.076-1.474c.577 0 1.346-.369 2.115-.737zm21.535 28.378c.769 2.764 1.153 5.713 1.153 8.661v.921l2.308-1.658c.769-.369 1.73-.921 2.5-1.29 0-1.29 0-2.764-.193-4.054-.192-1.658-.577-3.133-.962-4.791-.769.368-1.73.737-2.499 1.105-.77.185-1.538.553-2.307 1.106zM62.297 9.603c-2.884-2.212-6.153-4.054-9.614-5.529-1.538.553-3.076 1.29-4.999 2.027-.385.185-.961.369-1.346.553 3.653 1.106 6.922 2.764 9.998 4.791 1.538-.552 3.077-1.105 4.23-1.474.77 0 1.154-.184 1.73-.368zm12.498 17.506c-.962-2.764-2.115-5.16-3.461-7.556-.577.185-.962.37-1.538.553-1.154.369-2.308.922-3.654 1.475 1.538 2.395 2.885 4.975 3.846 7.555.769-.369 1.346-.737 2.115-.921.769-.37 1.73-.738 2.692-1.106zm-4.615-9.214c-1.73-2.396-3.653-4.791-5.96-6.634-.77.184-1.73.553-2.884.921-.962.37-1.923.738-2.885 1.106 2.308 1.843 4.423 4.054 6.345 6.45 1.539-.553 2.884-1.106 4.23-1.474.385-.185.77-.369 1.154-.369zm1.346 26.351c-.192 3.317-.577 6.45-1.346 9.214-.384 1.29 1.538 2.027 2.115.737 2.115-4.054 3.461-8.66 3.846-13.452-.385.184-.577.369-.962.553-.961.921-2.307 1.843-3.653 2.948z" fill="#fff"/><path opacity=".75" d="M75.18 27.109c-.577.184-1.347.552-1.923.737-.962-2.764-2.308-5.16-3.846-7.556 0 0 .192 0 .192-.184.77-.184 1.539-.368 2.116-.553 1.538 2.212 2.691 4.791 3.46 7.556zM64.797 11.077c-.77.184-1.73.553-2.884.921a52.843 52.843 0 016.345 6.634c.192 0 .576-.184.769-.369.576-.184 1.153-.368 1.73-.368-1.73-2.58-3.653-4.976-5.96-6.818zm10.96 17.874c-.578.185-1.347.553-1.924.737.77 2.765 1.347 5.713 1.347 8.846.576-.185.96-.553 1.538-.737v-.369c.192-2.948-.193-5.712-.962-8.477zm-.385 12.347c0 1.105-.192 2.395-.385 3.501 0 .737.962.737 1.154.184.384-1.474.577-2.948.769-4.422-.577.184-.961.553-1.538.737zM32.495 1.863c-.577.368-1.154.921-1.923 1.29 1.923-.369 4.037-.369 5.96-.369 3.269 0 6.538.369 9.806 1.106h.193a54.717 54.717 0 003.076-1.106c-3.461-.921-6.922-1.474-10.575-1.474-2.115 0-4.422.184-6.537.553zm20.957 2.211c-.192 0-.192 0-.384.184-.77.369-1.73.738-2.692 1.106 3.461 1.29 6.73 2.949 9.614 5.16.192 0 .384-.184.577-.184.769-.185 1.73-.369 2.307-.553-2.692-2.58-5.96-4.423-9.422-5.713z" fill="#fff"/></g><defs><linearGradient id="paint0_linear" x1="78.531" y1="37.597" x2=".295" y2="37.597" gradientUnits="userSpaceOnUse"><stop stop-color="#E54E26"/><stop offset="0" stop-color="#E54E26"/><stop offset="1" stop-color="#F9A980"/></linearGradient><clipPath id="clip0"><path fill="#fff" d="M0 0h234v75H0z"/></clipPath></defs></svg>