<svg width="46" height="42" fill="none" xmlns="http://www.w3.org/2000/svg"><path clip-rule="evenodd" d="M20.13 10.524c0 5.26-4.283 9.524-9.565 9.524C5.281 20.048 1 15.785 1 10.524 1 5.263 5.281 1 10.565 1c5.282 0 9.565 4.263 9.565 9.524z" stroke="#242426" stroke-width="2" stroke-linejoin="round"/><path d="M14.392 12.428h-3.827V5.762m21.043 18.095h8.61L45 31.476v5.714h-4.95" stroke="#242426" stroke-width="2" stroke-linecap="round" stroke-linejoin="round"/><path d="M20.92 37.19h10.71l-.02-19.047h-9.566m-11.479 5.714V37.19h4.95" stroke="#242426" stroke-width="2" stroke-linecap="round" stroke-linejoin="round"/><path clip-rule="evenodd" d="M40.218 38.143A2.863 2.863 0 0137.348 41a2.864 2.864 0 01-2.87-2.857 2.863 2.863 0 012.87-2.857 2.862 2.862 0 012.87 2.857zm-19.131 0A2.863 2.863 0 0118.217 41a2.864 2.864 0 01-2.87-2.857 2.863 2.863 0 012.87-2.857 2.862 2.862 0 012.87 2.857z" stroke="#242426" stroke-width="2" stroke-linecap="round" stroke-linejoin="round"/><path d="M1 27.666l5.74.01m-2.87 3.8l2.869.01m-.957 3.8l.957.01M45 31.476H31.608m.021 5.714h3.026" stroke="#242426" stroke-width="2" stroke-linecap="round" stroke-linejoin="round"/></svg>