<svg width="46" height="42" fill="none" xmlns="http://www.w3.org/2000/svg"><path d="M14.391 41H4.826C2.714 41 1 39.442 1 37.522V4.478C1 2.558 2.714 1 4.826 1h19.13c2.113 0 3.827 1.558 3.827 3.478V20.13m0-12.173H1m13.391 26.087H1m9.565-29.565h7.653" stroke="#242426" stroke-width="2" stroke-linecap="round" stroke-linejoin="round"/><path d="M14.391 38.392c-.528 0-.956-.39-.956-.87s.428-.87.956-.87m3.827-7.826H45m-15.305 3.478h-7.652m19.131 0h-3.826M25.87 35.783h-3.827" stroke="#242426" stroke-width="2" stroke-linecap="round" stroke-linejoin="round"/><path clip-rule="evenodd" d="M45 37.522C45 39.442 43.286 41 41.174 41h-19.13c-2.112 0-3.826-1.558-3.826-3.478V27.087c0-1.92 1.714-3.478 3.826-3.478h19.13c2.112 0 3.826 1.558 3.826 3.478v10.435z" stroke="#242426" stroke-width="2" stroke-linecap="round" stroke-linejoin="round"/><path d="M11.73 22.046c0 1.336 1.192 2.42 2.662 2.42 1.467 0 2.659-1.084 2.659-2.42 0-1.335-1.192-2.422-2.66-2.422-1.469 0-2.66-1.08-2.66-2.418 0-1.335 1.191-2.419 2.66-2.419 1.468 0 2.66 1.084 2.66 2.42m-2.659 7.258v1.61m0-12.901v1.614" stroke="#242426" stroke-width="2" stroke-linecap="round" stroke-linejoin="round"/></svg>