<svg width="42" height="30" fill="none" xmlns="http://www.w3.org/2000/svg"><path clip-rule="evenodd" d="M41 20.6c-2.882 0-5.217-2.507-5.217-5.6 0-3.091 2.335-5.6 5.217-5.6V1H1v8.4c2.88 0 5.217 2.509 5.217 5.6 0 3.093-2.337 5.6-5.217 5.6V29h40v-8.4z" stroke="#242426" stroke-width="2" stroke-linecap="round" stroke-linejoin="round"/><path fill-rule="evenodd" clip-rule="evenodd" d="M31.435 5.666h1.739V3.8h-1.74v1.866zm0 3.734h1.739V7.533h-1.74V9.4zm0 3.733h1.739v-1.866h-1.74v1.866zm0 5.6h1.739v-1.866h-1.74v1.866zm0 3.734h1.739V20.6h-1.74v1.867zm0 3.733h1.739v-1.866h-1.74V26.2z" fill="#242426"/><path d="M12.305 22.466L26.218 7.534" stroke="#242426" stroke-width="2" stroke-linecap="round" stroke-linejoin="round"/><path clip-rule="evenodd" d="M16.652 9.4c0 1.548-1.169 2.8-2.609 2.8s-2.608-1.252-2.608-2.8c0-1.546 1.168-2.8 2.608-2.8 1.44 0 2.609 1.255 2.609 2.8zm10.435 11.2c0 1.547-1.17 2.8-2.61 2.8s-2.608-1.253-2.608-2.8c0-1.546 1.169-2.8 2.609-2.8s2.608 1.254 2.608 2.8z" stroke="#242426" stroke-width="2" stroke-linecap="round" stroke-linejoin="round"/></svg>