<svg width="240" height="240" fill="none" xmlns="http://www.w3.org/2000/svg"><path fill-rule="evenodd" clip-rule="evenodd" d="M221.975 235.101l14.13.964c7.662.684 2.275 1.722-1.369 2.117-28.135 3.047-131.129 1.511-155.288.758l-15.716-.964c-12.06-1.21 5.19-2.242 7.15-2.406 11.16-.109 67.977-1.697 151.093-.469zM46.373 218.918c.943 0 1.707.761 1.707 1.7s-.764 1.7-1.707 1.7H1.708a1.704 1.704 0 01-1.708-1.7c0-.939.765-1.7 1.708-1.7h44.665zm2.513 8.301c.943 0 1.707.761 1.707 1.7s-.764 1.7-1.707 1.7h-16.45a1.704 1.704 0 01-1.707-1.7c0-.939.765-1.7 1.708-1.7h16.449zm-23.303-18.08c.943 0 1.708.761 1.708 1.7 0 .938-.765 1.7-1.708 1.7H9.133a1.705 1.705 0 01-1.707-1.7c0-.939.764-1.7 1.708-1.7h16.449zm188.735 5.245a2.726 2.726 0 01-2.018 3.292 2.74 2.74 0 01-3.307-2.009l-22.964-94.34a2.726 2.726 0 011.88-3.255l-.001-.004 10.407-3.087a5.163 5.163 0 001.14 5.363l-7.488 2.221 22.351 91.819z" fill="#242426"/><path fill-rule="evenodd" clip-rule="evenodd" d="M194.28 218.683a1.57 1.57 0 01-3.092-.537c.964-5.391 3.828-10.128 7.876-13.499a22.92 22.92 0 0114.71-5.315c2.38 0 4.682.364 6.85 1.039a22.93 22.93 0 016.224 3.031c.712.493.887 1.467.393 2.175a1.574 1.574 0 01-2.184.391 19.782 19.782 0 00-5.365-2.617 19.911 19.911 0 00-5.918-.892 19.776 19.776 0 00-12.697 4.582c-3.494 2.909-5.966 6.995-6.797 11.642zm8.946-96.732a5.217 5.217 0 01-3.692-1.522v-.006a5.169 5.169 0 010-7.345h.005a5.217 5.217 0 013.687-1.523c1.441 0 2.747.583 3.692 1.523a5.172 5.172 0 010 7.345v.006a5.22 5.22 0 01-3.692 1.522zm-1.475-3.73c.379.371.9.603 1.475.603a2.08 2.08 0 001.471-.606c.377-.371.609-.89.609-1.465 0-.572-.233-1.091-.609-1.465a2.081 2.081 0 00-1.471-.606c-.578 0-1.099.231-1.475.604a2.08 2.08 0 000 2.935z" fill="#242426"/><path fill-rule="evenodd" clip-rule="evenodd" d="M201.751 118.221a2.099 2.099 0 002.946-.002 2.05 2.05 0 00.608-1.465c0-.573-.233-1.091-.608-1.465a2.082 2.082 0 00-1.472-.606c-.577 0-1.098.23-1.474.603a2.082 2.082 0 000 2.935z" fill="#5ED7EA"/><path fill-rule="evenodd" clip-rule="evenodd" d="M217.092 205.238a16.804 16.804 0 017.895 4.426 16.639 16.639 0 014.922 11.828c0 4.618-1.881 8.8-4.922 11.828a16.793 16.793 0 01-11.882 4.9 16.793 16.793 0 01-11.882-4.9 16.64 16.64 0 01-4.922-11.828c0-4.618 1.881-8.801 4.922-11.828.291-.291.593-.57.906-.838l1.851 7.444a10.395 10.395 0 00-1.397 5.222c0 2.893 1.177 5.512 3.081 7.407a10.514 10.514 0 007.441 3.067c2.906 0 5.538-1.172 7.441-3.067a10.421 10.421 0 003.081-7.407 10.42 10.42 0 00-3.081-7.407 10.57 10.57 0 00-1.575-1.291l-1.879-7.556zM90.391 228.742a16.736 16.736 0 01-6.338 6.446 16.813 16.813 0 01-12.75 1.672 16.745 16.745 0 01-10.204-7.794 16.614 16.614 0 01-1.679-12.694 16.69 16.69 0 017.83-10.157 16.819 16.819 0 0112.751-1.671 16.74 16.74 0 0110.782 8.882l-7.703-.146a10.497 10.497 0 00-4.705-2.696 10.536 10.536 0 00-7.985 1.046 10.45 10.45 0 00-4.902 6.361 10.406 10.406 0 001.05 7.949 10.489 10.489 0 006.39 4.88 10.54 10.54 0 009.645-2.226l7.818.148z" fill="#242426"/><path fill-rule="evenodd" clip-rule="evenodd" d="M197.612 184.512l-2.518-10.191c-.826-3.346 2.112-4.029 5.473-4.851 3.36-.823 5.931-1.357 6.698 1.871l11.959 48.074c.826 3.345-1.228 6.725-4.589 7.548-3.36.822-6.756-1.223-7.582-4.568l-5.963-23.974-28.332 27.185a6.257 6.257 0 01-4.343 1.741v.018H75.129c-3.47 0-6.282-2.8-6.282-6.254 0-3.453 2.813-6.253 6.282-6.253h18.88a19.6 19.6 0 00-2.763-5.018 19.777 19.777 0 00-4.296-4.148 19.792 19.792 0 00-13.01-3.612c-4.542.349-8.938 2.246-12.326 5.548a1.573 1.573 0 01-2.219-.016 1.557 1.557 0 01.016-2.209c3.93-3.831 9.026-6.032 14.288-6.435a22.93 22.93 0 0115.075 4.179 22.855 22.855 0 014.97 4.806c2.759 3.383 5.942 5.603 9.012 6.905h63.149l29.102-27.925a94.349 94.349 0 012.605-2.421z" fill="#62CBF5"/><path fill-rule="evenodd" clip-rule="evenodd" d="M200.687 176.667l-.001-.002a1.596 1.596 0 011.2-1.9l.016-.004a1.608 1.608 0 011.911 1.196l.707 2.99a1.594 1.594 0 01-1.198 1.916h-.003a1.603 1.603 0 01-1.919-1.186c-.279-.956-.463-2.032-.713-3.01zm7.133 29.312a1.591 1.591 0 011.178-1.923 1.606 1.606 0 011.211.189c.349.212.617.557.72.985l3.711 15.126a1.593 1.593 0 01-1.171 1.919l-.009.003a1.6 1.6 0 01-1.929-1.172l-3.711-15.127zM74.056 222.637a1.6 1.6 0 01-1.613-1.578 1.586 1.586 0 01.458-1.13 1.6 1.6 0 011.128-.476l15.639-.174a1.6 1.6 0 011.135.456 1.585 1.585 0 01.02 2.252 1.6 1.6 0 01-1.127.476l-15.64.174z" fill="#00869C"/><path fill-rule="evenodd" clip-rule="evenodd" d="M204.866 60.734C169.771 20.412 110.856 33.78 93.107 90.01c15.382 14.437 82.277 29.413 111.759-29.275z" fill="#fff"/><path fill-rule="evenodd" clip-rule="evenodd" d="M204.866 60.734c-19.709 25.535-40.311 45.097-107.31 17.804a93.921 93.921 0 00-4.449 11.47c15.382 14.439 82.277 29.414 111.759-29.274z" fill="#C8D5DD"/><path fill-rule="evenodd" clip-rule="evenodd" d="M202.827 60.993C194.2 51.367 184.168 45 173.713 41.73c-9.588-3-19.541-3.397-29.097-1.32-9.568 2.08-18.741 6.64-26.756 13.554-10.668 9.201-18.481 22.368-22.792 35.514 1.754 1.475 4.075 2.95 6.859 4.336 7.182 3.576 17.317 6.51 28.64 7.327a85.903 85.903 0 0012.358.009c16.1-1.162 33.193-7.148 46.889-21.608 4.817-5.086 9.218-11.216 13.013-18.55zm-90.044 117.103c-22.557 7.522-39.334 6.165-51.23-.324-8.167-4.456-14.003-11.316-17.813-19.386-3.769-7.983-5.541-17.149-5.617-26.32-.152-18.522 6.644-37.17 17.906-46.24a1.713 1.713 0 012.401.252c.288.354.41.788.374 1.21.023 5.12.932 10.984 2.601 17.023 2.974 10.76 8.346 22.016 15.405 30.567 6.911 8.373 15.417 14.115 24.793 14.102a23.896 23.896 0 006.312-.871c.312-.084.627-.077.917.006 2.563-8.44 7.143-16.642 11.029-23.601 2.225-3.983 4.214-7.544 5.402-10.408v-.007l.13-.309.049-.106c.135-.317.318-.754.532-1.286l.362-1.36c.3-1.125.535-2.002.637-2.531.093-.483.382-.878.77-1.12.289-.968.558-1.986.777-3.013-11.073-1.026-20.975-3.977-28.114-7.532-3.504-1.744-6.367-3.643-8.409-5.544a1.693 1.693 0 01-.518-1.794 99.11 99.11 0 011.408-4.14L38.079 25.92a1.691 1.691 0 01.1-2.397c.33-.303.748-.451 1.164-.448 14.443-.58 30.18 1.005 45.382 4.43 15.013 3.383 29.525 8.566 41.778 15.237.678.367.995.45.995.45a63.833 63.833 0 015.542-2.66c-2.215-4.313-5.382-9.362-9.378-15.731-3.791-6.044-8.324-13.27-13.54-22.255a1.694 1.694 0 01.62-2.318 1.709 1.709 0 011.294-.17c23.758 4.805 41.657 11.863 55.199 21.417 9.595 6.77 16.994 14.778 22.727 24.111 5.751 3.644 11.208 8.314 16.191 14.039.435.503.55 1.236.234 1.866-4.073 8.106-8.845 14.836-14.092 20.375-5.263 5.557-10.999 9.92-16.984 13.279.235 1.032.459 2.055.673 3.07l.006.024c1.8 7.028 3.347 12.528 5.939 16.447 1.739 2.629 4.01 4.608 7.258 5.962 5.912-1.647 10.364-1.878 11.961 1.619.03.07.057.143.079.219 1.144 3.837-.922 7.821-5.02 11.596-4.145 3.818-10.47 7.518-17.561 10.619-2.433 17.321-9.234 29.389-17.73 36.779-2.982 2.594-6.173 4.613-9.459 6.083a1.705 1.705 0 01-.16.372c-2.054 3.54-3.843 8.613-4.965 13.607-1.09 4.852-1.546 9.569-.991 12.641.173.956.286 2.023-.361 3.05l-.003.005.003.002c-.636 1.008-1.839 1.687-4.116 1.59-3.497-.147-6.095-2.208-7.911-5.571-.746-1.382-1.357-2.995-1.843-4.788-.478 3.259-.588 6.228-.199 8.384.173.958.287 2.035-.354 3.056-.638 1.018-1.848 1.7-4.135 1.591a7.89 7.89 0 01-1.529-.221c-4.262-1.063-6.79-5.528-8.137-11.273-1.246-5.312-1.515-11.809-1.237-17.526.188-3.867.627-7.395 1.184-9.971a30.306 30.306 0 01-3.92-4.415zm-4.889-26.485c-2.13.51-4.23.754-6.291.756-10.523.014-19.905-6.231-27.421-15.337-7.369-8.927-12.967-20.645-16.059-31.829-1.372-4.967-2.254-9.84-2.58-14.332-8.89 9.091-14.15 25.14-14.018 41.17.072 8.708 1.744 17.386 5.297 24.913 3.512 7.439 8.877 13.756 16.372 17.844 10.966 5.982 26.557 7.229 47.683.348a33.18 33.18 0 01-1.945-4.034l-.029-.078c-2.607-6.223-2.524-12.852-1.009-19.421zm25.274 47.858l.003.041c.312 4.939 1.204 9.216 2.784 12.142 1.241 2.298 2.906 3.701 5.043 3.792.8.033 1.08.022 1.1-.01a8.96 8.96 0 00-.106-.653c-.636-3.524-.162-8.722 1.017-13.97.906-4.031 2.231-8.129 3.787-11.544a34.1 34.1 0 01-3.852.868 32.887 32.887 0 01-6.055.431c-1.404 2.407-2.688 5.55-3.721 8.903zm-13.461-14.518c-.365 2.171-.647 4.826-.786 7.691-.264 5.441-.014 11.601 1.157 16.596 1.07 4.562 2.857 8.055 5.643 8.749.282.07.569.114.861.128.788.038 1.062.031 1.079.003.015-.024-.041-.349-.098-.666-.663-3.669-.125-9.145 1.157-14.602 1.057-4.498 2.63-9.039 4.457-12.583a30.896 30.896 0 01-8.269-2.356 30.12 30.12 0 01-5.201-2.96zm40.827-83.561c-.574 2.322-1.199 4.637-1.857 7.077-1.785 6.615-3.811 14.124-4.909 21.483 6.444.341 14.684-2.233 22.33-4.896-.189-4.448-.622-9.168-1.329-14.168a178.804 178.804 0 00-2.08-11.78l-.008-.03a198.844 198.844 0 00-.491-2.28 73.343 73.343 0 01-11.656 4.594zm-10.133 28.057c1.132-7.594 3.178-15.176 4.981-21.856.49-1.817.963-3.57 1.38-5.175a82.011 82.011 0 01-13.597 2.121 88.584 88.584 0 01-11.215.089c-.685 3.406-1.892 6.716-2.723 8.796-2.517 9.613-7.292 30.99 8.917 35.611 3.916 1.116 9.743.873 16.261-.321 7.198-1.318 15.166-3.788 22.34-6.878 6.987-3.009 13.194-6.589 17.153-10.236 3.08-2.836 4.722-5.618 4.099-8.017-1.47-2.697-14.71 2.538-17.366 3.478-11.328 4.011-24.772 8.77-33.491 4.83a2.898 2.898 0 01-.896-.638c-.664-.69-1.078-1.786-1.149-3.001a7.35 7.35 0 01.644-3.415 6.716 6.716 0 011.469-2.079 1.71 1.71 0 012.408.046 1.692 1.692 0 01-.046 2.398 3.317 3.317 0 00-.722 1.029 3.95 3.95 0 00-.35 1.835c.021.364.078.642.16.781.554.242 1.136.441 1.743.602zm4.427 22.634l.131.349c.229.594.473 1.163.731 1.705l.003-.001c1.272 2.66 2.726 5.54 4.858 7.73 1.951 2.003 4.546 3.505 8.249 3.849 2.771-5.4 4.917-11.872 6.17-19.483-6.553 2.587-13.547 4.643-19.951 5.816l-.191.035zm12.191 16.818c-3.874-.658-6.71-2.412-8.909-4.671-2.515-2.582-4.113-5.734-5.499-8.633l.003-.001-.003-.005a27.368 27.368 0 01-1.209-2.968c-5.564.744-10.536.721-14.192-.321-13.414-3.824-14.972-16.404-13.749-27.258l-.624 1.119c-7.093 12.699-16.61 29.74-10.78 43.602l.037.085c2.871 7.141 8.028 12.226 14.201 14.968 4.923 2.188 10.504 2.893 16.102 1.972 5.623-.926 11.264-3.496 16.277-7.858 3.064-2.665 5.893-5.997 8.345-10.031zm17.575-46.817c-2.252-1.459-4.028-3.301-5.506-5.537-.079-.119-.157-.24-.234-.361.275 2.636.472 5.199.597 7.691l.046-.017c1.754-.621 3.46-1.225 5.097-1.776zm-83.493-53.627l-19.234-23.58a1.69 1.69 0 01.247-2.384 1.7 1.7 0 011.163-.377c5.505.113 11.422 1.056 17.098 2.67 5.527 1.571 10.858 3.787 15.39 6.502a67.72 67.72 0 018.219-6.049c-11.783-6.287-25.651-11.19-40.006-14.424-13.653-3.077-27.732-4.64-40.864-4.45l51.14 55.467c1.979-4.822 4.278-9.283 6.847-13.375zm12.021-14.78c-4.068-2.32-8.782-4.232-13.681-5.624-4.15-1.18-8.414-1.985-12.51-2.345L103.06 65.48c3.048-4.412 6.425-8.351 10.062-11.806zm31.991-16.836c-.352-.957-.767-2.044-1.265-3.297-1.106-2.783-2.57-6.244-4.573-10.62a1.691 1.691 0 01.841-2.245 1.704 1.704 0 011.243-.067c5.995 1.824 11.929 4.85 17.037 8.945a44.742 44.742 0 016.832 6.775 60.936 60.936 0 019.499 2.16 63.383 63.383 0 018.684 3.445c-4.901-6.672-10.866-12.559-18.15-17.697-12.462-8.791-28.799-15.423-50.262-20.097 4.362 7.395 8.244 13.582 11.559 18.866 4.135 6.593 7.395 11.79 9.675 16.28a61.37 61.37 0 018.88-2.448zm16.125-.95l-.449-.032.449.032zm-.994-.067a42.644 42.644 0 00-3.982-3.623c-3.736-2.996-7.94-5.376-12.27-7.084a202.318 202.318 0 013.031 7.178 130.21 130.21 0 011.509 3.977 59.919 59.919 0 0111.712-.448z" fill="#242426"/><path fill-rule="evenodd" clip-rule="evenodd" d="M160.533 101.39c-.574 2.322-1.199 4.637-1.857 7.077-1.785 6.615-3.811 14.124-4.909 21.483 6.444.341 14.684-2.233 22.33-4.895-.188-4.449-.622-9.169-1.329-14.168a178.7 178.7 0 00-2.08-11.781l-.008-.03a198.844 198.844 0 00-.491-2.28 73.342 73.342 0 01-11.656 4.594zm-5.706 50.691l.132.349c.228.594.472 1.164.731 1.705l.002-.001c1.272 2.66 2.726 5.54 4.858 7.73 1.951 2.003 4.546 3.505 8.249 3.849 2.771-5.4 4.917-11.872 6.17-19.483-6.553 2.587-13.546 4.644-19.951 5.816l-.191.035zm-41.706-98.407c-4.067-2.319-8.782-4.23-13.68-5.623-4.151-1.18-8.415-1.984-12.511-2.345l16.129 19.774c3.048-4.412 6.426-8.351 10.062-11.806zm48.116-17.784c-.15-.012-.299-.023-.449-.033l.449.033zm-.994-.068a42.66 42.66 0 00-3.982-3.623c-3.736-2.996-7.94-5.376-12.27-7.084a202.391 202.391 0 013.031 7.179c.6 1.508 1.093 2.822 1.509 3.976a59.911 59.911 0 0111.712-.448z" fill="#fff"/><path fill-rule="evenodd" clip-rule="evenodd" d="M160.534 101.391c-.574 2.321-1.199 4.636-1.857 7.076-1.785 6.616-3.811 14.124-4.909 21.483 2.581.137 5.452-.195 8.456-.812.617-3.556 2.332-19.874 4.233-29.794a75.12 75.12 0 01-5.923 2.047zm-5.706 50.69l.131.349c.229.594.473 1.164.731 1.705l.003-.001c1.272 2.66 2.726 5.54 4.858 7.73 1.95 2.003 4.546 3.505 8.249 3.849a56.428 56.428 0 002.455-5.504c-3.61-1.686-6.817-5.427-7.943-10.078a97.3 97.3 0 01-8.293 1.915l-.191.035z" fill="#C8D5DD"/><path fill-rule="evenodd" clip-rule="evenodd" d="M202.827 60.993c-3.784-4.223-7.838-7.817-12.08-10.8-5.429-3.815-11.164-6.627-17.033-8.463-9.588-2.999-19.542-3.396-29.098-1.32-9.567 2.08-18.74 6.64-26.755 13.554-10.668 9.201-18.482 22.368-22.792 35.514 50.212-25.106 79.195-36.101 107.758-28.485zm-94.932 90.618c-2.131.51-4.23.754-6.292.756-10.522.014-19.904-6.231-27.42-15.337-7.37-8.927-12.968-20.645-16.06-31.829-1.372-4.967-2.253-9.84-2.58-14.332-8.89 9.091-14.15 25.14-14.017 41.17.072 8.708 1.743 17.386 5.296 24.913 3.512 7.439 8.878 13.756 16.373 17.844 10.965 5.982 26.557 7.229 47.683.348a33.11 33.11 0 01-1.945-4.034l-.03-.078c-2.606-6.223-2.523-12.852-1.008-19.421zm25.273 47.858l.004.041c.311 4.939 1.204 9.216 2.784 12.142 1.241 2.298 2.906 3.701 5.043 3.792.8.033 1.08.022 1.1-.01a8.96 8.96 0 00-.106-.653c-.637-3.524-.162-8.722 1.017-13.97.906-4.031 2.231-8.129 3.787-11.544-1.28.367-2.567.656-3.853.868a32.88 32.88 0 01-6.055.431c-1.403 2.407-2.687 5.55-3.721 8.903zm-13.46-14.518c-.365 2.171-.647 4.826-.786 7.691-.265 5.441-.015 11.602 1.156 16.596 1.07 4.563 2.858 8.055 5.643 8.749.282.071.57.114.861.128.789.038 1.062.031 1.08.003.015-.024-.042-.349-.099-.666-.663-3.669-.125-9.145 1.158-14.602 1.057-4.498 2.629-9.039 4.456-12.583a30.931 30.931 0 01-8.269-2.355 30.144 30.144 0 01-5.2-2.961zm30.694-55.504c1.131-7.594 3.177-15.176 4.98-21.856.49-1.817.963-3.57 1.381-5.175a82.039 82.039 0 01-13.598 2.121 88.583 88.583 0 01-11.215.089c-.685 3.406-1.891 6.716-2.722 8.797-2.518 9.612-7.293 30.989 8.916 35.61 3.916 1.116 9.744.873 16.262-.321 7.198-1.318 15.166-3.788 22.34-6.878 6.987-3.009 13.194-6.588 17.153-10.235 3.08-2.837 4.721-5.619 4.098-8.018-1.47-2.697-14.709 2.538-17.365 3.478-11.329 4.011-24.772 8.77-33.492 4.83a2.877 2.877 0 01-.895-.638c-.665-.69-1.078-1.785-1.149-3.001a7.35 7.35 0 01.643-3.415 6.72 6.72 0 011.47-2.079 1.71 1.71 0 012.408.046 1.69 1.69 0 01-.047 2.398c-.312.298-.55.653-.722 1.029a3.95 3.95 0 00-.35 1.835c.021.364.079.643.161.781.553.242 1.135.441 1.743.602zM167.02 168.9c-3.874-.659-6.71-2.413-8.91-4.672-2.514-2.582-4.112-5.734-5.498-8.632l.003-.002-.003-.005a26.935 26.935 0 01-1.209-2.968c-5.565.744-10.537.721-14.193-.321-13.414-3.824-14.972-16.404-13.748-27.258l-.625 1.119c-7.092 12.699-16.609 29.74-10.78 43.602l.038.086c2.871 7.14 8.027 12.225 14.201 14.968 4.923 2.187 10.504 2.892 16.101 1.971 5.623-.926 11.264-3.496 16.278-7.858 3.063-2.665 5.893-5.997 8.345-10.03zm17.575-46.818c-2.253-1.459-4.029-3.301-5.507-5.537-.079-.119-.157-.24-.234-.361.275 2.636.473 5.199.597 7.691l.046-.017c1.755-.621 3.461-1.225 5.098-1.776zm-83.494-53.627l-19.233-23.58a1.69 1.69 0 01.247-2.384 1.7 1.7 0 011.163-.377c5.504.113 11.422 1.056 17.097 2.67 5.528 1.571 10.858 3.787 15.391 6.502a67.576 67.576 0 018.219-6.049c-11.783-6.287-25.651-11.19-40.006-14.424-13.654-3.077-27.733-4.64-40.864-4.45l51.14 55.467c1.978-4.822 4.277-9.282 6.846-13.375zm44.013-31.616c-.353-.957-.767-2.044-1.265-3.297-1.106-2.783-2.57-6.244-4.573-10.62a1.69 1.69 0 01.84-2.245c.407-.185.85-.197 1.244-.067 5.994 1.824 11.928 4.85 17.037 8.945a44.735 44.735 0 016.831 6.775 60.96 60.96 0 019.5 2.16 63.422 63.422 0 018.683 3.446c-4.9-6.673-10.866-12.56-18.15-17.698C152.8 15.447 136.463 8.815 114.999 4.14c4.363 7.395 8.244 13.582 11.559 18.866 4.136 6.593 7.396 11.79 9.675 16.28a61.384 61.384 0 018.881-2.448z" fill="#FFC830"/><path fill-rule="evenodd" clip-rule="evenodd" d="M162.694 39.434a56.605 56.605 0 00-18.079.977c-9.567 2.08-18.741 6.64-26.756 13.553 6.542.111 35.362-7.428 44.835-14.53zm12.033-.944a63.422 63.422 0 018.683 3.446c-4.9-6.673-10.866-12.56-18.15-17.698-12.461-8.791-28.798-15.423-50.262-20.097 25.807 11.429 41.191 15.337 59.729 34.348z" fill="#FFE08A"/><path fill-rule="evenodd" clip-rule="evenodd" d="M184.594 122.082c-2.253-1.459-4.028-3.301-5.507-5.537-.079-.119-.156-.24-.233-.361.274 2.635.472 5.199.597 7.69l.046-.016c1.754-.621 3.46-1.225 5.097-1.776zm-55.373 25.864c-6.031-5.661-6.677-14.767-5.76-22.904l-.624 1.119c-7.093 12.699-16.61 29.74-10.78 43.602l.037.086c2.242-11.719 13.272-19.139 17.127-21.903z" fill="#BF9026"/><path fill-rule="evenodd" clip-rule="evenodd" d="M107.895 151.611c-2.131.51-4.23.754-6.292.756-10.522.014-19.904-6.231-27.42-15.337-7.37-8.927-12.968-20.645-16.06-31.829-1.372-4.967-2.253-9.84-2.58-14.332-8.638 48.565 32.382 77.124 52.352 60.742z" fill="#FFE08A"/><path fill-rule="evenodd" clip-rule="evenodd" d="M119.152 48.56a66.85 66.85 0 014.832-3.323C112.2 38.95 98.332 34.047 83.977 30.813c-13.653-3.077-27.732-4.64-40.864-4.45l3.157 3.424c12.801-1.495 61.569 11.14 72.882 18.772zm1.474-43.036a123.262 123.262 0 00-5.628-1.383c4.362 7.395 8.244 13.582 11.559 18.866 4.136 6.593 7.396 11.79 9.675 16.28a61.732 61.732 0 015.16-1.597c-4.482-10.174-16.567-27.865-20.766-32.166zm12.541 193.945l.003.041c.312 4.939 1.204 9.216 2.784 12.142 1.241 2.298 2.906 3.701 5.043 3.792.8.033 1.08.022 1.1-.01a8.96 8.96 0 00-.106-.653c-5.203-4.782-5.593-10.79-7.247-19.765a55.22 55.22 0 00-1.577 4.453zm-13.461-14.518c-.365 2.171-.647 4.826-.786 7.691-.264 5.441-.014 11.601 1.157 16.596 1.07 4.563 2.857 8.055 5.643 8.749.282.07.569.114.861.128.788.038 1.062.031 1.08.003.015-.024-.042-.349-.099-.666-5.471-6.293-4.845-21.207-2.655-29.541a30.12 30.12 0 01-5.201-2.96zm20.646-80.257c-3.808.274-4.752.132-8.403-.068-.685 3.405-1.891 6.715-2.722 8.796-2.518 9.613-7.293 30.989 8.916 35.61 3.916 1.117 9.744.874 16.262-.32 7.198-1.318 15.166-3.789 22.34-6.878 6.987-3.009 13.193-6.589 17.153-10.236 3.08-2.836 4.721-5.618 4.098-8.018-3.706 5.56-50.524 31.128-62.944 15.805-4.455-5.496 2.131-26.678 5.3-34.691zM55.544 90.87c-8.89 9.09-14.15 25.139-14.018 41.169.072 8.708 1.743 17.386 5.296 24.913 3.512 7.439 8.878 13.756 16.373 17.844 10.965 5.982 26.557 7.229 47.683.348a33.18 33.18 0 01-1.945-4.034l-.03-.078c-22.013 8.741-81.725 5.609-53.36-80.163z" fill="#BF9026"/><path fill-rule="evenodd" clip-rule="evenodd" d="M143.895 79.223c3.195-4.873 3.788-11.565-.649-19.176 1.279-.742 8.329-3.513 15.769-6.238 1.869 7.946 7.085 12.212 12.992 13.517 3.469.767 7.174.502 10.57-.647 3.395-1.148 6.489-3.183 8.739-5.957 4.072-5.02 5.377-12.417.704-21.29a.813.813 0 00-1.037-.42L110.28 70.528a.809.809 0 00-.494.932c2.207 9.653 8.303 14.468 14.908 15.655 3.659.658 7.471.192 10.858-1.187 3.391-1.382 6.365-3.687 8.343-6.704z" fill="#242426"/><path fill-rule="evenodd" clip-rule="evenodd" d="M147.297 64.826l12.371-4.938c1.582 9.242-7.725 11.254-12.371 4.938z" fill="#242426"/><path clip-rule="evenodd" d="M147.297 64.826l12.371-4.938c1.582 9.242-7.725 11.254-12.371 4.938z" stroke="#242426" stroke-width="2" stroke-linecap="round" stroke-linejoin="round"/><path fill-rule="evenodd" clip-rule="evenodd" d="M147.182 76.933a1.694 1.694 0 01-.967-2.198 1.708 1.708 0 012.208-.963c1.449.567 2.592.736 3.481.629.873-.106 1.499-.513 1.933-1.063.502-.636.791-1.467.925-2.291.176-1.084.099-2.077-.113-2.604a1.694 1.694 0 01.947-2.205 1.707 1.707 0 012.148.797c.107.206.405.558.858.973.716.657 1.719 1.348 2.83 1.71.986.32 2.067.37 3.085-.153.449-.231.903-.577 1.353-1.063a1.71 1.71 0 012.408-.1c.692.635.737 1.708.1 2.397a9.15 9.15 0 01-1.043.968 89.697 89.697 0 011.674 6.333c.035.107.06.218.073.33 1.141 5.248 1.313 9.036.74 11.412-.477 1.98-1.465 3.206-2.874 3.697-1.343.468-2.9.175-4.594-.857-1.746-1.064-3.788-3.033-5.998-5.866a1.74 1.74 0 01-.233-.3c-1.804-2.351-3.717-5.271-5.667-8.739-.982-.104-2.07-.373-3.274-.844zm16.772 4.107c.178.883.601 1.944.989 2.918h.006l.171.432a1.696 1.696 0 01-.96 2.204 1.71 1.71 0 01-2.215-.955l-.171-.432.006-.002c-.35-.879-.723-1.816-.983-2.75l-.032.005a1.406 1.406 0 00-.786.442c-.272.287-.475.67-.601 1.083l-.02.059c-.092.322-.135.65-.128.956 1.836 2.33 3.499 3.934 4.899 4.787.788.48 1.364.667 1.698.55.269-.093.503-.515.686-1.279.442-1.83.31-4.812-.551-9.009-.339.02-.708.115-1.056.27-.423.186-.778.44-.952.72z" fill="#242426"/><path fill-rule="evenodd" clip-rule="evenodd" d="M163.953 81.04c.178.883.601 1.945.989 2.918h.006l.172.432a1.697 1.697 0 01-.96 2.205 1.71 1.71 0 01-2.215-.956l-.172-.432.006-.002c-.35-.878-.723-1.816-.983-2.75l-.031.005a1.412 1.412 0 00-.787.442c-.272.288-.474.67-.601 1.083l-.019.059a3.25 3.25 0 00-.129.957c1.836 2.329 3.499 3.933 4.899 4.786.788.48 1.364.667 1.699.551.268-.093.502-.515.686-1.28.441-1.83.309-4.812-.551-9.008-.34.02-.708.115-1.057.269-.423.186-.777.44-.952.721z" fill="#FB5897"/><path d="M113.524 72.252L93.107 90.01" stroke="#242426" stroke-width="4" stroke-linecap="round" stroke-linejoin="round"/><path fill-rule="evenodd" clip-rule="evenodd" d="M83.067 99.128l30.963 8.148c4.71 1.239 7.545 6.089 6.3 10.779l-10.202 38.422c-1.245 4.689-6.117 7.511-10.828 6.271L68.338 154.6c-4.71-1.239-7.546-6.089-6.3-10.778L72.24 105.4c1.245-4.689 6.117-7.512 10.828-6.272z" fill="#62CBF5"/><path fill-rule="evenodd" clip-rule="evenodd" d="M63.31 150.885c-1.082-2.421-1.764-5.215-1.273-7.064l10.202-38.422c.554-2.084 3-4.481 5.438-6.088-.86 2.068-8.216 31.995-10.621 43.682-.42 2.038-1.588 4.7.93 9.711-.64 1.179-4.114-2.466-4.676-1.819z" fill="#ECE8CB"/><path fill-rule="evenodd" clip-rule="evenodd" d="M117.08 108.75c1.344 1.922 3.217 7.421 2.616 9.861l-9.047 36.737c-1.16 4.711-5.685 7.913-10.545 7.573l-8.973-.63c6.096-.469 10.379-1.375 12.667-5.298 3.601-6.175 12.496-41.499 13.282-48.243z" fill="#00869C"/><path fill-rule="evenodd" clip-rule="evenodd" d="M103.485 138.957l-2.877 10.835c-.437 1.648-2.151 2.642-3.806 2.205l-21.522-5.693c-1.654-.437-2.652-2.14-2.214-3.788l2.877-10.836a3.122 3.122 0 013.806-2.204l21.522 5.692a3.109 3.109 0 012.214 3.789z" fill="#00869C"/><path fill-rule="evenodd" clip-rule="evenodd" d="M103.485 138.957c-7.413 3.698-24.147-1.86-27.542-7.277a3.122 3.122 0 013.806-2.204l21.522 5.692c1.655.437 2.652 2.141 2.214 3.789z" fill="#ECE8CB"/><path d="M108.92 159.677c9.261-1.098 20.175-4.153 29.709-8.601m-20.002-41.41c13.184-5.259 34.332 6.378 30.97 21.321" stroke="#242426" stroke-width="4" stroke-linecap="round" stroke-linejoin="round"/><path fill-rule="evenodd" clip-rule="evenodd" d="M120.622 116.042l-3.143-7.824-37.08-9.372-6.622 3.445c.117 13.126 36.097 25.105 46.845 13.751z" fill="#00869C"/><path fill-rule="evenodd" clip-rule="evenodd" d="M82.503 109.821a1.346 1.346 0 011.648-.945 1.34 1.34 0 01.95 1.641l-1.967 7.339a1.345 1.345 0 01-2.597-.695l1.966-7.34z" fill="#242426"/><path clip-rule="evenodd" d="M82.503 109.821a1.346 1.346 0 011.648-.945 1.34 1.34 0 01.95 1.641l-1.967 7.339a1.345 1.345 0 01-2.597-.695l1.966-7.34z" stroke="#242426"/><path fill-rule="evenodd" clip-rule="evenodd" d="M106.497 116.182a1.346 1.346 0 011.648-.945 1.34 1.34 0 01.95 1.641l-1.967 7.339a1.346 1.346 0 01-1.648.946 1.339 1.339 0 01-.949-1.641l1.966-7.34z" fill="#242426"/><path clip-rule="evenodd" d="M106.497 116.182a1.346 1.346 0 011.648-.945 1.34 1.34 0 01.95 1.641l-1.967 7.339a1.346 1.346 0 01-1.648.946 1.339 1.339 0 01-.949-1.641l1.966-7.34z" stroke="#242426"/><path fill-rule="evenodd" clip-rule="evenodd" d="M83.503 97.488l30.962 8.147a10.532 10.532 0 016.424 4.886 10.433 10.433 0 011.09 7.965l-10.208 38.442a10.496 10.496 0 01-4.902 6.375 10.569 10.569 0 01-8 1.085l-30.964-8.148a10.528 10.528 0 01-6.424-4.886 10.434 10.434 0 01-1.09-7.964l10.203-38.422a10.497 10.497 0 014.908-6.395 10.568 10.568 0 018-1.085zm30.095 11.428l-30.963-8.148a7.172 7.172 0 00-5.426.74 7.097 7.097 0 00-3.32 4.323l-10.203 38.422a7.076 7.076 0 00.744 5.401 7.12 7.12 0 004.342 3.306l30.963 8.148c1.901.5 3.838.18 5.426-.74a7.096 7.096 0 003.32-4.323l10.203-38.422a7.082 7.082 0 00-.744-5.402 7.114 7.114 0 00-4.342-3.305z" fill="#242426"/><path fill-rule="evenodd" clip-rule="evenodd" d="M88.661 136.369c1.238 0 2.242.999 2.242 2.231a2.236 2.236 0 01-2.242 2.231 2.236 2.236 0 01-2.241-2.231 2.236 2.236 0 012.241-2.231z" fill="#242426"/><path fill-rule="evenodd" clip-rule="evenodd" d="M188.126 58.919l-15.502-8.763-4.489 1.949 16.432 9.613c1.386-.457 2.649-1.544 3.559-2.8zM139.712 77.79l-15.502-8.763-4.489 1.948 16.432 9.614c1.386-.458 2.649-1.545 3.559-2.8zm51.332-23.776L179.5 47.343l-3.484 1.512c4.551 2.668 9.034 5.4 13.585 8.07.756-.639 1.396-1.885 1.443-2.911zm-47.52 18.36l-11.543-6.67-3.485 1.511c4.551 2.669 9.034 5.401 13.585 8.07.757-.638 1.397-1.885 1.443-2.91z" fill="#fff"/><path fill-rule="evenodd" clip-rule="evenodd" d="M133.657 48.551a3.41 3.41 0 014.577 1.474 3.38 3.38 0 01-1.481 4.556l-17.981 9.145a3.408 3.408 0 01-4.576-1.474 3.378 3.378 0 011.48-4.556l17.981-9.145zm21.957-1.243a3.414 3.414 0 01-4.109-2.523 3.398 3.398 0 012.535-4.09l19.64-4.667a3.415 3.415 0 014.109 2.524 3.398 3.398 0 01-2.535 4.09l-19.64 4.666z" fill="#242426"/></svg>