<svg width="76" height="32" fill="none" xmlns="http://www.w3.org/2000/svg"><path fill-rule="evenodd" clip-rule="evenodd" d="M6.132 4.944c2.884-.52 6.089-.617 9.213-.82C32.663 2.998 52.255 2.278 69.6 1.565c3.597-.044 6.637-.047 5.747 6.976l-2.013 15.876c-.829 5.294-1.85 4.138-5.818 4.343-3.666.19-8.203.028-10.286.001-12.707.078-27.773-.118-40.48-.04-1.6.009-5.65-.019-8.855.052-5.947.132-5.64-1.79-6.47-7.522l-1.2-8.294c-.81-5.605.423-7.025 5.906-8.013z" fill="#fff"/><path fill-rule="evenodd" clip-rule="evenodd" d="M13.253 10.091v1.759h2.61v1.508h-2.61v3.302c0 .658.232.873.886.873.103 0 .198-.005.284-.015a1.984 1.984 0 00.69-.206l.896-.47v1.655l-.319.176a2.55 2.55 0 01-.354.158 3.365 3.365 0 01-.815.186c-.152.017-.3.025-.443.025-.342 0-.654-.049-.936-.147a2.039 2.039 0 01-.774-.476 2.014 2.014 0 01-.487-.779 2.839 2.839 0 01-.149-.944v-3.338h-1.098V11.85h1.098V9.749l1.52-.507v.849zm3.718 5.297c0-.28.025-.548.075-.806.05-.263.127-.51.228-.74.1-.226.216-.435.349-.626h.001a3.359 3.359 0 011.629-1.252 3.921 3.921 0 012.035-.18c.225.04.446.1.662.18h.002a3.482 3.482 0 011.164.721c.167.158.32.335.456.531h.001c.133.191.25.4.349.626.101.23.178.477.228.74.05.258.075.527.075.806 0 .572-.101 1.088-.303 1.546a3.74 3.74 0 01-.349.626h-.001a3.36 3.36 0 01-1.002.948 3.479 3.479 0 01-.618.303 3.964 3.964 0 01-2.036.18 3.91 3.91 0 01-.663-.18 3.475 3.475 0 01-1.172-.72 3.35 3.35 0 01-.457-.532h-.001c-.133-.19-.25-.4-.349-.625a3.435 3.435 0 01-.228-.74 4.256 4.256 0 01-.075-.806zm5.733 0c0-.36-.056-.674-.17-.94a2.108 2.108 0 00-.2-.37 1.787 1.787 0 00-.56-.53 1.997 1.997 0 00-.353-.173 2.327 2.327 0 00-.823-.142c-.296 0-.57.047-.823.142a2.005 2.005 0 00-.662.41c-.09.083-.173.182-.25.294a2.058 2.058 0 00-.328.796 2.816 2.816 0 00-.043.513c0 .36.056.673.17.94.055.13.122.254.2.369a1.778 1.778 0 00.56.53c.111.07.229.127.353.173.253.095.527.143.823.143.296 0 .57-.048.823-.143a1.99 1.99 0 00.663-.41c.089-.083.172-.181.25-.293a2.101 2.101 0 00.327-.796c.029-.153.043-.324.043-.513zm2.561.002v-.099l.013-1.082.042-2.163v-2.34l1.52-.501v3.116a3.473 3.473 0 01.706-.354 3.896 3.896 0 012.697 0h.002a3.474 3.474 0 011.164.721c.168.158.32.336.456.532l.001-.001a3.484 3.484 0 01.577 1.366c.05.258.075.527.075.806 0 .573-.101 1.088-.303 1.546a3.74 3.74 0 01-.349.626 3.35 3.35 0 01-1.002.948 3.476 3.476 0 01-.62.303h.001a3.964 3.964 0 01-2.036.18c-.223-.04-.445-.1-.663-.18a3.479 3.479 0 01-1.172-.72 3.355 3.355 0 01-.457-.532v.001c-.134-.191-.25-.4-.35-.626a3.447 3.447 0 01-.228-.74 4.256 4.256 0 01-.074-.806zm5.732 0a2.4 2.4 0 00-.169-.939 2.114 2.114 0 00-.201-.369 1.779 1.779 0 00-.56-.53 1.997 1.997 0 00-.352-.174 2.328 2.328 0 00-.824-.142c-.296 0-.57.048-.823.142a1.994 1.994 0 00-.662.41c-.09.084-.173.182-.25.294a2.101 2.101 0 00-.328.796 2.825 2.825 0 00-.043.513c0 .36.057.673.17.94.055.13.122.254.201.369a1.774 1.774 0 00.56.53 2 2 0 00.352.173c.253.095.527.143.823.143.296 0 .57-.048.824-.143a2.004 2.004 0 00.662-.41c.09-.083.172-.181.25-.293a2.057 2.057 0 00.328-.796c.028-.153.042-.324.042-.513zm27.565 0v-.099l.012-1.082.042-2.163v-2.34l1.521-.501v3.116a3.48 3.48 0 01.706-.354 3.896 3.896 0 012.697 0h.002a3.475 3.475 0 011.164.721c.168.158.32.336.456.532l.001-.001c.133.191.25.4.349.626.101.23.178.477.228.74.05.258.075.527.075.806 0 .573-.101 1.088-.303 1.546a3.74 3.74 0 01-.349.626 3.36 3.36 0 01-1.002.948 3.472 3.472 0 01-.62.303h.001a3.962 3.962 0 01-2.036.18c-.223-.04-.445-.1-.663-.18a3.475 3.475 0 01-1.172-.72 3.345 3.345 0 01-.457-.532v.001c-.134-.191-.25-.4-.35-.626a3.436 3.436 0 01-.228-.74 4.256 4.256 0 01-.075-.806zm5.732 0c0-.36-.056-.673-.17-.939a2.107 2.107 0 00-.2-.369 1.778 1.778 0 00-.56-.53 1.995 1.995 0 00-.353-.174 2.327 2.327 0 00-.823-.142c-.296 0-.57.048-.823.142a1.998 1.998 0 00-.662.41c-.09.084-.173.182-.25.294a2.06 2.06 0 00-.328.796 2.816 2.816 0 00-.043.513c0 .36.057.673.17.94a2.1 2.1 0 00.201.369 1.775 1.775 0 00.56.53c.11.07.228.127.352.173.253.095.527.143.823.143.296 0 .57-.048.823-.143a2.001 2.001 0 00.663-.41c.089-.083.172-.181.25-.293a2.063 2.063 0 00.328-.796c.028-.153.042-.324.042-.513zM39.09 18.318V11.85h1.496v.402a3.492 3.492 0 01.712-.352c.156-.057.32-.1.491-.129a3.073 3.073 0 011.342.073 2.522 2.522 0 011.208.79 3.741 3.741 0 01.474-.363 4.01 4.01 0 01.769-.377c.154-.056.313-.097.476-.124a3.03 3.03 0 01.5-.042c.387 0 .747.069 1.08.207a2.467 2.467 0 011.189 1.004h.003a2.7 2.7 0 01.231.479c.061.166.108.342.139.526.03.184.046.37.046.557v4.432h-1.521v-4.42a1.65 1.65 0 00-.086-.549 1.096 1.096 0 00-.397-.532 1.083 1.083 0 00-.429-.183h-.002a1.585 1.585 0 00-.796.063 2.067 2.067 0 00-.68.414c-.069.063-.13.124-.182.184-.067.076-.128.15-.182.223.012.114.018.236.018.368v4.432h-1.52v-4.42a1.65 1.65 0 00-.087-.549 1.094 1.094 0 00-.396-.532 1.082 1.082 0 00-.429-.183h-.003a1.64 1.64 0 00-.566-.002c-.09.017-.175.04-.254.072a2.289 2.289 0 00-.505.28 2.324 2.324 0 00-.393.38 4.87 4.87 0 00-.175.234l-.05.073v4.647H39.09v-.615zm11.243-2.93c0-.28.024-.548.074-.806.05-.263.127-.51.228-.74.1-.226.216-.435.35-.626a3.359 3.359 0 011.629-1.252 3.915 3.915 0 012.697 0h.002a3.48 3.48 0 011.164.721c.168.158.32.335.456.531h.001a3.484 3.484 0 01.577 1.366c.05.258.075.527.075.806 0 .572-.101 1.088-.303 1.546a3.74 3.74 0 01-.349.626 3.354 3.354 0 01-1.002.948 3.483 3.483 0 01-.62.303h.001a3.74 3.74 0 01-.664.18 3.964 3.964 0 01-1.372 0c-.223-.04-.445-.1-.663-.18a3.466 3.466 0 01-1.172-.72 3.354 3.354 0 01-.457-.532c-.134-.19-.25-.4-.35-.625a3.446 3.446 0 01-.228-.74 4.256 4.256 0 01-.074-.806zm5.732 0a2.4 2.4 0 00-.169-.94 2.115 2.115 0 00-.202-.37 1.782 1.782 0 00-.559-.53 2.001 2.001 0 00-.353-.173 2.327 2.327 0 00-.823-.142c-.296 0-.57.047-.823.142a1.997 1.997 0 00-.662.41c-.09.083-.173.182-.25.294a2.102 2.102 0 00-.328.796 2.816 2.816 0 00-.043.513c0 .36.057.673.17.94.055.13.122.254.201.369a1.773 1.773 0 00.56.53c.11.07.228.127.352.173.253.095.527.143.823.143.296 0 .57-.048.823-.143a1.995 1.995 0 00.663-.41c.089-.083.172-.181.25-.293a2.065 2.065 0 00.328-.796c.028-.153.042-.324.042-.513zm10.82 2.931V11.85h1.521v7.083h-1.52v-.614zm-33.335 0V11.85h1.522v7.083H33.55v-.614zm-.366-9.146h2.326v1.597h-2.326V9.173zm33.329 0h2.326v1.597h-2.326V9.173z" fill="#000"/><path fill-rule="evenodd" clip-rule="evenodd" d="M30.172 30.463H64.32c1.883 0 2.682-.73 3.594-1.718l1.841-.006c-1.295 2.277-3.166 3.258-5.435 3.258H12.677L11.22 32c-1.459 0-2.793-.484-3.769-1.264a4.827 4.827 0 01-.768-.767l-.022-.028-.014-.018-.028-.036-.001-.002a4.146 4.146 0 01-.536-.934h.001a3.724 3.724 0 01-.278-1.41V6.873h-.002V4.46c0-1.252.63-2.383 1.646-3.195C8.426.484 9.76 0 11.22 0h53.1c1.459 0 2.794.484 3.769 1.264.138.11.269.226.39.347l-2.793.117a4.815 4.815 0 00-1.365-.194l-53.1.003c-1.08 0-2.053.347-2.751.905-.658.526-1.066 1.241-1.066 2.02v23.08c0 .657.292 1.271.78 1.763.09.089.184.173.284.253.698.558 1.671.905 2.752.905h18.954z" fill="#000"/></svg>