<svg width="186" height="80" fill="none" xmlns="http://www.w3.org/2000/svg"><path fill-rule="evenodd" clip-rule="evenodd" d="M15.106 12.36c7.103-1.3 15-1.543 22.695-2.05 42.662-2.815 90.927-4.615 133.658-6.396 8.86-.111 16.349-.12 14.155 17.438l-4.959 39.69c-2.041 13.236-4.555 10.347-14.331 10.859-9.032.473-20.209.07-25.34.002-31.302.194-68.416-.296-99.717-.102-3.945.024-13.92-.045-21.817.133-14.649.33-13.892-4.477-15.936-18.807L.558 32.393C-1.44 18.38 1.598 14.83 15.106 12.36z" fill="#FFC830"/><path fill-rule="evenodd" clip-rule="evenodd" d="M32.648 25.228v4.397h6.43v3.77h-6.43v8.254c0 1.646.571 2.185 2.183 2.185.254 0 .488-.013.7-.038.214-.025.42-.063.616-.112.415-.106.776-.24 1.081-.402l2.21-1.175v4.136l-.786.439a6.252 6.252 0 01-.873.396 8.467 8.467 0 01-2.008.466 9.993 9.993 0 01-1.09.061c-.842 0-1.611-.123-2.307-.368a5.003 5.003 0 01-1.906-1.189 5.039 5.039 0 01-1.2-1.948c-.244-.707-.367-1.494-.367-2.36v-8.344h-2.704v-3.771h2.704v-5.253l3.747-1.267v2.123zm9.161 13.242c0-.698.06-1.37.183-2.015a8.706 8.706 0 01.563-1.85 9.379 9.379 0 01.859-1.566l.002.002a8.334 8.334 0 012.477-2.377 8.574 8.574 0 011.535-.754 9.511 9.511 0 015.013-.448c.555.099 1.1.249 1.63.448h.007c.522.197 1.03.45 1.524.76.485.304.933.652 1.343 1.043a8.42 8.42 0 011.124 1.328l.002-.002c.328.478.614 1 .86 1.566.25.575.438 1.192.562 1.85.122.645.184 1.317.184 2.014 0 1.432-.25 2.72-.746 3.865a9.385 9.385 0 01-.86 1.566l-.002-.002c-.336.49-.711.933-1.125 1.328a8.506 8.506 0 01-2.867 1.8v.002a9.293 9.293 0 01-1.636.45 9.63 9.63 0 01-3.378 0 9.506 9.506 0 01-1.635-.45 8.496 8.496 0 01-1.535-.753 8.34 8.34 0 01-2.477-2.377l-.002.002c-.327-.479-.614-1-.86-1.566a8.706 8.706 0 01-.562-1.85 10.788 10.788 0 01-.183-2.015zm14.121 0c0-.9-.139-1.684-.416-2.35a5.281 5.281 0 00-.497-.923 4.404 4.404 0 00-.615-.735 4.868 4.868 0 00-1.631-1.024 5.659 5.659 0 00-2.029-.355c-.729 0-1.405.118-2.028.355a4.89 4.89 0 00-1.63 1.024 4.52 4.52 0 00-.616.735 5.215 5.215 0 00-.808 1.989c-.07.383-.105.811-.105 1.283 0 .9.139 1.684.416 2.35.137.327.303.635.497.923.19.28.395.526.615.735a4.874 4.874 0 001.631 1.024 5.656 5.656 0 002.029.355c.73 0 1.405-.119 2.028-.355a4.905 4.905 0 001.63-1.024 4.47 4.47 0 00.616-.735 5.217 5.217 0 00.808-1.989c.07-.383.105-.811.105-1.284zm6.308.008l.003-.249.03-2.706.103-5.408v-5.848l3.746-1.255v7.791a8.508 8.508 0 011.738-.884 9.503 9.503 0 015.013-.45c.555.1 1.1.25 1.63.45h.007c.522.197 1.03.45 1.524.76a8.322 8.322 0 012.466 2.371l.003-.002c.327.478.614 1 .86 1.565.25.575.437 1.193.562 1.85.122.646.183 1.318.183 2.015 0 1.431-.248 2.72-.745 3.865a9.382 9.382 0 01-.86 1.565l-.003-.002c-.335.49-.71.933-1.124 1.328a8.503 8.503 0 01-2.867 1.8v.003a9.277 9.277 0 01-1.636.45 9.619 9.619 0 01-3.378 0 9.494 9.494 0 01-1.635-.45 8.36 8.36 0 01-2.888-1.802 8.364 8.364 0 01-1.124-1.329l-.002.002c-.328-.478-.614-1-.86-1.565a8.706 8.706 0 01-.562-1.85 10.79 10.79 0 01-.184-2.015zm14.122 0c0-.9-.139-1.684-.416-2.349a5.309 5.309 0 00-.497-.923 4.45 4.45 0 00-1.378-1.327 4.902 4.902 0 00-.868-.432 5.658 5.658 0 00-2.029-.356c-.73 0-1.405.119-2.028.356a4.9 4.9 0 00-1.63 1.023 4.43 4.43 0 00-.616.736 5.197 5.197 0 00-.808 1.99 7.15 7.15 0 00-.105 1.282c0 .9.139 1.683.416 2.349.137.327.303.635.497.923.19.28.395.526.615.735a4.887 4.887 0 001.631 1.024 5.658 5.658 0 002.028.355c.73 0 1.406-.118 2.029-.355a4.896 4.896 0 001.63-1.024c.22-.209.426-.454.616-.735a5.21 5.21 0 00.808-1.989c.07-.382.105-.81.105-1.283zm67.902 0l.003-.249.028-2.706.104-5.408v-5.848l3.746-1.255v7.791a8.517 8.517 0 011.738-.884 9.465 9.465 0 013.315-.599c.574 0 1.141.05 1.698.15.556.1 1.099.25 1.631.45h.006a8.485 8.485 0 011.524.758c.485.305.934.653 1.343 1.044.413.394.788.838 1.124 1.328l.002-.002c.328.478.614 1 .86 1.565.25.575.437 1.193.562 1.85.122.646.184 1.318.184 2.015 0 1.431-.249 2.72-.746 3.865a9.349 9.349 0 01-.86 1.565l-.002-.002a8.41 8.41 0 01-1.124 1.328 8.507 8.507 0 01-2.868 1.8l.001.003a9.268 9.268 0 01-1.637.45 9.617 9.617 0 01-3.378 0 9.521 9.521 0 01-1.635-.45 8.356 8.356 0 01-4.011-3.13l-.003.001c-.327-.478-.614-1-.859-1.565a8.707 8.707 0 01-.563-1.85 10.833 10.833 0 01-.183-2.015zm14.121 0c0-.9-.139-1.684-.416-2.349a5.317 5.317 0 00-.497-.923 4.424 4.424 0 00-.615-.736 4.887 4.887 0 00-1.631-1.023 5.662 5.662 0 00-2.028-.356 5.65 5.65 0 00-2.028.356 4.901 4.901 0 00-1.631 1.023 4.42 4.42 0 00-.616.736 5.247 5.247 0 00-.808 1.989c-.07.383-.105.81-.105 1.283 0 .9.139 1.683.417 2.349.136.327.302.635.496.923.19.28.395.526.616.735a4.873 4.873 0 001.631 1.024 5.654 5.654 0 002.028.355c.729 0 1.405-.118 2.028-.355a4.886 4.886 0 001.631-1.024c.22-.209.426-.454.615-.735.194-.288.36-.596.497-.923a5.21 5.21 0 00.311-1.066c.07-.383.105-.81.105-1.283zm-62.088 7.318V29.625h3.686v1.005c.243-.16.487-.303.732-.43a9.233 9.233 0 011.021-.449 6.758 6.758 0 011.211-.323 7.484 7.484 0 011.262-.108c.718 0 1.4.097 2.044.29.66.199 1.267.498 1.82.897.436.315.822.674 1.157 1.077a9.325 9.325 0 011.165-.905 9.77 9.77 0 011.894-.943c.381-.14.773-.244 1.174-.312a7.31 7.31 0 011.232-.104c.952 0 1.84.172 2.662.516a6.41 6.41 0 011.151.62 6.178 6.178 0 011.777 1.89h.006c.222.366.412.766.57 1.198.151.416.265.855.341 1.316a8.5 8.5 0 01.114 1.392V47.33h-3.746V36.282a4.18 4.18 0 00-.212-1.371 2.762 2.762 0 00-.567-.97 2.607 2.607 0 00-.41-.362 2.646 2.646 0 00-1.056-.457h-.006a3.535 3.535 0 00-.684-.061c-.237 0-.461.018-.671.056a3.39 3.39 0 00-.606.162 5.05 5.05 0 00-1.674 1.036 5.36 5.36 0 00-.451.46c-.165.19-.315.376-.449.556.031.285.046.592.046.92v11.08h-3.746V36.282a4.18 4.18 0 00-.212-1.371 2.75 2.75 0 00-.568-.97 2.556 2.556 0 00-.409-.362 2.838 2.838 0 00-.501-.285 2.61 2.61 0 00-.556-.172h-.006a3.517 3.517 0 00-.683-.061c-.269 0-.506.019-.712.056a3.323 3.323 0 00-.625.18 5.545 5.545 0 00-1.244.702 5.53 5.53 0 00-.531.46 5.04 5.04 0 00-.438.49c-.157.199-.3.394-.432.583l-.124.183v11.616h-3.746v-1.535zm27.695-7.326c0-.698.061-1.37.184-2.015a8.705 8.705 0 01.562-1.85 9.451 9.451 0 01.859-1.566l.003.002a8.41 8.41 0 011.124-1.328 8.352 8.352 0 011.353-1.05c.483-.3.995-.551 1.535-.753a9.497 9.497 0 016.644 0h.005a8.514 8.514 0 012.867 1.803c.413.395.789.838 1.124 1.328l.003-.002c.327.478.614 1 .859 1.566.25.575.438 1.192.563 1.85.122.645.183 1.317.183 2.014 0 1.432-.248 2.72-.746 3.865a9.362 9.362 0 01-.859 1.566l-.003-.002a8.35 8.35 0 01-1.124 1.328 8.504 8.504 0 01-2.867 1.8v.002a9.29 9.29 0 01-1.636.45 9.638 9.638 0 01-3.378 0 9.49 9.49 0 01-1.635-.45 8.385 8.385 0 01-2.888-1.803 8.402 8.402 0 01-1.124-1.327l-.003.002a9.45 9.45 0 01-.859-1.566 8.706 8.706 0 01-.562-1.85 10.745 10.745 0 01-.184-2.015zm14.122 0c0-.9-.139-1.684-.417-2.35a5.245 5.245 0 00-.496-.923 4.412 4.412 0 00-.616-.735 4.86 4.86 0 00-1.631-1.024 5.656 5.656 0 00-2.028-.355c-.729 0-1.405.118-2.028.355a4.886 4.886 0 00-1.631 1.024 4.4 4.4 0 00-.615.735 5.208 5.208 0 00-.808 1.989 7.16 7.16 0 00-.106 1.283c0 .9.139 1.684.417 2.35.137.327.303.635.497.923.189.28.395.526.615.735a4.88 4.88 0 001.631 1.024 5.657 5.657 0 002.028.355c.73 0 1.406-.119 2.028-.355a4.902 4.902 0 001.631-1.024 4.42 4.42 0 00.616-.735 5.148 5.148 0 00.807-1.989 7.07 7.07 0 00.106-1.284zm26.656 7.326V29.625h3.746V47.33h-3.746v-1.535zm-82.118 0V29.625h3.747V47.33H82.65v-1.535zm-.904-22.862h5.73v3.99h-5.73v-3.99zm82.106 0h5.729v3.99h-5.729v-3.99z" fill="#242426"/><path fill-rule="evenodd" clip-rule="evenodd" d="M74.03 76.157h84.119c4.64 0 6.608-1.824 8.855-4.295l4.536-.013c-3.191 5.69-7.802 8.144-13.391 8.144H30.93L27.344 80c-3.593 0-6.882-1.21-9.284-3.161a11.97 11.97 0 01-1.893-1.917l-.054-.07-.034-.045-.068-.09-.004-.004a10.37 10.37 0 01-1.32-2.336h.003a9.428 9.428 0 01-.685-3.524v-51.67l-.005.001v-6.037c0-3.13 1.553-5.956 4.055-7.986C20.458 1.21 23.745 0 27.338 0H158.15c3.592 0 6.881 1.21 9.283 3.16.341.277.662.565.963.867l-6.883.293a11.696 11.696 0 00-3.363-.484c-43.599 0-87.216.007-130.805.007-2.663 0-5.06.866-6.78 2.261-1.62 1.315-2.627 3.104-2.627 5.05v57.699c0 1.646.72 3.18 1.924 4.41h.001c.217.221.45.432.697.633 1.72 1.395 4.117 2.261 6.78 2.261h46.69z" fill="#242426"/></svg>