<svg width="34" height="34" fill="none" xmlns="http://www.w3.org/2000/svg"><path clip-rule="evenodd" d="M12.671 24.91a5.557 5.557 0 01-8.009 0L2.66 22.853c-2.212-2.273-2.212-5.958 0-8.228l7.009-7.2a5.557 5.557 0 018.009 0l2.004 2.058c2.211 2.27 2.211 5.955 0 8.227l-7.01 7.198z" stroke="#242426" stroke-linejoin="round"/><path d="M15.174 5.882l-8.51 8.743a2.965 2.965 0 000 4.114l2.002 2.058a2.781 2.781 0 004.004 0l8.512-8.744" stroke="#242426" stroke-linejoin="round"/><path clip-rule="evenodd" d="M10.668 18.738l-2.002-2.056 2.002-2.057 2.003 2.057-2.003 2.056zm4.006-4.113l-2.002-2.057 2.002-2.056 2.002 2.056-2.002 2.057zM25.92 5.364c0 2.41-1.903 4.363-4.248 4.363-2.346 0-4.248-1.953-4.248-4.363S19.326 1 21.672 1c2.345 0 4.248 1.955 4.248 4.364z" stroke="#242426" stroke-linejoin="round"/><path clip-rule="evenodd" d="M31.584 8.273c0 2.41-1.903 4.363-4.248 4.363-2.346 0-4.248-1.953-4.248-4.363 0-2.409 1.902-4.364 4.248-4.364 2.345 0 4.248 1.955 4.248 4.364zm-7.08 10.181c0-1.605 1.269-2.909 2.832-2.909h2.832c1.565 0 2.832 1.304 2.832 2.91v4.363h-8.496v-4.364zm5.664 4.364h-2.832v7.273l1.475 2.91 1.357-2.91v-7.273z" stroke="#242426" stroke-linejoin="round"/><path d="M28.752 17.727v-7.272" stroke="#242426" stroke-linecap="round" stroke-linejoin="round"/></svg>