<svg width="30" height="34" fill="none" xmlns="http://www.w3.org/2000/svg"><path d="M28.01 13.848l-5.437 5.437c-2.988 2.989-8.104 2.767-11.365-.494-3.26-3.263-3.484-8.378-.493-11.368L16.15 1.99m0-.002l11.86 11.86m-8.895-8.895L23.068 1m1.977 9.882l3.953-3.953M16.15 5.94l7.906 7.908" stroke="#242426" stroke-linecap="round" stroke-linejoin="round"/><path clip-rule="evenodd" d="M17.137 15.825a2.095 2.095 0 11-2.964-2.965 2.095 2.095 0 112.964 2.965z" stroke="#242426" stroke-linecap="round" stroke-linejoin="round"/><path d="M12.86 20.102l-3.136 3.135-2.964-2.964 3.135-3.137" stroke="#242426" stroke-linecap="round" stroke-linejoin="round"/><path d="M8.243 21.755L1.819 28.18a2.795 2.795 0 103.952 3.953l4.448-4.447a2.097 2.097 0 012.966 2.964L10.834 33" stroke="#242426" stroke-linecap="round" stroke-linejoin="round"/></svg>