<svg width="34" height="26" fill="none" xmlns="http://www.w3.org/2000/svg"><path d="M3.783 20.765C2.245 20.765 1 19.5 1 17.94c0-1.558 1.245-2.823 2.783-2.823" stroke="#242426" stroke-linecap="round" stroke-linejoin="round"/><path clip-rule="evenodd" d="M9.348 25H6.566c-1.538 0-2.783-1.265-2.783-2.824v-8.47c0-1.559 1.245-2.824 2.783-2.824h2.782V25z" stroke="#242426" stroke-linecap="round" stroke-linejoin="round"/><path d="M30.217 20.765c1.536 0 2.782-1.265 2.782-2.824 0-1.558-1.246-2.823-2.782-2.823" stroke="#242426" stroke-linecap="round" stroke-linejoin="round"/><path clip-rule="evenodd" d="M24.652 25h2.783c1.536 0 2.783-1.265 2.783-2.824v-8.47c0-1.559-1.247-2.824-2.783-2.824h-2.783V25z" stroke="#242426" stroke-linecap="round" stroke-linejoin="round"/><path d="M7.262 10.882C7.262 5.424 11.622 1 17 1c5.377 0 9.739 4.424 9.739 9.882" stroke="#242426" stroke-linejoin="round"/></svg>