<svg width="26" height="34" fill="none" xmlns="http://www.w3.org/2000/svg"><path clip-rule="evenodd" d="M25.256 3.783C25.256 2.247 23.898 1 22.224 1H4.032C2.358 1 1 2.247 1 3.783v16.696c0 1.536 1.358 2.782 3.032 2.782h18.192c1.674 0 3.032-1.246 3.032-2.782V3.783z" stroke="#242426" stroke-linejoin="round"/><path d="M13.127 23.261v4.87m-.022.021L7.088 33m6.016-4.848L19.12 33" stroke="#242426" stroke-linecap="round" stroke-linejoin="round"/><path clip-rule="evenodd" d="M19.95 14.217c0 3.458-3.054 6.261-6.821 6.261-3.768 0-6.822-2.803-6.822-6.26 0-3.458 3.054-6.261 6.822-6.261 3.767 0 6.822 2.803 6.822 6.26z" stroke="#242426" stroke-linejoin="round"/><path clip-rule="evenodd" d="M16.16 14.218c0 1.536-1.36 2.782-3.032 2.782-1.674 0-3.032-1.246-3.032-2.782s1.358-2.783 3.032-2.783c1.673 0 3.032 1.247 3.032 2.783zm4.547-9.74c0 .384-.34.696-.758.696s-.758-.312-.758-.696c0-.382.34-.695.758-.695.419 0 .758.313.758.695zm-13.642 0c0 .384-.34.696-.758.696-.419 0-.758-.312-.758-.696 0-.382.34-.695.758-.695s.758.313.758.695z" stroke="#242426" stroke-linejoin="round"/></svg>