<svg width="22" height="34" fill="none" xmlns="http://www.w3.org/2000/svg"><path clip-rule="evenodd" d="M21 30.217C21 31.753 19.805 33 18.333 33H3.667C2.195 33 1 31.753 1 30.217V3.783C1 2.247 2.195 1 3.667 1h14.666C19.805 1 21 2.247 21 3.783v26.434z" stroke="#242426" stroke-linecap="round" stroke-linejoin="round"/><path d="M21 6.565H1m20 20.87H1M7.666 3.783h6.667" stroke="#242426" stroke-linecap="round" stroke-linejoin="round"/><path clip-rule="evenodd" d="M11.667 30.218c0 .384-.298.695-.666.695a.682.682 0 01-.667-.695c0-.384.299-.696.667-.696.368 0 .666.312.666.696z" stroke="#242426" stroke-linecap="round" stroke-linejoin="round"/></svg>