<svg width="26" height="34" fill="none" xmlns="http://www.w3.org/2000/svg"><path clip-rule="evenodd" d="M25 30.217C25 31.753 23.736 33 22.177 33H3.823C2.266 33 1 31.753 1 30.217V3.783C1 2.247 2.266 1 3.824 1h18.352C23.736 1 25 2.247 25 3.783v26.434z" stroke="#242426" stroke-linecap="round" stroke-linejoin="round"/><path clip-rule="evenodd" d="M3.824 27.435h18.353V5.174H3.824v22.26z" stroke="#242426" stroke-linecap="round" stroke-linejoin="round"/><path fill-rule="evenodd" clip-rule="evenodd" d="M13 2.392a.701.701 0 00-.705.695c0 .384.316.696.706.696.39 0 .706-.312.706-.696A.701.701 0 0013 2.392z" fill="#242426"/><path fill-rule="evenodd" clip-rule="evenodd" d="M13.707 30.217a.701.701 0 01-.706.696.701.701 0 01-.706-.696.7.7 0 01.706-.695.7.7 0 01.706.695z" fill="#242426" stroke="#242426" stroke-linejoin="round"/></svg>