<svg width="26" height="34" fill="none" xmlns="http://www.w3.org/2000/svg"><path clip-rule="evenodd" d="M22.762 31.033C21.664 32.113 19.495 33 17.942 33H3.823C2.269 33 1 31.748 1 30.217V3.783C1 2.253 2.27 1 3.824 1h18.352C23.731 1 25 2.252 25 3.783v22.26c0 1.53-.898 3.67-1.996 4.75l-.242.24z" stroke="#242426" stroke-linecap="round" stroke-linejoin="round"/><path clip-rule="evenodd" d="M20.764 14.913c0 .767-.634 1.391-1.412 1.391H6.646a1.405 1.405 0 01-1.412-1.391V6.565c0-.764.636-1.391 1.412-1.391h12.706c.778 0 1.412.627 1.412 1.391v8.348zm1.413 6.261a.7.7 0 01-.706.696.7.7 0 01-.705-.696c0-.382.316-.695.706-.695a.7.7 0 01.705.695zm-4.236 2.087a.7.7 0 01-.706.696.7.7 0 01-.706-.696c0-.383.317-.696.706-.696.39 0 .706.313.706.696z" stroke="#242426" stroke-linecap="round" stroke-linejoin="round"/><path d="M9.471 23.261H3.824m2.822-2.782v5.565m7.059 3.478l1.412-.696m-5.647.696l1.412-.696" stroke="#242426" stroke-linecap="round" stroke-linejoin="round"/></svg>