<svg width="32" height="32" fill="none" xmlns="http://www.w3.org/2000/svg"><path d="M2 31s1.68-9 14-9 14 9 14 9" stroke="#242426" stroke-width="2" stroke-linecap="round" stroke-linejoin="round"/><path d="M10 23s.72 6 6 6 6-6 6-6" stroke="#242426" stroke-width="2"/><path d="M22 12a6 6 0 01-6 6v2a8 8 0 008-8h-2zm-6 6a6 6 0 01-6-6H8a8 8 0 008 8v-2zm4.2-10.286A5.979 5.979 0 0122 12h2c0-2.238-.92-4.263-2.401-5.714l-1.4 1.428zM10 12c0-1.68.688-3.196 1.8-4.286l-1.399-1.428A7.979 7.979 0 008 12h2z" fill="#242426"/><path d="M21 5c0 1.657-2.239 3.5-5 3.5S11 6.657 11 5s1.239-4 4-4c1.192 0 .64 1.595 2.5 2.5 1.86.905 3.5 0 3.5 1.5z" stroke="#242426" stroke-width="2"/></svg>