<svg width="32" height="32" fill="none" xmlns="http://www.w3.org/2000/svg"><path d="M31 4.75h-3.338c-.327 0-.605.258-.647.605l-.438 3.711c-.08.692-.636 1.21-1.294 1.21H2.958c-1.324 0-2.26 1.363-1.868 2.69l2.039 6.908c.254.868 1.01 1.455 1.868 1.455h18.83c1.722 0 1.724 2.763 0 2.763H5.566M25.783 13.04l-.652 6.217" stroke="#242426" stroke-width="2" stroke-linecap="round" stroke-linejoin="round"/><path clip-rule="evenodd" d="M9.969 29.125a1.876 1.876 0 11-3.752-.001 1.876 1.876 0 013.752.001zm14.347 0a1.876 1.876 0 11-3.751-.001 1.876 1.876 0 013.75.001z" stroke="#242426" stroke-width="2" stroke-linejoin="round"/><path d="M14.695 9.487l5.218-5.075 5.319 5.075m-17.058 0L4.26 1 1 2.509l3.26 6.978m8.48 0V5.68h5.869" stroke="#242426" stroke-width="2" stroke-linecap="round" stroke-linejoin="round"/></svg>