<svg width="32" height="32" fill="none" xmlns="http://www.w3.org/2000/svg"><path d="M31 5h-3.338a.665.665 0 00-.647.6l-.438 3.675c-.08.686-.636 1.199-1.294 1.199H2.958c-1.324 0-2.26 1.349-1.868 2.664l2.04 6.842c.254.86 1.01 1.441 1.868 1.441h18.83c1.722 0 1.724 2.737 0 2.737H5.566M25.783 13.21l-.652 6.158" stroke="#242426" stroke-width="2" stroke-linecap="round" stroke-linejoin="round"/><path clip-rule="evenodd" d="M9.969 29.143c0 1.025-.84 1.857-1.875 1.857a1.867 1.867 0 01-1.875-1.857c0-1.025.84-1.857 1.875-1.857 1.035 0 1.875.832 1.875 1.857zm14.347 0c0 1.025-.84 1.857-1.875 1.857a1.867 1.867 0 01-1.875-1.857c0-1.025.84-1.857 1.875-1.857 1.035 0 1.875.832 1.875 1.857z" stroke="#242426" stroke-width="2" stroke-linejoin="round"/></svg>