<svg width="34" height="32" fill="none" xmlns="http://www.w3.org/2000/svg"><path d="M20.698 26.196H4.621c-1.48 0-2.68-1.217-2.68-2.719V9.882c0-1.5 1.2-2.719 2.68-2.719h14.738M1.941 12.601H19.36m-2.68 4.079H5.96m4.02 2.719H5.962m16.79 1.364c0 2.61 2.083 4.724 4.654 4.724 2.571 0 4.653-2.114 4.653-4.724 0-2.606-2.082-4.72-4.653-4.72-2.57 0-4.654-2.114-4.654-4.724 0-2.608 2.083-4.722 4.654-4.722 2.571 0 4.653 2.114 4.653 4.721m-4.653-7.553l-.009 24.47" stroke="#242426" stroke-width="2" stroke-linecap="round" stroke-linejoin="round"/></svg>