<svg width="32" height="32" fill="none" xmlns="http://www.w3.org/2000/svg"><path d="M16 7.89V28m-3.98 0h7.922" stroke="#242426" stroke-width="2" stroke-linecap="round" stroke-linejoin="round"/><path clip-rule="evenodd" d="M17.99 5.945c0 1.076-.89 1.946-1.99 1.946s-1.99-.87-1.99-1.946C14.01 4.871 14.9 4 16 4s1.99.87 1.99 1.945z" stroke="#242426" stroke-width="2" stroke-linecap="round" stroke-linejoin="round"/><path d="M1.001 15.97L5.773 5.308l4.755 10.664M14.1 5.307H3.728" stroke="#242426" stroke-width="2" stroke-linecap="round" stroke-linejoin="round"/><path clip-rule="evenodd" d="M10.545 15.974c0 2.577-2.136 4.667-4.772 4.667S1 18.55 1 15.974h9.545z" stroke="#242426" stroke-width="2" stroke-linecap="round" stroke-linejoin="round"/><path d="M30.998 15.97L26.227 5.308 21.472 15.97M17.9 5.307h10.372" stroke="#242426" stroke-width="2" stroke-linecap="round" stroke-linejoin="round"/><path clip-rule="evenodd" d="M21.455 15.974c0 2.577 2.136 4.667 4.772 4.667S31 18.55 31 15.974h-9.545z" stroke="#242426" stroke-width="2" stroke-linecap="round" stroke-linejoin="round"/></svg>