<svg width="34" height="32" fill="none" xmlns="http://www.w3.org/2000/svg"><path clip-rule="evenodd" d="M6.524 10.958c-1.084 0-1.964-.926-1.964-2.067 0-1.143.88-2.067 1.964-2.067h1.31c-1.085 0-1.964-.926-1.964-2.068s.88-1.378 1.964-1.378h8.511c3.733 0 4.583.69 9.167 1.378v11.715C22.303 16.47 17 22.672 17 28.185c0 2.179-2.865 2.99-3.928-.99-.655-2.455 1.309-7.279 1.309-7.279H3.905c-1.084 0-1.964-.926-1.964-2.067 0-1.143.88-2.756 1.964-2.756h1.31c-1.084 0-1.964-.927-1.964-2.068 0-1.142.88-2.067 1.964-2.067h1.31z" stroke="#242426" stroke-width="2" stroke-linecap="round" stroke-linejoin="round"/><path clip-rule="evenodd" d="M32.059 2h-6.547v16.538h6.547V2z" stroke="#242426" stroke-width="2" stroke-linecap="round" stroke-linejoin="round"/><path fill-rule="evenodd" clip-rule="evenodd" d="M28.13 5.445c.362 0 .655-.308.655-.689 0-.38-.293-.689-.655-.689-.361 0-.655.309-.655.69 0 .38.294.688.655.688z" fill="#242426"/></svg>