<svg width="24" height="24" fill="none" xmlns="http://www.w3.org/2000/svg"><path d="M16.792 13.6a4.573 4.573 0 00-4.287-6.173c-.539 0-1.074.097-1.58.286L12 8.82A3.247 3.247 0 0115.746 12c0 .165-.014.33-.04.493l1.086 1.107z" fill="#7B7B7C"/><path d="M22.86 11.687C20.614 7.533 16.674 5.02 12.314 5.02a11.213 11.213 0 00-3.494.567l1.074 1.08a9.853 9.853 0 012.42-.314c3.753 0 7.166 2.094 9.2 5.62a11.833 11.833 0 01-2.914 3.4l.947.947a13.287 13.287 0 003.333-4l.174-.32-.194-.313zM3.246 3.853l2.973 2.974a13.013 13.013 0 00-4.46 4.86L1.586 12l.173.32c2.247 4.153 6.187 6.666 10.547 6.666 1.702 0 3.381-.385 4.913-1.126l3.334 3.333 1.166-1L4.386 2.86l-1.14.993zm6.5 6.5l4.433 4.434c-.5.31-1.077.476-1.666.48A3.247 3.247 0 019.266 12a3.207 3.207 0 01.48-1.647zm-.967-.966a4.567 4.567 0 006.367 6.366l1.067 1.067a9.942 9.942 0 01-3.907.8c-3.753 0-7.167-2.094-9.2-5.62a11.526 11.526 0 014.08-4.2l1.593 1.587z" fill="#7B7B7C"/></svg>