<svg width="25" height="24" fill="none" xmlns="http://www.w3.org/2000/svg"><path d="M23.16 11.687C20.904 7.533 16.946 5.02 12.567 5.02c-4.38 0-8.344 2.513-10.58 6.667L1.798 12l.174.32c2.257 4.153 6.214 6.667 10.594 6.667 4.38 0 8.343-2.48 10.593-6.667l.174-.32-.174-.313zM12.567 17.62c-3.77 0-7.232-2.093-9.241-5.62 2.009-3.527 5.47-5.62 9.24-5.62 3.77 0 7.193 2.1 9.235 5.62-2.042 3.527-5.47 5.62-9.234 5.62z" fill="#7B7B7C"/><path d="M12.761 7.446a4.608 4.608 0 00-2.545.789 4.577 4.577 0 00-1.677 2.062 4.555 4.555 0 001.027 4.975 4.613 4.613 0 005.009.964 4.59 4.59 0 002.052-1.694 4.558 4.558 0 00-.603-5.775 4.595 4.595 0 00-3.263-1.32zm0 7.814a3.264 3.264 0 01-1.796-.561 3.227 3.227 0 01-.466-4.975 3.259 3.259 0 013.535-.7c.593.243 1.1.655 1.46 1.185a3.23 3.23 0 01.555 1.79 3.233 3.233 0 01-.96 2.315 3.263 3.263 0 01-2.328.946z" fill="#7B7B7C"/></svg>