<svg width="24" height="24" fill="none" xmlns="http://www.w3.org/2000/svg"><path d="M23.25 3.563h-2.503a.5.5 0 00-.485.453l-.33 2.784c-.06.519-.476.907-.97.907H2.218c-.992 0-1.695 1.022-1.4 2.018l1.529 5.18c.19.651.758 1.092 1.4 1.092H17.87c1.292 0 1.293 2.072 0 2.072H4.175M19.338 9.78l-.49 4.663" stroke="#1B891B" stroke-width="1.5" stroke-linecap="round" stroke-linejoin="round"/><path clip-rule="evenodd" d="M7.477 21.844a1.407 1.407 0 11-2.814-.001 1.407 1.407 0 012.814 0zm10.76 0a1.407 1.407 0 11-2.813-.001 1.407 1.407 0 012.813 0z" stroke="#1B891B" stroke-width="1.5" stroke-linejoin="round"/><path d="M11.021 7.115l3.913-3.806 3.99 3.806m-12.794 0L3.196.75.75 1.881l2.446 5.234" stroke="#1B891B" stroke-width="1.5" stroke-linecap="round" stroke-linejoin="round"/><path d="M9.555 7.115V4.26h4.402" stroke="#1B891B" stroke-width="1.5" stroke-linecap="round" stroke-linejoin="round"/></svg>