<svg width="34" height="32" fill="none" xmlns="http://www.w3.org/2000/svg"><path clip-rule="evenodd" d="M27.476 21.042c1.084 0 1.964.926 1.964 2.067 0 1.143-.88 2.067-1.964 2.067h-1.31c1.084 0 1.965.927 1.965 2.068 0 1.142-.88 1.378-1.965 1.378h-8.511c-3.734 0-4.583-.69-9.166-1.378V15.529C11.697 15.53 17 9.328 17 3.815c0-2.179 2.865-2.99 3.928.991.655 2.455-1.309 7.278-1.309 7.278h10.476c1.084 0 1.964.926 1.964 2.067 0 1.143-.88 2.757-1.964 2.757h-1.31c1.084 0 1.964.926 1.964 2.067 0 1.142-.88 2.067-1.964 2.067h-1.31zM1.941 30h6.547V13.462H1.941V30z" stroke="#242426" stroke-width="2" stroke-linecap="round" stroke-linejoin="round"/><path fill-rule="evenodd" clip-rule="evenodd" d="M5.87 26.555c-.362 0-.655.308-.655.689 0 .38.293.689.655.689.361 0 .655-.309.655-.69 0-.38-.294-.688-.655-.688z" fill="#242426"/></svg>