<svg width="16" height="16" fill="none" xmlns="http://www.w3.org/2000/svg"><path opacity=".25" fill-rule="evenodd" clip-rule="evenodd" d="M12.428 9.578l3.33-2.6c.218-.19.298-.445.202-.698a.69.69 0 00-.633-.444h-3.875a.702.702 0 01-.602-.317L7.94 0 5.009 5.519a.703.703 0 01-.602.317H.755c-.315 0-.6.19-.712.507-.105.254-.014.571.223.761l3.163 2.474.352.254-.91 2.6-.962 2.729c-.091.253.002.57.233.697.12.064.262.127.405.127.133 0 .266 0 .38-.127l5.001-3.235 5 3.235c.239.19.555.19.786 0 .231-.127.325-.444.234-.697l-1.48-4.187-.393-1.142.352-.254z" fill="#242426"/></svg>