<svg width="25" height="23" fill="none" xmlns="http://www.w3.org/2000/svg"><path d="M7.992 14.883H21.17a.73.73 0 00.699-.54l2.907-10.418a.758.758 0 00-.119-.652.721.721 0 00-.58-.296H6.316L5.796.583A.73.73 0 005.086 0H.727A.736.736 0 000 .744c0 .411.325.744.727.744h3.777l2.624 12.09a2.238 2.238 0 00-1.314 2.049c0 1.23.978 2.232 2.18 2.232H21.17a.735.735 0 00.727-.744.736.736 0 00-.727-.744H7.994a.736.736 0 01-.727-.744c0-.41.325-.743.725-.744zM23.115 4.465l-2.492 8.93H8.577l-1.938-8.93h16.476zM7.267 20.092c0 1.23.978 2.232 2.18 2.232 1.202 0 2.18-1.001 2.18-2.232 0-1.231-.978-2.233-2.18-2.233-1.202 0-2.18 1.002-2.18 2.233zm2.18-.744c.4 0 .726.333.726.744 0 .41-.326.744-.726.744a.737.737 0 01-.727-.744c0-.41.326-.744.727-.744zm8.091.744c0 1.23.978 2.232 2.18 2.232 1.202 0 2.18-1.001 2.18-2.232 0-1.231-.978-2.233-2.18-2.233-1.202 0-2.18 1.002-2.18 2.233zm2.18-.744c.4 0 .727.333.727.744 0 .41-.326.744-.727.744a.737.737 0 01-.727-.744c0-.41.327-.744.727-.744z" fill="#3A3A3C"/></svg>