<svg width="24" height="24" fill="none" xmlns="http://www.w3.org/2000/svg"><path d="M6 1.5v3.075C4.275 4.95 3 6.45 3 8.25c0 1.8 1.275 3.3 3 3.675V22.5h1.5V11.925c1.725-.375 3-1.875 3-3.675 0-1.8-1.275-3.3-3-3.675V1.5H6zm3 6.75c0 1.275-.975 2.25-2.25 2.25S4.5 9.525 4.5 8.25 5.475 6 6.75 6 9 6.975 9 8.25zm9 14.25v-3.075c1.725-.375 3-1.875 3-3.675 0-1.8-1.275-3.3-3-3.675V1.5h-1.5v10.575c-1.725.375-3 1.875-3 3.675 0 1.8 1.275 3.3 3 3.675V22.5H18zm-3-6.75c0-1.275.975-2.25 2.25-2.25s2.25.975 2.25 2.25S18.525 18 17.25 18 15 17.025 15 15.75z" fill="#3A3A3C"/></svg>