<svg width="24" height="22" fill="none" xmlns="http://www.w3.org/2000/svg"><path d="M12 22c-.342 0-.671-.128-.928-.36-.97-.873-1.904-1.694-2.729-2.418l-.004-.003c-2.418-2.123-4.506-3.957-5.959-5.763C.756 11.437 0 9.523 0 7.432 0 5.4.676 3.524 1.904 2.152A6.367 6.367 0 016.704 0C8.09 0 9.36.451 10.477 1.341c.563.45 1.074 1 1.524 1.64.45-.64.96-1.19 1.525-1.64C14.642.451 15.91 0 17.295 0c1.854 0 3.559.765 4.801 2.153C23.324 3.525 24 5.4 24 7.431c0 2.092-.756 4.006-2.38 6.025-1.453 1.806-3.54 3.64-5.958 5.762-.826.725-1.763 1.548-2.734 2.423A1.384 1.384 0 0112 22zM6.705 1.449a4.995 4.995 0 00-3.768 1.686C1.95 4.239 1.406 5.765 1.406 7.43c0 1.76.634 3.332 2.057 5.1 1.375 1.71 3.42 3.506 5.788 5.585l.004.004c.828.727 1.766 1.551 2.743 2.43a341.33 341.33 0 012.752-2.434c2.368-2.08 4.413-3.875 5.788-5.584 1.422-1.769 2.056-3.342 2.056-5.1 0-1.668-.544-3.193-1.531-4.297a4.995 4.995 0 00-3.767-1.686c-1.067 0-2.047.349-2.911 1.038-.771.614-1.308 1.39-1.623 1.934a.876.876 0 01-1.524 0c-.315-.543-.852-1.32-1.623-1.934-.864-.69-1.844-1.038-2.91-1.038z" fill="#3A3A3C"/></svg>