<svg width="31" height="28" fill="none" xmlns="http://www.w3.org/2000/svg"><path d="M15.5 28a1.8 1.8 0 01-1.198-.457 360.781 360.781 0 00-3.525-3.078l-.006-.005c-3.123-2.702-5.82-5.035-7.696-7.334C.977 14.556 0 12.12 0 9.458 0 6.872.873 4.487 2.46 2.74A8.279 8.279 0 018.66 0c1.79 0 3.428.574 4.87 1.707a10.05 10.05 0 011.97 2.088 10.054 10.054 0 011.97-2.088C18.911.574 20.55 0 22.34 0a8.28 8.28 0 016.201 2.74C30.127 4.487 31 6.872 31 9.458c0 2.662-.977 5.098-3.074 7.668-1.877 2.299-4.574 4.632-7.696 7.333-1.067.924-2.277 1.97-3.532 3.084A1.803 1.803 0 0115.5 28zM8.66 1.844A6.495 6.495 0 003.794 3.99C2.518 5.395 1.816 7.337 1.816 9.458c0 2.239.82 4.24 2.657 6.492 1.776 2.175 4.417 4.46 7.476 7.107l.005.005c1.07.925 2.282 1.974 3.543 3.094a424.391 424.391 0 013.555-3.1c3.058-2.646 5.7-4.93 7.476-7.106 1.837-2.251 2.656-4.253 2.656-6.492 0-2.121-.702-4.063-1.978-5.468a6.494 6.494 0 00-4.866-2.146c-1.378 0-2.643.444-3.76 1.321-.995.782-1.689 1.77-2.095 2.462a1.136 1.136 0 01-1.97 0c-.406-.692-1.1-1.68-2.095-2.462-1.117-.877-2.382-1.321-3.76-1.321z" fill="#FF4A4A"/></svg>