<svg width="14" height="14" fill="none" xmlns="http://www.w3.org/2000/svg"><path d="M6.998 3.408A3.587 3.587 0 003.407 7a3.587 3.587 0 003.591 3.592A3.587 3.587 0 0010.59 7a3.587 3.587 0 00-3.592-3.592zm0 5.926A2.34 2.34 0 014.664 7a2.34 2.34 0 012.334-2.334A2.34 2.34 0 019.332 7a2.34 2.34 0 01-2.334 2.334zm3.739-6.91a.838.838 0 100 1.678.837.837 0 00.775-1.16.838.838 0 00-.775-.518zM13.999 7c0-.967.009-1.925-.045-2.89-.055-1.12-.31-2.115-1.13-2.934C12.003.354 11.01.1 9.89.046 8.923-.008 7.965.001 7 .001 6.034 0 5.076-.01 4.11.046 2.99.1 1.995.356 1.176 1.176.354 1.996.1 2.99.046 4.11-.008 5.077.001 6.035.001 7c0 .965-.01 1.925.045 2.89.054 1.12.31 2.115 1.13 2.934.82.822 1.814 1.076 2.934 1.13.967.054 1.925.045 2.89.045.966 0 1.924.01 2.89-.045 1.12-.054 2.115-.31 2.934-1.13.822-.82 1.075-1.814 1.13-2.935.056-.964.045-1.922.045-2.889zm-1.54 4.13a2.224 2.224 0 01-.53.801 2.241 2.241 0 01-.802.53c-.92.365-3.108.283-4.129.283-1.02 0-3.21.082-4.13-.282a2.225 2.225 0 01-.803-.529 2.24 2.24 0 01-.529-.802c-.364-.923-.282-3.11-.282-4.131 0-1.02-.082-3.21.282-4.131.128-.319.282-.557.53-.802.246-.245.482-.401.801-.529.921-.364 3.11-.282 4.131-.282 1.021 0 3.21-.082 4.131.282.319.128.557.282.802.529.247.247.401.483.529.802.364.921.282 3.11.282 4.131 0 1.02.082 3.208-.284 4.13z" fill="#3A3A3C"/></svg>