<svg width="19" height="19" fill="none" xmlns="http://www.w3.org/2000/svg"><path d="M12.717 6.583a.149.149 0 00-.148-.148l-1.225.005L9.5 8.64 7.657 6.441l-1.226-.005a.148.148 0 00-.148.148c0 .035.013.069.035.097l2.414 2.876-2.414 2.874a.149.149 0 00.113.245l1.226-.006L9.5 10.472l1.842 2.197 1.225.006a.148.148 0 00.149-.149.154.154 0 00-.036-.096l-2.41-2.874 2.414-2.876a.15.15 0 00.033-.097z" fill="#FF4A4A"/><path d="M9.5 1.206a8.313 8.313 0 10.001 16.626A8.313 8.313 0 009.5 1.206zm0 15.215a6.904 6.904 0 010-13.805 6.904 6.904 0 010 13.805z" fill="#FF4A4A"/></svg>