<svg width="19" height="23" fill="none" xmlns="http://www.w3.org/2000/svg"><path d="M9.356 10.967c1.507 0 2.812-.54 3.879-1.607 1.066-1.066 1.607-2.37 1.607-3.877 0-1.506-.541-2.81-1.607-3.877C12.168.54 10.863 0 9.356 0 7.85 0 6.544.54 5.478 1.606c-1.066 1.066-1.607 2.37-1.607 3.877 0 1.507.54 2.811 1.607 3.877 1.067 1.066 2.372 1.607 3.878 1.607zM6.422 2.55C7.24 1.732 8.2 1.334 9.356 1.334c1.157 0 2.117.398 2.935 1.216.818.818 1.216 1.777 1.216 2.933s-.398 2.116-1.216 2.934c-.818.818-1.778 1.215-2.935 1.215-1.156 0-2.116-.397-2.934-1.215-.818-.818-1.216-1.778-1.216-2.934 0-1.156.398-2.115 1.216-2.933zm12.532 14.955c-.03-.443-.093-.927-.185-1.438a11.32 11.32 0 00-.353-1.446 7.14 7.14 0 00-.595-1.35 5.083 5.083 0 00-.897-1.168 3.957 3.957 0 00-1.288-.809 4.456 4.456 0 00-1.645-.298c-.233 0-.457.096-.892.378-.267.175-.58.376-.928.599-.299.19-.703.368-1.202.53a4.771 4.771 0 01-1.47.237c-.488 0-.982-.08-1.47-.238-.498-.16-.902-.339-1.2-.529a91.12 91.12 0 01-.93-.599c-.434-.282-.658-.378-.89-.378-.593 0-1.146.1-1.645.298-.501.198-.935.47-1.289.81-.338.323-.64.716-.896 1.168a7.157 7.157 0 00-.595 1.349c-.143.445-.262.931-.354 1.446-.092.51-.154.994-.184 1.439-.03.435-.046.887-.046 1.344 0 1.19.378 2.15 1.123 2.86.736.7 1.71 1.055 2.894 1.055h10.966c1.184 0 2.158-.355 2.894-1.055.745-.709 1.123-1.671 1.123-2.86 0-.459-.016-.911-.046-1.345zm-1.997 3.239c-.487.462-1.132.687-1.974.687H4.017c-.842 0-1.488-.225-1.974-.687-.477-.454-.708-1.073-.708-1.894 0-.426.014-.847.042-1.252.027-.396.083-.832.167-1.295.082-.458.186-.887.31-1.275.12-.373.283-.742.485-1.097.192-.339.414-.63.659-.864.229-.219.517-.398.857-.532a3.07 3.07 0 011.05-.203c.048.025.13.072.266.16.274.179.59.383.94.606.394.251.902.478 1.508.674.62.2 1.253.302 1.88.302.628 0 1.26-.102 1.88-.302.608-.196 1.115-.423 1.51-.675.357-.228.665-.426.94-.605a3.63 3.63 0 01.264-.16c.384.01.737.078 1.051.203.34.134.629.313.857.532.245.234.467.525.66.864a5.8 5.8 0 01.483 1.096c.125.39.23.819.312 1.275.083.464.14.9.167 1.296.028.404.042.825.042 1.252 0 .82-.232 1.44-.708 1.894z" fill="#3A3A3C"/></svg>