<svg width="32" height="32" fill="none" xmlns="http://www.w3.org/2000/svg"><g clip-path="url(#clip0)" fill="#FA4616"><path d="M12.01 28C5.368 28-.016 22.616-.016 16s5.384-12 12-12c3.206 0 6.219 1.25 8.484 3.516a12.092 12.092 0 012.47 3.581 1.001 1.001 0 01-1.823.826 10.093 10.093 0 00-2.061-2.992A9.924 9.924 0 0011.984 6c-5.514 0-10 4.485-10 10s4.486 10 10 10c.552 0 1.014.448 1.014 1a.99.99 0 01-.988 1z"/><path d="M11.37 23.293a1.21 1.21 0 01-.096-.004A7.291 7.291 0 014.644 16c0-4.043 3.29-7.332 7.332-7.332 1.951 0 3.794.758 5.187 2.138.459.459.855.983 1.181 1.563a.998.998 0 11-1.74.981c-.238-.42-.525-.8-.85-1.126a5.348 5.348 0 00-3.777-1.556A5.338 5.338 0 006.645 16a5.3 5.3 0 004.818 5.3 1 1 0 01-.093 1.994z"/><path d="M12 17a1 1 0 01-.707-1.708l8.667-8.667a1 1 0 111.414 1.415l-8.666 8.667A.997.997 0 0112 17z"/><path d="M24.333 8H21a1 1 0 01-1-1V3.667c0-.266.105-.52.293-.707L22.96.293A1.001 1.001 0 0124.667 1v2.333H27a1.001 1.001 0 01.707 1.707L25.04 7.707a.996.996 0 01-.707.293zM22 6h1.919l.666-.667h-.918a1 1 0 01-1-1v-.918L22 4.08V6zm1.335 26c-4.779 0-8.667-3.888-8.667-8.667 0-4.778 3.888-8.666 8.667-8.666 4.778 0 8.666 3.888 8.666 8.666 0 4.779-3.888 8.667-8.666 8.667zm0-15.333a6.674 6.674 0 00-6.667 6.666A6.674 6.674 0 0023.335 30 6.674 6.674 0 0030 23.333a6.674 6.674 0 00-6.666-6.666z"/><path d="M22 26.667a.997.997 0 01-.65-.242l-2.333-2a1 1 0 011.303-1.518l1.604 1.374L25.6 20.32a1 1 0 011.467 1.36l-4.334 4.667a1 1 0 01-.733.32z"/></g><defs><clipPath id="clip0"><path fill="#fff" d="M0 0h32v32H0z"/></clipPath></defs></svg>