<svg width="32" height="28" fill="none" xmlns="http://www.w3.org/2000/svg"><path d="M16 10.938A5.444 5.444 0 0021.438 5.5 5.444 5.444 0 0016 .062 5.444 5.444 0 0010.562 5.5 5.444 5.444 0 0016 10.938zm0-9A3.567 3.567 0 0119.563 5.5 3.567 3.567 0 0116 9.063 3.567 3.567 0 0112.437 5.5 3.567 3.567 0 0116 1.937zm11 9A3.441 3.441 0 0030.438 7.5 3.441 3.441 0 0027 4.062 3.441 3.441 0 0023.562 7.5 3.441 3.441 0 0027 10.938zm0-5a1.564 1.564 0 010 3.125c-.862 0-1.563-.701-1.563-1.563S26.138 5.937 27 5.937zm.756 7.125h-1.45a4.25 4.25 0 00-3.856 2.459 7.546 7.546 0 00-5.576-2.46h-1.748a7.545 7.545 0 00-5.576 2.46 4.25 4.25 0 00-3.856-2.46h-1.45C1.904 13.063 0 14.956 0 17.282v6.825c0 1.01.825 1.831 1.838 1.831h5.733a2.191 2.191 0 002.18 2H22.25a2.192 2.192 0 002.18-2h5.667c1.05 0 1.904-.85 1.904-1.896v-6.76c0-2.326-1.904-4.218-4.244-4.218zM1.875 17.28c0-1.292 1.063-2.343 2.369-2.343h1.45c1.306 0 2.369 1.05 2.369 2.343v.642c-.63 1.641-.5 2.625-.5 6.14H1.875V17.28zm20.688 8.468a.315.315 0 01-.314.314H9.75a.314.314 0 01-.313-.314v-5.123a5.695 5.695 0 015.688-5.689h1.748a5.695 5.695 0 015.689 5.69v5.122zm7.562-1.708c0 .033.35.021-5.688.021 0-3.54.13-4.5-.5-6.14v-.641c0-1.292 1.063-2.343 2.37-2.343h1.45c1.305 0 2.368 1.05 2.368 2.343v6.76zM5 10.938A3.441 3.441 0 008.438 7.5 3.441 3.441 0 005 4.062 3.441 3.441 0 001.562 7.5 3.441 3.441 0 005 10.938zm0-5a1.564 1.564 0 010 3.125c-.862 0-1.563-.702-1.563-1.563S4.138 5.937 5 5.937z" fill="#FA4616"/></svg>