<svg width="32" height="32" fill="none" xmlns="http://www.w3.org/2000/svg"><path d="M0 16c0 8.81 7.19 16 15.999 16H16c8.81 0 16-7.19 16-16 0-8.81-7.19-16-16-16C7.201 0 0 7.182 0 16zm1.875 0c0-2.804.821-5.42 2.236-7.62l1.78.434a1.028 1.028 0 01.653 1.5c-.678 1.235-.27 2.828.928 3.627l4.05 2.7.932 1.863a1.643 1.643 0 01-.308 1.9l-.559.558a.937.937 0 000 1.326l1.119 1.118c.31.311.481.724.481 1.164 0 1.904.434 3.793 1.255 5.468C7.383 29.26 1.874 23.262 1.874 16zm12.256 1.666l-.364-.729h.137c.935 0 1.777.52 2.195 1.357a4.306 4.306 0 003.872 2.393h.716v.938c0 .758-.297 1.469-.836 2.001-1.73 1.709-3.025 3.416-3.917 5.175a10.832 10.832 0 01-.871-4.231c0-.94-.367-1.824-1.031-2.49l-.458-.457a3.515 3.515 0 00.557-3.957zm3.279 12.389c.8-1.718 2.038-3.396 3.758-5.094a4.654 4.654 0 001.395-3.336V19.75a.938.938 0 00-.938-.938h-1.654c-.935 0-1.777-.52-2.195-1.356a4.306 4.306 0 00-3.872-2.393h-1.075l-.285-.57c-.505-1.011-.047-2.24 1.043-2.8.896-.459 1.476-1.464 1.476-2.56V8.5c0-.517.42-.938.937-.938h1.131c1.928 0 3.281-1.901 2.665-3.713l-.532-1.593c2.103.5 4.024 1.47 5.648 2.794l-.286.859a.942.942 0 01-.227.366l-1.013 1.013a2.794 2.794 0 00-.823 1.989v1.098a2.816 2.816 0 002.812 2.813c.517 0 .938.42.938.937v1.432c0 .145-.035.29-.1.42l-.32.64a2.795 2.795 0 00.123 2.737 2.794 2.794 0 002.393 1.333h.915c-1.787 5.066-6.386 8.817-11.914 9.368zM30.125 16c0 .963-.097 1.903-.282 2.813H28.41a.924.924 0 01-.798-.445.925.925 0 01-.04-.912l.32-.64c.194-.39.297-.824.297-1.259v-1.432a2.816 2.816 0 00-2.813-2.813.939.939 0 01-.938-.937V9.277c0-.25.098-.486.275-.663L25.725 7.6c.307-.307.542-.687.68-1.1l.01-.032A14.07 14.07 0 0130.125 16zM16 1.875c.396 0 .789.017 1.177.05l.842 2.523a.937.937 0 01-.888 1.24H16A2.816 2.816 0 0013.187 8.5v.632c0 .395-.183.753-.455.893-1.463.75-2.296 2.184-2.272 3.655l-1.948-1.299c-.396-.264-.538-.775-.325-1.164a2.89 2.89 0 00.118-2.565A2.89 2.89 0 006.34 6.994l-1.006-.245A14.097 14.097 0 0116 1.875z" fill="#FA4616"/></svg>