<svg width="32" height="30" fill="none" xmlns="http://www.w3.org/2000/svg"><path d="M32 9.224a.937.937 0 00-.277-.669L23.705.6a.938.938 0 00-1.323.003l-2.33 2.33A10.412 10.412 0 0016 3.35a10.4 10.4 0 00-4.052-.418L9.618.603A.937.937 0 008.295.6L.277 8.555a.938.938 0 00.005 1.336l2.384 2.33a10.41 10.41 0 00.456 4.161 10.21 10.21 0 001.115 2.366l-.416.416a2.816 2.816 0 00.873 4.57 2.817 2.817 0 00.453 3.385 2.81 2.81 0 003.384.454 2.816 2.816 0 004.57.872l.247-.247.573.572c.031.032.065.06.1.087.53.526 1.232.815 1.98.815s1.452-.29 1.982-.818c.524-.508.339-.326.669-.656.325.326.98 1.07 2.236 1.07a2.811 2.811 0 002.582-1.697 2.814 2.814 0 003.384-.452 2.817 2.817 0 00.452-3.385 2.81 2.81 0 00.874-4.57l-.419-.418a10.397 10.397 0 001.573-6.526l2.384-2.329A.938.938 0 0032 9.224zM5.146 21.816a.939.939 0 010-1.326l.252-.251c.08.084.16.168.242.251l1.08 1.079-.248.247a.939.939 0 01-1.326 0zm2.652 3.977a.937.937 0 11-1.326-1.325l1.573-1.573 1.326 1.326-1.573 1.572zm3.977 1.326a.939.939 0 01-1.325-1.326l.247-.247 1.326 1.326-.248.247zm15.079-5.303a.939.939 0 01-1.326 0l-6.63-6.63a.937.937 0 00-1.325 1.327l7.955 7.955a.939.939 0 01-1.326 1.325l-7.955-7.955a.937.937 0 00-1.326 1.326l6.63 6.63a.937.937 0 11-1.327 1.325l-6.629-6.629a.937.937 0 00-1.325 1.326l5.056 5.056c-.305.305-.167.17-.653.64a.931.931 0 01-.673.285.931.931 0 01-.673-.285c-.558-.54-7.763-7.75-8.36-8.348a8.374 8.374 0 01-2.388-7.16.938.938 0 00-.273-.803L2.274 9.215 8.952 2.59l1.991 1.99a.937.937 0 00.795.266 8.47 8.47 0 011.39-.08c-.478.337-.93.718-1.352 1.141L6.472 11.21a2.81 2.81 0 001.989 4.8c.72 0 1.44-.274 1.989-.822l3.76-3.761a6.569 6.569 0 003.768.188l8.876 8.876a.937.937 0 010 1.326zm.84-10.615a.937.937 0 00-.273.803 8.508 8.508 0 01-1.025 5.377l-6.547-6.547a6.54 6.54 0 001.207-.95.938.938 0 00-1.326-1.326 4.696 4.696 0 01-5.335.916.938.938 0 00-1.067.183l-4.204 4.204a.939.939 0 01-1.326-1.326l5.303-5.303a8.378 8.378 0 017.161-2.387.938.938 0 00.795-.265l1.99-1.991 6.68 6.626-2.033 1.986z" fill="#FA4616"/></svg>