<svg width="14" height="14" fill="none" xmlns="http://www.w3.org/2000/svg"><path d="M6.998 3.735A3.26 3.26 0 003.733 7a3.26 3.26 0 003.265 3.265A3.26 3.26 0 0010.263 7a3.26 3.26 0 00-3.265-3.265zm0 5.387A2.127 2.127 0 014.876 7c0-1.169.954-2.122 2.122-2.122C8.167 4.878 9.12 5.83 9.12 7a2.127 2.127 0 01-2.122 2.122zm3.399-6.282a.762.762 0 100 1.525.76.76 0 00.54-1.302.762.762 0 00-.54-.223zM13.363 7c0-.879.008-1.75-.042-2.627-.049-1.019-.281-1.923-1.026-2.668-.747-.747-1.65-.978-2.669-1.027C8.748.628 7.876.637 7 .637c-.879 0-1.75-.008-2.627.041C3.354.728 2.45.96 1.705 1.705.958 2.452.727 3.355.678 4.373.628 5.252.637 6.123.637 7c0 .877-.008 1.75.041 2.627.05 1.018.282 1.923 1.027 2.668.747.746 1.65.977 2.668 1.027.879.049 1.75.041 2.627.041.879 0 1.75.008 2.626-.041 1.02-.05 1.924-.282 2.669-1.027.746-.747.977-1.65 1.026-2.668.051-.878.042-1.748.042-2.627zm-1.401 3.754c-.116.29-.256.506-.48.729-.225.224-.44.364-.73.48-.837.333-2.826.259-3.754.259-.928 0-2.918.074-3.755-.257a2.022 2.022 0 01-.73-.48 2.037 2.037 0 01-.48-.73C1.702 9.916 1.777 7.928 1.777 7c0-.928-.075-2.918.256-3.756.116-.29.256-.506.48-.729.225-.223.44-.364.73-.48.837-.332 2.827-.257 3.755-.257.928 0 2.918-.075 3.756.256.29.117.506.257.729.481.224.225.364.44.48.73.332.837.257 2.827.257 3.755 0 .928.075 2.916-.258 3.754z" fill="#fff"/></svg>