<svg width="12" height="12" fill="none" xmlns="http://www.w3.org/2000/svg"><path fill-rule="evenodd" clip-rule="evenodd" d="M12 8.984v1.807a1.203 1.203 0 01-1.316 1.204 11.955 11.955 0 01-5.207-1.848 11.754 11.754 0 01-3.62-3.613A11.902 11.902 0 01.005 1.313 1.203 1.203 0 011.205 0h1.81a1.206 1.206 0 011.207 1.036 7.72 7.72 0 00.423 1.692c.165.44.06.936-.272 1.27l-.766.765a9.644 9.644 0 003.62 3.613l.766-.765c.335-.33.832-.436 1.273-.27a7.76 7.76 0 001.696.42A1.205 1.205 0 0112 8.985z" fill="#FA4616"/></svg>