<svg width="14" height="13" fill="none" xmlns="http://www.w3.org/2000/svg"><path clip-rule="evenodd" d="M13 9.484v1.807a1.203 1.203 0 01-1.316 1.204 11.955 11.955 0 01-5.207-1.848 11.754 11.754 0 01-3.62-3.613 11.902 11.902 0 01-1.852-5.221A1.203 1.203 0 012.205.5h1.81a1.206 1.206 0 011.207 1.036 7.72 7.72 0 00.423 1.692c.165.44.06.936-.272 1.27l-.766.765a9.644 9.644 0 003.62 3.613l.766-.765c.335-.33.832-.436 1.273-.27a7.76 7.76 0 001.696.42A1.205 1.205 0 0113 9.485z" stroke="#FA4616" stroke-linecap="round" stroke-linejoin="round"/></svg>