<svg width="20" height="20" fill="none" xmlns="http://www.w3.org/2000/svg"><path d="M12.5 9.75c.829 0 1.5-.783 1.5-1.75s-.671-1.75-1.5-1.75c-.827 0-1.5.783-1.5 1.75s.672 1.75 1.5 1.75zm-5 0C8.33 9.75 9 8.967 9 8s-.67-1.75-1.5-1.75C6.674 6.25 6 7.033 6 8s.672 1.75 1.5 1.75zm2.502 1.75c-3.424 0-4.622 2.065-4.672 2.164a.75.75 0 001.342.672c.008-.017.822-1.586 3.33-1.586 2.463 0 3.298 1.527 3.328 1.585a.749.749 0 001.386-.095.748.748 0 00-.044-.575c-.05-.099-1.246-2.165-4.67-2.165z" fill="#FA4616"/><circle cx="10" cy="10" r="9.5" stroke="#FA4616"/></svg>