<svg width="26" height="26" fill="none" xmlns="http://www.w3.org/2000/svg"><path fill-rule="evenodd" clip-rule="evenodd" d="M1 11.737C1 5.807 5.807 1 11.737 1s10.737 4.807 10.737 10.737-4.807 10.737-10.737 10.737S1 17.667 1 11.737zm10.737-9.474a9.474 9.474 0 100 18.947 9.474 9.474 0 000-18.947z" fill="#E7590E"/><path fill-rule="evenodd" clip-rule="evenodd" d="M18.427 18.427a.631.631 0 01.893 0l5.495 5.495a.631.631 0 11-.893.893l-5.495-5.495a.631.631 0 010-.893z" fill="#E7590E"/><path clip-rule="evenodd" d="M1 11.737C1 5.807 5.807 1 11.737 1s10.737 4.807 10.737 10.737-4.807 10.737-10.737 10.737S1 17.667 1 11.737zm10.737-9.474a9.474 9.474 0 100 18.947 9.474 9.474 0 000-18.947z" stroke="#FA4616" stroke-linecap="round" stroke-linejoin="round"/><path clip-rule="evenodd" d="M18.427 18.427a.631.631 0 01.893 0l5.495 5.495a.631.631 0 11-.893.893l-5.495-5.495a.631.631 0 010-.893z" stroke="#FA4616" stroke-linecap="round" stroke-linejoin="round"/></svg>