<svg width="26" height="21" fill="none" xmlns="http://www.w3.org/2000/svg"><path d="M25.18 10.053l-2.625-6.344a.9.9 0 00-.322-.402.853.853 0 00-.483-.15h-2.625V1.343a.924.924 0 00-.256-.641.86.86 0 00-.619-.265H1.625a.86.86 0 00-.619.265.923.923 0 00-.256.64V16.75c0 .24.092.47.256.64a.86.86 0 00.619.266h1.873a3.633 3.633 0 001.251 1.93c.61.483 1.358.745 2.126.745.768 0 1.515-.262 2.126-.746a3.633 3.633 0 001.252-1.929h5.495a3.633 3.633 0 001.251 1.93c.61.483 1.358.745 2.126.745.768 0 1.515-.262 2.126-.746a3.633 3.633 0 001.252-1.929h1.872a.86.86 0 00.619-.265c.164-.17.256-.4.256-.641v-6.344a.933.933 0 00-.07-.353zm-6.055-5.084h2.047L23.046 9.5h-3.92V4.969zM6.875 18.562c-.346 0-.684-.106-.972-.305a1.8 1.8 0 01-.645-.813 1.873 1.873 0 01-.1-1.048c.068-.351.235-.674.48-.928a1.73 1.73 0 01.896-.496c.34-.07.69-.034 1.01.104.32.137.594.369.786.667a1.859 1.859 0 01-.218 2.289 1.72 1.72 0 01-1.237.53zm8.873-2.718h-5.495A3.634 3.634 0 009 13.914a3.422 3.422 0 00-2.126-.745c-.768 0-1.515.262-2.126.746a3.634 3.634 0 00-1.251 1.929H2.5V2.25h14.875v11.383a3.556 3.556 0 00-1.027.937c-.279.38-.483.812-.6 1.274zm3.377 2.719a1.71 1.71 0 01-.972-.306 1.8 1.8 0 01-.645-.813 1.873 1.873 0 01-.1-1.048c.068-.351.235-.674.48-.928a1.73 1.73 0 01.896-.496c.34-.07.69-.034 1.01.104.32.137.594.369.786.667a1.859 1.859 0 01-.218 2.289 1.72 1.72 0 01-1.237.53zm4.375-2.72h-.997a3.637 3.637 0 00-1.242-1.955 3.424 3.424 0 00-2.136-.763v-1.813H23.5v4.532z" fill="#000"/></svg>