<svg width="108" height="48" fill="none" xmlns="http://www.w3.org/2000/svg"><path d="M13.347 28.629a6.962 6.962 0 00-1.598-.752 5.659 5.659 0 00-1.741-.267 4.483 4.483 0 00-1.09.124c-.3.07-.587.191-.847.36-.222.143-.41.335-.548.56-.131.224-.2.48-.195.739-.01.23.05.457.17.653.124.186.292.338.488.445.245.134.506.235.776.3.342.086.688.154 1.037.203l.822.11a9.05 9.05 0 011.409.314c.437.132.851.332 1.226.595.357.251.653.58.867.96.229.432.341.916.326 1.404a3.271 3.271 0 01-.385 1.607 3.544 3.544 0 01-1.037 1.176 4.78 4.78 0 01-1.52.725 6.627 6.627 0 01-1.832.248 8.031 8.031 0 01-1.252-.104 8.764 8.764 0 01-1.304-.3 7.754 7.754 0 01-1.174-.504 5.214 5.214 0 01-1.037-.699l1.037-1.535c.224.203.472.378.737.523.61.335 1.271.569 1.956.692a5.77 5.77 0 001.05.098c.364.005.728-.032 1.083-.11.31-.068.607-.185.88-.347.237-.139.44-.329.594-.555.149-.222.226-.484.222-.751a1.157 1.157 0 00-.652-1.065 6.122 6.122 0 00-2.035-.549l-.926-.13a7.21 7.21 0 01-1.305-.308 3.758 3.758 0 01-1.128-.6 2.9 2.9 0 01-.802-.974 3.054 3.054 0 01-.326-1.41 3.323 3.323 0 01.372-1.588 3.46 3.46 0 011.01-1.17 4.65 4.65 0 011.494-.718 6.513 6.513 0 011.826-.248 7.511 7.511 0 012.354.346c.691.224 1.35.54 1.957.94l-.959 1.562zm6.489.914a3.854 3.854 0 011.559.314c.462.2.876.499 1.213.875.347.396.615.855.789 1.352.196.56.293 1.15.287 1.745v.666h-6.052c.043.333.15.654.313.947.14.252.329.474.554.653.216.169.461.295.724.373.271.08.552.12.835.117a3.55 3.55 0 001.226-.228c.41-.154.79-.375 1.128-.654l.88 1.274c-.46.405-1 .71-1.585.895a6.006 6.006 0 01-1.767.255 4.499 4.499 0 01-1.682-.307 3.823 3.823 0 01-2.165-2.221 4.854 4.854 0 01-.307-1.764 4.918 4.918 0 01.3-1.744c.184-.505.468-.967.835-1.359a3.71 3.71 0 011.304-.875 4.219 4.219 0 011.61-.32v.006zm-.033 1.588a2.313 2.313 0 00-.848.143c-.243.09-.466.23-.652.412a2.18 2.18 0 00-.437.653c-.117.258-.199.53-.24.81h4.225a2.55 2.55 0 00-.652-1.483 1.89 1.89 0 00-1.402-.542l.006.007zm9.45-1.588a4.41 4.41 0 011.709.327c.506.215.953.55 1.304.973l-1.141 1.215a3.417 3.417 0 00-.9-.653 2.474 2.474 0 00-1.057-.216 2.363 2.363 0 00-.952.19 2.269 2.269 0 00-.75.568 2.475 2.475 0 00-.509.823 3.165 3.165 0 000 2.123c.113.308.286.59.509.83.215.23.474.412.763.536a2.52 2.52 0 002.06-.065c.33-.155.634-.36.9-.608l1.103 1.26a3.603 3.603 0 01-1.343.974 4.352 4.352 0 01-1.703.327 4.559 4.559 0 01-1.76-.327 3.918 3.918 0 01-2.218-2.28 4.895 4.895 0 010-3.41 3.916 3.916 0 012.198-2.26 4.557 4.557 0 011.78-.333l.007.006zm12.162 4.913a3.923 3.923 0 01-.325 1.672c-.196.439-.485.83-.848 1.143-.354.298-.765.52-1.207.653a4.759 4.759 0 01-2.791 0 3.445 3.445 0 01-1.213-.653 3.172 3.172 0 01-.848-1.143 3.987 3.987 0 01-.32-1.672v-4.704h1.788v4.573c-.01.34.041.678.15 1 .09.246.235.47.423.653.185.174.409.301.653.372a2.72 2.72 0 001.565 0 1.6 1.6 0 00.652-.372c.189-.183.334-.407.424-.653.11-.322.163-.66.156-1v-4.573h1.787l-.046 4.704zm6.49-4.913c.246 0 .493.019.736.06.223.035.442.094.652.175l-.423 1.764a2.52 2.52 0 00-.653-.222 3.46 3.46 0 00-.697-.078 2.064 2.064 0 00-.783.143 1.654 1.654 0 00-.613.425 2.001 2.001 0 00-.398.692c-.1.3-.148.613-.143.928v4.488H43.77v-8.166h1.76v.921a2.457 2.457 0 011.011-.862 3.25 3.25 0 011.357-.274l.006.006zm5.967 0a3.854 3.854 0 011.558.314c.463.2.877.499 1.213.875.359.393.638.853.822 1.352.196.56.293 1.15.287 1.745v.666H51.66c.043.333.15.654.313.947.14.252.329.474.554.653.216.169.461.295.724.373.271.08.552.12.835.117.419-.003.834-.08 1.226-.228.41-.154.79-.375 1.128-.654l.887 1.268c-.46.405-1 .71-1.585.895a6.007 6.007 0 01-1.767.254 4.501 4.501 0 01-1.683-.307 3.825 3.825 0 01-2.165-2.22 4.853 4.853 0 01-.306-1.764 4.919 4.919 0 01.3-1.745c.18-.503.46-.965.821-1.358.368-.382.813-.68 1.305-.876a4.234 4.234 0 011.617-.313l.007.006zm-.033 1.588a2.313 2.313 0 00-.848.143c-.244.09-.466.23-.652.412-.184.19-.332.41-.437.653-.118.258-.199.53-.241.81H55.9a2.549 2.549 0 00-.652-1.483 1.889 1.889 0 00-1.416-.542l.007.007zm11.55-5.39a6.79 6.79 0 011.532.17c.477.109.94.276 1.376.497.418.211.806.477 1.154.79.34.303.633.655.868 1.045l-1.605 1.072a3.914 3.914 0 00-1.402-1.261 4 4 0 00-1.956-.457 4.424 4.424 0 00-1.683.313 3.91 3.91 0 00-1.304.889c-.382.393-.682.86-.88 1.371a5.032 5.032 0 000 3.528c.198.512.498.978.88 1.372.37.382.814.684 1.304.888.535.213 1.107.32 1.683.314a3.91 3.91 0 003.32-1.712l1.564 1.15a5.15 5.15 0 01-.9 1.006 5.603 5.603 0 01-1.108.784 5.946 5.946 0 01-1.344.483 6.98 6.98 0 01-4.017-.3 5.757 5.757 0 01-3.26-3.267 6.877 6.877 0 010-4.938 5.756 5.756 0 013.26-3.266 6.649 6.649 0 012.517-.47zm10.499 3.776a4.562 4.562 0 011.748.327 4.28 4.28 0 011.389.901c.394.387.706.85.92 1.36a4.546 4.546 0 010 3.409 4.145 4.145 0 01-2.31 2.26 4.818 4.818 0 01-3.495 0 4.214 4.214 0 01-1.389-.901 4.17 4.17 0 01-.939-1.333 4.546 4.546 0 010-3.41c.212-.509.522-.97.913-1.359.4-.39.871-.695 1.39-.901a4.556 4.556 0 011.78-.333l-.007-.02zm0 1.679c-.346-.004-.69.06-1.01.19a2.385 2.385 0 00-1.344 1.358 2.976 2.976 0 000 2.123 2.395 2.395 0 001.344 1.359c.65.255 1.371.255 2.02 0a2.421 2.421 0 001.357-1.34 2.976 2.976 0 000-2.122 2.468 2.468 0 00-.54-.823 2.439 2.439 0 00-.816-.536 2.64 2.64 0 00-1.004-.19l-.007-.019zm9.737-1.679a3.082 3.082 0 012.563 1.202v-5.095h1.78V37.91h-1.78v-.98c-.285.364-.645.66-1.057.87-.469.227-.985.34-1.506.326a3.968 3.968 0 01-2.89-1.209 4.108 4.108 0 01-.867-1.378 4.887 4.887 0 010-3.45 4.12 4.12 0 01.868-1.358 3.969 3.969 0 012.889-1.208v-.007zm.215 1.679a2.453 2.453 0 00-1.03.21 2.307 2.307 0 00-.77.56 2.492 2.492 0 00-.483.83 3.101 3.101 0 000 2.026c.106.305.27.587.483.83.215.238.477.43.77.56a2.643 2.643 0 002.034 0c.294-.126.558-.313.776-.548.213-.226.38-.49.496-.777a3.106 3.106 0 000-2.078 2.48 2.48 0 00-.502-.822 2.336 2.336 0 00-.776-.55 2.463 2.463 0 00-.998-.221v-.02zm10.043-1.679a3.85 3.85 0 011.559.314c.462.2.876.499 1.213.875.347.396.615.855.789 1.352.196.56.293 1.15.287 1.744v.667h-6.02c.043.333.15.654.313.947.141.252.33.474.555.653.215.169.461.295.724.373.27.08.552.119.834.117.42-.003.834-.08 1.226-.228.41-.155.79-.375 1.129-.654l.886 1.268c-.46.404-1 .71-1.584.895a6.004 6.004 0 01-1.768.254 4.5 4.5 0 01-1.682-.307 3.824 3.824 0 01-2.165-2.22 4.854 4.854 0 01-.307-1.765 4.922 4.922 0 01.3-1.744c.184-.504.468-.966.835-1.358a3.71 3.71 0 011.304-.876 4.236 4.236 0 011.572-.287v-.02zm4.702 8.375V37.5h.163v-.085h-.424v.085h.183v.411l.078-.02zm.815 0v-.497h-.13l-.15.34-.15-.34h-.131v.497h.091v-.373l.138.32h.091l.137-.32v.373h.104zm-5.55-6.788a2.309 2.309 0 00-.847.144c-.244.09-.467.23-.653.412a2.16 2.16 0 00-.436.653c-.118.257-.2.53-.242.81h4.226a2.55 2.55 0 00-.652-1.502 1.89 1.89 0 00-1.396-.497v-.02z" fill="#F79E1B"/><path d="M19.195 21.084h-1.996V10.906l-3.607 8.956h-2.1L7.9 11.004v10.08H5.891V8.718h3.058l3.594 8.838 3.586-8.838h3.059l.007 12.366zm10.5 0h-1.846V20.07a3.264 3.264 0 01-1.096.902 3.375 3.375 0 01-1.559.333 4.112 4.112 0 01-3-1.255 4.27 4.27 0 01-.9-1.41 5.07 5.07 0 010-3.58 4.28 4.28 0 01.9-1.411 4.112 4.112 0 013-1.255 3.342 3.342 0 011.559.34c.427.22.8.53 1.096.908v-1.019h1.845v8.46zM25.41 14.14a2.545 2.545 0 00-1.07.215 2.39 2.39 0 00-.796.582 2.611 2.611 0 00-.502.862 3.22 3.22 0 000 2.103c.112.318.285.611.509.863.222.247.493.445.795.581a2.736 2.736 0 002.113 0c.304-.132.577-.326.803-.568.227-.25.404-.54.521-.856a3.231 3.231 0 000-2.156 2.614 2.614 0 00-.521-.855 2.425 2.425 0 00-1.852-.771zm12.742.6a5.063 5.063 0 00-1.128-.476 6.616 6.616 0 00-.73-.177 4.316 4.316 0 00-.783-.071 2.116 2.116 0 00-1.18.28.843.843 0 00-.418.732.61.61 0 00.111.372.85.85 0 00.294.249c.14.071.29.124.443.157.17.039.352.073.548.104l.874.13c.777.081 1.52.36 2.159.81.536.4.84 1.037.815 1.706.004.387-.086.77-.261 1.117a2.52 2.52 0 01-.75.842 3.665 3.665 0 01-1.207.569 6 6 0 01-1.63.202c-.217 0-.47-.013-.756-.039a6.294 6.294 0 01-1.911-.49 4.562 4.562 0 01-.959-.555l.855-1.385c.157.122.323.233.495.333.193.11.396.202.606.274.245.084.496.148.75.19.309.05.62.074.933.072.494.028.987-.069 1.435-.281a.843.843 0 00.489-.751.7.7 0 00-.352-.595 2.768 2.768 0 00-1.109-.34l-.88-.117a4.06 4.06 0 01-2.14-.823 2.086 2.086 0 01-.736-1.66 2.57 2.57 0 01.248-1.136c.161-.337.4-.63.697-.856a3.36 3.36 0 011.096-.536 5.145 5.145 0 011.454-.189 7.287 7.287 0 011.878.235 5.395 5.395 0 011.546.653l-.796 1.45zm8.752-.444h-3.26v3.685c-.001.249.041.496.123.731.06.182.158.35.287.49.118.126.263.222.424.281.17.062.348.093.529.092.3-.003.6-.06.88-.17a4.58 4.58 0 00.822-.405l.73 1.476c-.36.24-.744.44-1.148.595a4 4 0 01-1.441.248 3.017 3.017 0 01-2.23-.804 3.395 3.395 0 01-.81-2.495v-3.717h-1.675v-1.679h1.676v-2.56h1.852v2.56h3.26l-.019 1.672zm5.674-1.9a3.992 3.992 0 011.617.32c.48.207.91.517 1.259.908.361.41.64.887.822 1.404.202.581.301 1.194.293 1.81v.685h-6.28c.046.345.156.677.326.98a2.31 2.31 0 001.324 1.039c.281.084.574.126.867.124.446.001.888-.078 1.305-.235a4.11 4.11 0 001.167-.653l.92 1.306a4.604 4.604 0 01-1.644.928c-.594.18-1.212.27-1.833.268a4.655 4.655 0 01-1.78-.288 3.958 3.958 0 01-1.37-.901 4.073 4.073 0 01-.893-1.405 5.037 5.037 0 01-.32-1.829 5.117 5.117 0 01.307-1.81 4.147 4.147 0 01.867-1.41c.367-.39.812-.7 1.305-.908a4.383 4.383 0 011.74-.327v-.006zm-.033 1.646a2.38 2.38 0 00-.88.15 1.906 1.906 0 00-.652.431c-.19.19-.344.41-.457.653-.13.271-.22.56-.267.856h4.382a2.614 2.614 0 00-.704-1.535c-.38-.37-.892-.57-1.422-.555zm10.435-1.646c.255-.002.51.018.763.058.223.04.441.1.652.183l-.444 1.83a2.607 2.607 0 00-.652-.23 3.648 3.648 0 00-.724-.078 2.143 2.143 0 00-.808.15 1.714 1.714 0 00-.652.445 2.079 2.079 0 00-.418.718c-.104.31-.155.634-.15.96v4.658h-1.845v-8.492h1.826v.954c.258-.38.614-.682 1.03-.876.443-.19.92-.284 1.402-.274l.02-.006zm6.306 0a4.56 4.56 0 011.774.34c.536.22 1.01.567 1.382 1.012l-1.18 1.26a3.538 3.538 0 00-.933-.653 2.603 2.603 0 00-1.095-.228 2.456 2.456 0 00-.985.196c-.3.127-.572.316-.796.555a2.57 2.57 0 00-.521.856 3.273 3.273 0 000 2.201c.116.317.293.608.521.856.224.238.495.427.796.555.311.133.647.2.985.196.392.004.78-.081 1.135-.248a3.65 3.65 0 00.932-.654l1.135 1.274c-.38.442-.858.79-1.396 1.013-.56.23-1.161.346-1.767.34a4.722 4.722 0 01-1.826-.34 4.08 4.08 0 01-2.302-2.345 5.07 5.07 0 010-3.534 4.08 4.08 0 012.302-2.345c.58-.22 1.2-.321 1.82-.301l.019-.006zm12.958 8.688H80.4V20.07a3.264 3.264 0 01-1.096.902 3.375 3.375 0 01-1.559.333 4.112 4.112 0 01-3-1.255 4.27 4.27 0 01-.9-1.41 5.07 5.07 0 010-3.58 4.28 4.28 0 01.9-1.411 4.112 4.112 0 013-1.255 3.342 3.342 0 011.559.34c.427.22.8.53 1.096.908v-1.019h1.845v8.46zm-4.278-6.944a2.546 2.546 0 00-1.07.215 2.395 2.395 0 00-.795.582 2.616 2.616 0 00-.502.862 3.22 3.22 0 000 2.103c.11.317.28.61.502.863.222.247.493.445.796.581a2.742 2.742 0 002.113 0 2.42 2.42 0 00.802-.568 2.58 2.58 0 00.521-.856 3.219 3.219 0 000-2.156 2.572 2.572 0 00-.521-.855 2.424 2.424 0 00-.802-.569 2.54 2.54 0 00-1.037-.202h-.007zm11.276-1.738c.255-.002.51.018.763.059.223.039.441.1.652.183l-.444 1.829a2.607 2.607 0 00-.652-.229 3.663 3.663 0 00-.724-.078 2.133 2.133 0 00-.808.15 1.715 1.715 0 00-.652.444 2.076 2.076 0 00-.418.719c-.104.31-.154.634-.15.96v4.658h-1.845v-8.492h1.845v.953a2.538 2.538 0 011.037-.882c.443-.19.92-.284 1.402-.274h-.006zm6.052 0a3.343 3.343 0 011.558.34c.427.22.8.53 1.096.908V8.365h1.846v12.719h-1.846V20.07a3.265 3.265 0 01-1.096.902 3.376 3.376 0 01-1.558.333 4.112 4.112 0 01-3-1.255 4.283 4.283 0 01-.92-1.41 5.072 5.072 0 010-3.58 4.28 4.28 0 01.9-1.411 4.112 4.112 0 013-1.255l.02.007zm6.652 7.904a.544.544 0 01.391.157.524.524 0 010 .758.574.574 0 01-.391.163.548.548 0 01-.509-.326.533.533 0 01.293-.706.557.557 0 01.222-.046h-.006zm0 .96a.4.4 0 00.293-.123.424.424 0 00-.13-.686.4.4 0 00-.163 0 .422.422 0 00-.163 0 .419.419 0 00-.131.653c.037.038.082.07.131.091a.412.412 0 00.169.06l-.006.006zm0-.653a.23.23 0 01.15.046.144.144 0 01.052.118.14.14 0 01-.039.104.198.198 0 01-.118.052l.163.19h-.13l-.15-.19h-.046v.19h-.104v-.503l.222-.007zm-.124.092v.13h.124a.116.116 0 00.065 0 .06.06 0 000-.052.054.054 0 000-.052.122.122 0 00-.065 0l-.124-.026zm-6.34-6.533a2.548 2.548 0 00-1.069.216 2.397 2.397 0 00-.795.581 2.616 2.616 0 00-.503.863 3.22 3.22 0 000 2.103c.111.317.282.61.503.862.222.247.493.445.795.582a2.74 2.74 0 002.113 0c.304-.133.577-.326.802-.569a2.59 2.59 0 00.568-.908 3.226 3.226 0 000-2.155 2.578 2.578 0 00-.522-.856 2.426 2.426 0 00-.802-.568 2.54 2.54 0 00-1.05-.183l-.04.032z" fill="#EB001B"/></svg>