<svg width="108" height="48" fill="none" xmlns="http://www.w3.org/2000/svg"><path fill-rule="evenodd" clip-rule="evenodd" d="M45.694 25.153L41.52 36.402l-.445-2.286c-1.04-2.802-3.292-5.743-5.914-6.934l3.82 14.444 4.516-.002 6.715-16.471h-4.517zm3.579 16.491l2.67-16.506h4.266l-2.672 16.506h-4.264zm19.74-16.1c-.843-.333-2.173-.694-3.823-.694-4.22 0-7.185 2.24-7.21 5.446-.028 2.374 2.12 3.698 3.733 4.487 1.666.807 2.223 1.325 2.217 2.047-.016 1.106-1.332 1.61-2.556 1.61-1.705 0-2.614-.249-4.012-.863l-.554-.263-.597 3.694c.998.46 2.84.858 4.756.879 4.478 0 7.392-2.216 7.427-5.637.018-1.883-1.122-3.308-3.586-4.485-1.487-.765-2.406-1.272-2.393-2.048.002-.685.772-1.419 2.445-1.419a7.464 7.464 0 013.192.635l.38.19.581-3.579zm10.942-.39h-3.296c-1.022 0-1.788.291-2.239 1.37l-6.332 15.124h4.48s.733-2.035.898-2.482c.49 0 4.841.01 5.462.01.132.576.52 2.472.52 2.472h3.961l-3.454-16.494zm-5.261 10.637c.354-.948 1.7-4.614 1.7-4.614-.027.045.35-.955.567-1.573l.284 1.423s.82 3.939.99 4.764h-3.541z" fill="#1B548E"/><path fill-rule="evenodd" clip-rule="evenodd" d="M37.645 25.145h-6.88l-.04.284c5.35 1.367 8.879 4.723 10.348 8.692l-1.495-7.586c-.257-1.043-1.006-1.354-1.933-1.39z" fill="#E89F3E"/><path fill-rule="evenodd" clip-rule="evenodd" d="M17.859 21.156h-2.72L12 7.025l3.007-.503 2.147 11.06 5.469-10.914h2.888L17.86 21.156zm14.148-4.62h-6.488c-.177 1.965.737 2.823 2.286 2.823 1.298 0 2.44-.482 3.668-1.255l-.01 1.965c-1.205.753-2.597 1.234-4.23 1.234-2.825 0-4.69-1.61-4.13-5.248.506-3.282 2.779-5.268 5.416-5.268 3.034 0 4.043 2.279 3.602 5.143-.032.21-.092.46-.114.606zm-3.818-4.013c-1.005 0-1.943.793-2.386 2.445h4.018c.074-1.568-.418-2.445-1.632-2.445zm8.047 2.78l-.892 5.79h-2.511l1.555-10.097h2.135l.001 2.028c.85-1.17 2.006-2.153 3.588-2.236l.015 2.487c-1.586.105-3.013.94-3.892 2.028zm3.858 5.79l1.556-10.097h2.51l-1.555 10.098h-2.511zm3.093-11.79c-.837 0-1.416-.586-1.288-1.422.132-.857.896-1.463 1.732-1.463.817 0 1.393.606 1.26 1.463-.128.836-.888 1.422-1.704 1.422zm7.928-1.066c-.858 0-1.376.376-1.515 1.275l-.228 1.484h1.925l-.002 2.049h-2.239l-1.24 8.049h-2.49l1.24-8.05h-1.465l.316-2.048h1.464l.268-1.735c.344-2.237 1.896-3.073 3.968-3.073.44 0 .768.042 1.013.084l.019 2.048a6.373 6.373 0 00-1.034-.083zm.028 12.857l1.556-10.098h2.51l-1.555 10.098h-2.511zm3.093-11.791c-.837 0-1.416-.586-1.288-1.422.132-.857.896-1.463 1.732-1.463.817 0 1.393.606 1.261 1.463-.129.836-.889 1.422-1.705 1.422zm10.71 7.233h-6.488c-.177 1.965.737 2.823 2.286 2.823 1.298 0 2.439-.482 3.668-1.255l-.01 1.965c-1.205.753-2.598 1.234-4.23 1.234-2.825 0-4.69-1.61-4.13-5.248.506-3.282 2.779-5.268 5.416-5.268 3.034 0 4.043 2.279 3.602 5.143-.032.21-.092.46-.114.606zm-3.818-4.013c-1.005 0-1.944.793-2.386 2.445h4.018c.074-1.568-.419-2.445-1.632-2.445zm11.257 8.57l.006-1.4c-.844.857-1.943 1.61-3.346 1.61-2.114 0-3.566-1.568-3.042-4.976.58-3.763 2.91-5.435 5.253-5.435.963 0 1.712.167 2.286.376l.75-4.871L76.866 6 74.54 21.094h-2.156zm.838-7.755c-.582-.293-1.041-.44-1.899-.44-1.319 0-2.445 1.067-2.787 3.283-.302 1.965.393 2.885 1.502 2.885.92 0 1.716-.543 2.514-1.38l.67-4.348zm9.01 7.85a8.977 8.977 0 01-3.06-.506l1.651-10.72 1.949-.302-.715 4.64c.57-.507 1.36-1.013 2.328-1.013 1.617 0 2.7 1.204 2.304 3.769-.434 2.818-2.174 4.133-4.457 4.133zm1.403-6.223c-.634 0-1.271.428-1.834.998l-.535 3.468c.375.142.635.206 1.174.206 1.204 0 2.046-.729 2.314-2.47.227-1.473-.263-2.202-1.12-2.202zm7.536 6.54c-.972 1.885-1.934 2.47-3.408 2.47-.334 0-.518-.031-.685-.078l-.013-1.568c.244.063.506.11.87.11.556 0 1.038-.253 1.362-.807l.252-.507-1.613-7.537 2.021-.253.936 5.447 2.534-5.337h1.887l-4.143 8.06z" fill="#1B548E"/></svg>