<svg width="56" height="56" viewBox="0 0 56 56" fill="none" xmlns="http://www.w3.org/2000/svg">
<circle cx="28" cy="28" r="26.5" fill="white" stroke="#3D3D3D" stroke-width="3"/>
<path d="M21.104 39V22.92C21.088 22.936 20.904 22.984 20.552 23.064C20.216 23.144 19.832 23.224 19.4 23.304C18.968 23.384 18.584 23.456 18.248 23.52C17.912 23.584 17.736 23.616 17.72 23.616V21.672C17.992 21.608 18.304 21.52 18.656 21.408C19.024 21.296 19.392 21.16 19.76 21C20.144 20.84 20.504 20.64 20.84 20.4C21.192 20.16 21.488 19.88 21.728 19.56H23.672V39H21.104ZM27.7396 39V37.176L32.6836 29.472C33.0516 28.896 33.3876 28.36 33.6916 27.864C34.0116 27.368 34.2676 26.848 34.4596 26.304C34.6676 25.744 34.7716 25.104 34.7716 24.384C34.7716 23.488 34.6276 22.784 34.3396 22.272C34.0516 21.76 33.5476 21.504 32.8276 21.504C32.2196 21.504 31.7476 21.672 31.4116 22.008C31.0756 22.344 30.8436 22.784 30.7156 23.328C30.5876 23.872 30.5236 24.456 30.5236 25.08V25.728H27.9556V25.056C27.9556 23.888 28.1076 22.888 28.4116 22.056C28.7316 21.208 29.2356 20.552 29.9236 20.088C30.6276 19.624 31.5556 19.392 32.7076 19.392C34.2756 19.392 35.4436 19.84 36.2116 20.736C36.9796 21.616 37.3636 22.84 37.3636 24.408C37.3636 25.24 37.2596 25.968 37.0516 26.592C36.8596 27.216 36.6036 27.8 36.2836 28.344C35.9636 28.888 35.6116 29.448 35.2276 30.024L30.7636 36.84H36.9076V39H27.7396Z" fill="#EB5757"/>
</svg>
