<svg width="10" height="6" viewBox="0 0 10 6" fill="none" xmlns="http://www.w3.org/2000/svg">
<path d="M4.61386 5.83709L0.159754 1.28798C0.0567475 1.18286 1.24322e-08 1.04254 1.06479e-08 0.892917C8.86371e-09 0.743295 0.0567474 0.603055 0.159754 0.497855L0.487312 0.163156C0.590401 0.0580386 0.727717 -1.82817e-07 0.874302 -1.79927e-07C1.02072 -1.7704e-07 1.15804 0.0580386 1.26105 0.163156L4.65219 3.6265L4.64482 3.63403L5.00207 3.98384L5.35933 3.63403L5.35196 3.6265L8.73895 0.167391C8.95212 -0.0503999 9.29911 -0.0503999 9.51261 0.167391L9.84025 0.50209C9.94325 0.607207 10 0.74753 10 0.897152C10 1.04677 9.94325 1.1871 9.84025 1.29221L5.3902 5.83709M4.61386 5.83709C4.7172 5.94246 4.85516 6.00033 5.00183 6C5.14906 6.00033 5.28695 5.94246 5.3902 5.83709M4.61386 5.83709L4.97085 5.487M4.61386 5.83709L4.97113 5.48729L4.97085 5.487M5.3902 5.83709L5.03294 5.48729L5.03302 5.48721C5.02755 5.49277 5.02279 5.49556 5.01908 5.49711C5.01536 5.49867 5.01028 5.50002 5.00296 5.49999L5.0007 5.5C4.99389 5.50002 4.98895 5.49876 4.98513 5.49716C4.9813 5.49555 4.9764 5.49266 4.97085 5.487M5.3902 5.83709L5.03308 5.48714L9.48298 0.942408L9.48313 0.942263C9.49287 0.932321 9.5 0.918342 9.5 0.897152C9.5 0.875962 9.49287 0.861983 9.48313 0.85204L9.48294 0.851855L9.15555 0.517405M9.15555 0.517405L9.5126 0.167396L9.1553 0.517156L9.15555 0.517405ZM9.15555 0.517405C9.14577 0.507433 9.13565 0.504048 9.12566 0.504048C9.11567 0.504048 9.10579 0.507413 9.09628 0.517133L9.09621 0.517201L5.35933 4.33365L5.00207 4.69851L4.64482 4.33365L0.903927 0.513107L1.26103 0.163175L0.903789 0.512966L0.903834 0.513012C0.89817 0.507255 0.89325 0.50438 0.889524 0.502807C0.885806 0.501238 0.881005 0.5 0.874302 0.5C0.867454 0.5 0.862588 0.501262 0.85885 0.50284C0.855081 0.50443 0.850076 0.507352 0.844295 0.513248M0.844295 0.513248L0.844657 0.512877L0.487538 0.163378L0.844295 0.513248ZM0.844295 0.513248L0.517098 0.847576L0.517012 0.847665C0.507058 0.85783 0.5 0.87184 0.5 0.892917C0.5 0.914108 0.507132 0.928087 0.516874 0.938029L0.517018 0.938176L4.97085 5.487" fill="#FF9F2F" stroke="#EB5757"/>
</svg>
