<svg width="26" height="26" viewBox="0 0 26 26" fill="none" xmlns="http://www.w3.org/2000/svg">
<path d="M5.20267 0H19.8693L25.072 7.43067L12.536 25.3333L0 7.43067L5.20267 0ZM10.752 1.33333L8.488 6.66667H16.584L14.32 1.33333H10.752V1.33333ZM8.30533 8L12.536 21.0187L16.7653 8H8.30667H8.30533ZM2.16267 6.66667H7.04L9.304 1.33333H5.896L2.16267 6.66667ZM2.02667 8L11.1267 20.996L6.904 8H2.02667V8ZM22.9093 6.66667L19.176 1.33333H15.768L18.032 6.66667H22.9093ZM23.0453 8H18.168L13.9453 20.996L23.0453 8Z" fill="#EB5757"/>
</svg>
