<svg width="28" height="28" viewBox="0 0 28 28" fill="none" xmlns="http://www.w3.org/2000/svg">
<path d="M13.4374 0.205798C13.1306 -0.0685993 12.6666 -0.0685993 12.3598 0.205798C12.0617 0.518132 12.0617 1.00954 12.3598 1.32188L13.2065 2.16857L3.23876 17.5628L0.236891 20.5647C-0.0607103 20.8377 -0.0805996 21.3003 0.192472 21.5978C0.206615 21.6133 0.221495 21.6281 0.236891 21.6422L5.93271 27.338C6.20571 27.6356 6.66832 27.6555 6.96584 27.3825C6.98131 27.3683 6.99612 27.3534 7.01026 27.338L10.0506 24.3362L12.3982 22.8352L15.6694 26.1064C15.9424 26.404 16.405 26.4239 16.7026 26.1509C16.718 26.1367 16.7328 26.1218 16.747 26.1064L22.6737 20.1797C22.8188 20.0376 22.9017 19.8439 22.9047 19.6409C22.9123 19.4246 22.8285 19.2151 22.6737 19.0636L20.9034 17.2933L25.4062 14.4068L26.2529 15.2535C26.4195 15.3784 26.622 15.4459 26.8302 15.4459C27.0256 15.4404 27.2143 15.3731 27.369 15.2535C27.6331 14.9284 27.6331 14.4626 27.369 14.1374L13.4374 0.205798ZM6.47156 25.7217L1.85329 21.1034L3.85451 19.1022L8.47278 23.7205L6.47156 25.7217ZM21.0575 19.641L16.2083 24.4517L13.7068 21.9501L19.5951 18.1785L21.0575 19.641ZM9.66584 22.7198L4.85516 17.9092L14.3226 3.28464L24.2903 13.2909L9.66584 22.7198Z" fill="#EB5757"/>
</svg>
