<svg width="24" height="15" viewBox="0 0 24 15" fill="none" xmlns="http://www.w3.org/2000/svg">
<path d="M14.4342 7.74219C14.4342 9.13504 14.1429 10.3772 13.5603 11.4688C12.9777 12.5536 12.1473 13.4007 11.0692 14.01C9.99107 14.6261 8.75558 14.9342 7.36272 14.9342C6.36496 14.9342 5.41071 14.74 4.5 14.3516C3.58929 13.9632 2.8058 13.4408 2.14955 12.7846C1.4933 12.1283 0.970982 11.3449 0.582589 10.4342C0.194196 9.52344 0 8.5692 0 7.57143C0 6.57366 0.194196 5.61942 0.582589 4.7087C0.970982 3.79799 1.4933 3.01451 2.14955 2.35826C2.8058 1.70201 3.58929 1.17969 4.5 0.791294C5.41071 0.402901 6.36496 0.208705 7.36272 0.208705C9.2779 0.208705 10.9219 0.851562 12.2946 2.13728L10.2958 4.0558C9.51228 3.29911 8.5346 2.92076 7.36272 2.92076C6.53906 2.92076 5.77567 3.12835 5.07254 3.54353C4.37612 3.9587 3.82366 4.52455 3.41518 5.24107C3.0067 5.95089 2.80246 6.72768 2.80246 7.57143C2.80246 8.41518 3.0067 9.19531 3.41518 9.91183C3.82366 10.6217 4.37612 11.1842 5.07254 11.5993C5.77567 12.0145 6.53906 12.2221 7.36272 12.2221C7.91853 12.2221 8.42746 12.1451 8.88951 11.9911C9.35826 11.8371 9.7433 11.6462 10.0446 11.4185C10.346 11.1842 10.6071 10.9196 10.8281 10.625C11.0558 10.3304 11.2199 10.0525 11.3203 9.79129C11.4275 9.53013 11.5011 9.28237 11.5413 9.04799H7.36272V6.51674H14.3136C14.394 6.93862 14.4342 7.3471 14.4342 7.74219ZM23.1429 6.51674V8.62612H21.0435V10.7254H18.9342V8.62612H16.8348V6.51674H18.9342V4.41741H21.0435V6.51674H23.1429Z" fill="white"/>
</svg>
