<svg width="25" height="15" viewBox="0 0 25 15" fill="none" xmlns="http://www.w3.org/2000/svg">
<path d="M15.377 7.5335C15.377 8.9263 15.067 10.1685 14.446 11.2601C13.826 12.3449 12.941 13.192 11.793 13.8013C10.644 14.4174 9.32799 14.7255 7.84399 14.7255C6.78099 14.7255 5.76401 14.5313 4.79401 14.1429C3.82401 13.7545 2.98899 13.2321 2.28999 12.5759C1.59099 11.9196 1.034 11.1362 0.621002 10.2255C0.207002 9.3147 0 8.3605 0 7.3627C0 6.365 0.207002 5.4107 0.621002 4.5C1.034 3.58929 1.59099 2.80581 2.28999 2.14956C2.98899 1.49331 3.82401 0.97099 4.79401 0.58259C5.76401 0.1942 6.78099 0 7.84399 0C9.88399 0 11.636 0.64286 13.098 1.92858L10.969 3.8471C10.134 3.09041 9.09199 2.71206 7.84399 2.71206C6.96599 2.71206 6.15301 2.91965 5.40401 3.33483C4.66201 3.75 4.074 4.31585 3.638 5.0324C3.203 5.7422 2.98599 6.519 2.98599 7.3627C2.98599 8.2065 3.203 8.9866 3.638 9.7031C4.074 10.413 4.66201 10.9755 5.40401 11.3906C6.15301 11.8058 6.96599 12.0134 7.84399 12.0134C8.43599 12.0134 8.978 11.9364 9.47 11.7824C9.97 11.6284 10.38 11.4375 10.701 11.2098C11.022 10.9755 11.3 10.7109 11.536 10.4163C11.778 10.1217 11.953 9.8438 12.06 9.5826C12.174 9.3214 12.253 9.0737 12.296 8.8393H7.84399V6.308H15.249C15.335 6.7299 15.377 7.1384 15.377 7.5335ZM24.655 6.308V8.4174H22.419V10.5167H20.172V8.4174H17.935V6.308H20.172V4.20871H22.419V6.308H24.655Z" fill="black"/>
</svg>
