<svg width="17" height="13" viewBox="0 0 17 13" fill="none" xmlns="http://www.w3.org/2000/svg">
<path d="M16.865 1.52679C16.387 2.18304 15.809 2.74219 15.131 3.20425C15.138 3.298 15.142 3.43862 15.142 3.62612C15.142 4.49666 15.006 5.3672 14.735 6.2377C14.464 7.1016 14.05 7.9319 13.494 8.7288C12.945 9.5257 12.288 10.2321 11.525 10.8482C10.762 11.4575 9.84101 11.9464 8.76401 12.3147C7.68701 12.6763 6.535 12.8571 5.308 12.8571C3.374 12.8571 1.605 12.3716 0 11.4006C0.25 11.4274 0.527999 11.4408 0.834999 11.4408C2.44 11.4408 3.87 10.9788 5.126 10.0546C4.377 10.0413 3.706 9.827 3.114 9.4118C2.522 8.99 2.115 8.4542 1.894 7.8047C2.13 7.8382 2.347 7.8549 2.547 7.8549C2.854 7.8549 3.157 7.8181 3.456 7.7444C2.657 7.5904 1.994 7.2188 1.466 6.6295C0.945003 6.0335 0.684998 5.3438 0.684998 4.56027V4.5201C1.17 4.77456 1.691 4.91184 2.247 4.93193C1.776 4.63728 1.402 4.25224 1.124 3.77679C0.845001 3.30135 0.706001 2.78572 0.706001 2.22992C0.706001 1.64063 0.863002 1.09487 1.177 0.59264C2.04 1.59041 3.089 2.39063 4.323 2.99331C5.565 3.58929 6.891 3.92077 8.304 3.98773C8.247 3.73327 8.218 3.4855 8.218 3.24443C8.218 2.3471 8.554 1.58371 9.224 0.95425C9.902 0.31808 10.719 0 11.675 0C12.674 0 13.515 0.34152 14.2 1.02456C14.978 0.88394 15.709 0.62277 16.394 0.24107C16.13 1.01117 15.623 1.60715 14.874 2.02903C15.538 1.96206 16.201 1.79465 16.865 1.52679Z" fill="black"/>
</svg>
